<?xml version="1.0" encoding="utf-8"?>
<!-- Generator: Adobe Illustrator 19.2.1, SVG Export Plug-In . SVG Version: 6.00 Build 0)  -->
<svg version="1.1" id="Layer_1" xmlns="http://www.w3.org/2000/svg" xmlns:xlink="http://www.w3.org/1999/xlink" x="0px" y="0px"
	 viewBox="0 0 139.3 29.3" style="enable-background:new 0 0 139.3 29.3;" xml:space="preserve">
<style type="text/css">
	.st0{clip-path:url(#SVGID_2_);fill:#231F20;}
	.st1{clip-path:url(#SVGID_4_);fill:#231F20;}
	.st2{clip-path:url(#SVGID_6_);enable-background:new    ;}
	.st3{clip-path:url(#SVGID_8_);}
	.st4{clip-path:url(#SVGID_10_);}
	.st5{clip-path:url(#SVGID_12_);fill:#231F20;}
	.st6{clip-path:url(#SVGID_14_);}
	.st7{clip-path:url(#SVGID_16_);fill:#231F20;}
	.st8{clip-path:url(#SVGID_18_);}
	.st9{clip-path:url(#SVGID_20_);fill:#231F20;}
	.st10{clip-path:url(#SVGID_22_);}
	.st11{clip-path:url(#SVGID_24_);fill:#231F20;}
	.st12{clip-path:url(#SVGID_26_);}
	.st13{clip-path:url(#SVGID_28_);fill:#231F20;}
	.st14{clip-path:url(#SVGID_30_);}
	.st15{clip-path:url(#SVGID_32_);fill:#231F20;}
	.st16{clip-path:url(#SVGID_34_);}
	.st17{clip-path:url(#SVGID_36_);fill:#231F20;}
	.st18{clip-path:url(#SVGID_38_);}
	.st19{clip-path:url(#SVGID_40_);fill:#231F20;}
	.st20{clip-path:url(#SVGID_42_);}
	.st21{clip-path:url(#SVGID_44_);fill:#231F20;}
	.st22{clip-path:url(#SVGID_46_);}
	.st23{clip-path:url(#SVGID_48_);fill:#231F20;}
	.st24{clip-path:url(#SVGID_50_);}
	.st25{clip-path:url(#SVGID_52_);fill:#231F20;}
	.st26{clip-path:url(#SVGID_54_);}
	.st27{clip-path:url(#SVGID_56_);fill:#231F20;}
	.st28{clip-path:url(#SVGID_58_);}
	.st29{clip-path:url(#SVGID_60_);fill:#442D86;}
	.st30{clip-path:url(#SVGID_62_);}
	.st31{clip-path:url(#SVGID_64_);fill:#442D86;}
	.st32{clip-path:url(#SVGID_66_);}
	.st33{clip-path:url(#SVGID_68_);fill:#442D86;}
	.st34{clip-path:url(#SVGID_70_);}
	.st35{clip-path:url(#SVGID_72_);fill:#442D86;}
	.st36{clip-path:url(#SVGID_74_);}
	.st37{clip-path:url(#SVGID_76_);fill:#442D86;}
	.st38{clip-path:url(#SVGID_78_);}
	.st39{clip-path:url(#SVGID_80_);fill:#442D86;}
	.st40{clip-path:url(#SVGID_82_);}
	.st41{clip-path:url(#SVGID_84_);fill:#442D86;}
	.st42{clip-path:url(#SVGID_86_);}
	.st43{clip-path:url(#SVGID_88_);fill:#231F20;}
	.st44{clip-path:url(#SVGID_90_);}
	.st45{clip-path:url(#SVGID_92_);fill:#231F20;}
	.st46{clip-path:url(#SVGID_94_);}
	.st47{clip-path:url(#SVGID_96_);fill:#231F20;}
	.st48{clip-path:url(#SVGID_98_);}
	.st49{clip-path:url(#SVGID_100_);fill:#231F20;}
</style>
<g>
	<defs>
		<path id="SVGID_1_" d="M11.4,10c1.5,0.9,2.4,2.2,2.4,4.4c0,3.2-2.6,5.2-5.8,5.2H0V1.3h6.8c3.7,0,6.5,1.8,6.5,5.3
			C13.2,8.2,12.4,9.2,11.4,10z M3.7,8.6h3.1c1.7,0,2.7-0.9,2.7-2c0-1.4-1.3-2-2.6-2H3.7V8.6z M10.2,14.1c0-1.5-1.2-2.3-3.2-2.3H3.7
			v4.5h3.4C9.3,16.3,10.2,15.5,10.2,14.1z"/>
	</defs>
	<clipPath id="SVGID_2_">
		<use xlink:href="#SVGID_1_"  style="overflow:visible;"/>
	</clipPath>
	<rect x="-5" y="-3.7" class="st0" width="23.8" height="28.2"/>
</g>
<g>
	<defs>
		<path id="SVGID_3_" d="M15.8,6.5h3.1l0.2,1.3c0,0,1-1.6,3.4-1.6c1.7,0,2.8,0.7,2.8,0.7l-1,3c0,0-0.9-0.5-2.1-0.5
			c-1.7,0-2.8,1.6-2.8,3.4v6.8h-3.5V6.5"/>
	</defs>
	<clipPath id="SVGID_4_">
		<use xlink:href="#SVGID_3_"  style="overflow:visible;"/>
	</clipPath>
	<rect x="10.8" y="1.3" class="st1" width="19.5" height="23.3"/>
</g>
<g>
	<defs>
		<rect id="SVGID_5_" width="139.3" height="29.3"/>
	</defs>
	<clipPath id="SVGID_6_">
		<use xlink:href="#SVGID_5_"  style="overflow:visible;"/>
	</clipPath>
	<g class="st2">
		<g>
			<defs>
				<rect id="SVGID_7_" x="26" y="0" width="114" height="30"/>
			</defs>
			<clipPath id="SVGID_8_">
				<use xlink:href="#SVGID_7_"  style="overflow:visible;"/>
			</clipPath>
			<g class="st3">
				<defs>
					<rect id="SVGID_9_" x="26.5" y="6.5" width="3.4" height="13"/>
				</defs>
				<clipPath id="SVGID_10_">
					<use xlink:href="#SVGID_9_"  style="overflow:visible;"/>
				</clipPath>
				<g class="st4">
					<defs>
						<rect id="SVGID_11_" y="0" width="140" height="30"/>
					</defs>
					<clipPath id="SVGID_12_">
						<use xlink:href="#SVGID_11_"  style="overflow:visible;"/>
					</clipPath>
					<rect x="21.5" y="1.5" class="st5" width="13.4" height="23"/>
				</g>
			</g>
			<g class="st3">
				<defs>
					<path id="SVGID_13_" d="M38.1,17.9c3.7,0.1,6.7,3.2,6.7,6.7c0,0.7-0.1,1.4-0.1,1.4h-3.5c0,0,0.1-0.7,0.1-1.4
						c0-1.9-1.6-3.8-3.7-3.8c-1,0-2.4,0.7-3.1,1.4l-2-2.4c0.7-0.7,1.7-1.5,2.4-1.7v-1.2c-1.8-0.7-3.3-2.8-3.3-5
						c0-3.2,2.5-5.5,5.8-5.5h7v2.9l-2.2-0.1c0.4,0.5,0.8,1.4,0.8,2.8c0,2.7-2.1,5.2-5,5.3V17.9 M37.4,14.5c1.4,0,2.5-1,2.5-2.5
						c0-1.5-1.1-2.6-2.5-2.6c-1.3,0-2.5,1.1-2.5,2.6C34.9,13.5,36.1,14.5,37.4,14.5"/>
				</defs>
				<clipPath id="SVGID_14_">
					<use xlink:href="#SVGID_13_"  style="overflow:visible;"/>
				</clipPath>
				<g class="st6">
					<defs>
						<rect id="SVGID_15_" y="0" width="140" height="30"/>
					</defs>
					<clipPath id="SVGID_16_">
						<use xlink:href="#SVGID_15_"  style="overflow:visible;"/>
					</clipPath>
					<rect x="26.7" y="1.5" class="st7" width="23.2" height="29.5"/>
				</g>
			</g>
			<g class="st3">
				<defs>
					<path id="SVGID_17_" d="M57.8,19.5h-3.5l-0.3-8.3c-0.1-1-0.6-1.8-1.7-1.8c-1.5,0-2.8,1.4-2.8,2v8.2h-3.5V0h3.5v7.2
						c0,0,1-1,3.1-1c2.6,0,4.7,1.7,4.9,4.7L57.8,19.5"/>
				</defs>
				<clipPath id="SVGID_18_">
					<use xlink:href="#SVGID_17_"  style="overflow:visible;"/>
				</clipPath>
				<g class="st8">
					<defs>
						<rect id="SVGID_19_" y="0" width="140" height="30"/>
					</defs>
					<clipPath id="SVGID_20_">
						<use xlink:href="#SVGID_19_"  style="overflow:visible;"/>
					</clipPath>
					<rect x="40.9" y="-5" class="st9" width="21.9" height="29.5"/>
				</g>
			</g>
			<g class="st3">
				<defs>
					<path id="SVGID_21_" d="M63.8,15.7c0,0.9,0.5,1.2,1,1.2c0.7,0,1.4-0.3,1.4-0.3l0.7,2.7c0,0-1.3,0.5-2.8,0.5
						c-1.6,0-3.8-0.9-3.8-3.9V9.6h-1.7V6.5h1.7V3.1h3.5v3.4h2.8v3.1h-2.8V15.7"/>
				</defs>
				<clipPath id="SVGID_22_">
					<use xlink:href="#SVGID_21_"  style="overflow:visible;"/>
				</clipPath>
				<g class="st10">
					<defs>
						<rect id="SVGID_23_" y="0" width="140" height="30"/>
					</defs>
					<clipPath id="SVGID_24_">
						<use xlink:href="#SVGID_23_"  style="overflow:visible;"/>
					</clipPath>
					<rect x="53.7" y="-1.9" class="st11" width="18.2" height="26.7"/>
				</g>
			</g>
			<g class="st3">
				<defs>
					<path id="SVGID_25_" d="M72.4,13.4v6.2h-3.7V1.3h6.7c3.9,0,6.4,2.7,6.4,5.9c0,3.5-2.1,5.1-3.6,5.7l4.1,6.6h-4.4l-3.5-6.2H72.4
						 M78.2,7.3c0-1.5-1.1-2.7-2.7-2.7h-3.1v5.6h3.1C77.1,10.1,78.2,8.8,78.2,7.3"/>
				</defs>
				<clipPath id="SVGID_26_">
					<use xlink:href="#SVGID_25_"  style="overflow:visible;"/>
				</clipPath>
				<g class="st12">
					<defs>
						<rect id="SVGID_27_" y="0" width="140" height="30"/>
					</defs>
					<clipPath id="SVGID_28_">
						<use xlink:href="#SVGID_27_"  style="overflow:visible;"/>
					</clipPath>
					<rect x="63.7" y="-3.7" class="st13" width="23.7" height="28.2"/>
				</g>
			</g>
			<g class="st3">
				<defs>
					<path id="SVGID_29_" d="M96.6,13.1c0,3.6-2.7,6.6-7.1,6.6c-4.4,0-7.2-3-7.2-6.6c0-3.8,2.7-6.8,7.2-6.8
						C93.9,6.3,96.6,9.3,96.6,13.1 M93.1,13.1c0-2.2-1.4-3.8-3.6-3.8c-2.2,0-3.6,1.6-3.6,3.8c0,2.2,1.4,3.6,3.6,3.6
						C91.7,16.8,93.1,15.3,93.1,13.1"/>
				</defs>
				<clipPath id="SVGID_30_">
					<use xlink:href="#SVGID_29_"  style="overflow:visible;"/>
				</clipPath>
				<g class="st14">
					<defs>
						<rect id="SVGID_31_" y="0" width="140" height="30"/>
					</defs>
					<clipPath id="SVGID_32_">
						<use xlink:href="#SVGID_31_"  style="overflow:visible;"/>
					</clipPath>
					<rect x="77.3" y="1.3" class="st15" width="24.3" height="23.5"/>
				</g>
			</g>
			<g class="st3">
				<defs>
					<rect id="SVGID_33_" x="98.4" width="3.4" height="19.5"/>
				</defs>
				<clipPath id="SVGID_34_">
					<use xlink:href="#SVGID_33_"  style="overflow:visible;"/>
				</clipPath>
				<g class="st16">
					<defs>
						<rect id="SVGID_35_" y="0" width="140" height="30"/>
					</defs>
					<clipPath id="SVGID_36_">
						<use xlink:href="#SVGID_35_"  style="overflow:visible;"/>
					</clipPath>
					<rect x="93.4" y="-5" class="st17" width="13.4" height="29.5"/>
				</g>
			</g>
			<g class="st3">
				<defs>
					<rect id="SVGID_37_" x="105.1" width="3.4" height="19.5"/>
				</defs>
				<clipPath id="SVGID_38_">
					<use xlink:href="#SVGID_37_"  style="overflow:visible;"/>
				</clipPath>
				<g class="st18">
					<defs>
						<rect id="SVGID_39_" y="0" width="140" height="30"/>
					</defs>
					<clipPath id="SVGID_40_">
						<use xlink:href="#SVGID_39_"  style="overflow:visible;"/>
					</clipPath>
					<rect x="100.1" y="-5" class="st19" width="13.4" height="29.5"/>
				</g>
			</g>
			<g class="st3">
				<defs>
					<path id="SVGID_41_" d="M30,2.4c0,1-0.8,1.8-1.8,1.8c-1,0-1.8-0.8-1.8-1.8s0.8-1.8,1.8-1.8C29.2,0.6,30,1.4,30,2.4"/>
				</defs>
				<clipPath id="SVGID_42_">
					<use xlink:href="#SVGID_41_"  style="overflow:visible;"/>
				</clipPath>
				<g class="st20">
					<defs>
						<rect id="SVGID_43_" y="0" width="140" height="30"/>
					</defs>
					<clipPath id="SVGID_44_">
						<use xlink:href="#SVGID_43_"  style="overflow:visible;"/>
					</clipPath>
					<rect x="21.4" y="-4.4" class="st21" width="13.6" height="13.6"/>
				</g>
			</g>
			<g class="st3">
				<defs>
					<path id="SVGID_45_" d="M115.4,9.1h-3.5v10.5h3.5c3.2,0,5.6-2.2,5.6-5.3C120.9,11.3,118.6,9.1,115.4,9.1 M115.4,18.6h-2.5v-8.5
						h2.5c2.6,0,4.5,1.8,4.5,4.3C119.9,16.9,118,18.6,115.4,18.6"/>
				</defs>
				<clipPath id="SVGID_46_">
					<use xlink:href="#SVGID_45_"  style="overflow:visible;"/>
				</clipPath>
				<g class="st22">
					<defs>
						<rect id="SVGID_47_" y="0" width="140" height="30"/>
					</defs>
					<clipPath id="SVGID_48_">
						<use xlink:href="#SVGID_47_"  style="overflow:visible;"/>
					</clipPath>
					<rect x="106.8" y="4.1" class="st23" width="19.1" height="20.5"/>
				</g>
			</g>
			<g class="st3">
				<defs>
					<path id="SVGID_49_" d="M126.2,13.8c-2.4-0.5-2.9-1.1-2.9-2.1c0-1,1-1.8,2.3-1.8c1.1,0,2.1,0.3,2.9,1.1l0.1,0.1l0.7-0.8
						l-0.1-0.1c-1.1-0.9-2.2-1.3-3.6-1.3c-2,0-3.4,1.2-3.4,2.9c0,1.6,1,2.5,3.6,3c2.3,0.5,2.8,1.1,2.8,2.1c0,1.1-1,1.9-2.4,1.9
						c-1.4,0-2.4-0.4-3.6-1.5l-0.1-0.1l-0.7,0.8l0.1,0.1c1.3,1.2,2.6,1.7,4.2,1.7c2.1,0,3.5-1.2,3.5-3
						C129.6,15.2,128.6,14.3,126.2,13.8"/>
				</defs>
				<clipPath id="SVGID_50_">
					<use xlink:href="#SVGID_49_"  style="overflow:visible;"/>
				</clipPath>
				<g class="st24">
					<defs>
						<rect id="SVGID_51_" y="0" width="140" height="30"/>
					</defs>
					<clipPath id="SVGID_52_">
						<use xlink:href="#SVGID_51_"  style="overflow:visible;"/>
					</clipPath>
					<rect x="116.8" y="3.9" class="st25" width="17.8" height="20.8"/>
				</g>
			</g>
			<g class="st3">
				<defs>
					<path id="SVGID_53_" d="M135.4,9.1h-3.8v10.5h1.1v-3.8h2.6c2.1,0,4.1-1,4.1-3.4C139.3,10.4,137.8,9.1,135.4,9.1 M135.2,14.8
						h-2.6v-4.7h2.7c1.8,0,2.9,0.9,2.9,2.3C138.3,13.8,137,14.8,135.2,14.8"/>
				</defs>
				<clipPath id="SVGID_54_">
					<use xlink:href="#SVGID_53_"  style="overflow:visible;"/>
				</clipPath>
				<g class="st26">
					<defs>
						<rect id="SVGID_55_" y="0" width="140" height="30"/>
					</defs>
					<clipPath id="SVGID_56_">
						<use xlink:href="#SVGID_55_"  style="overflow:visible;"/>
					</clipPath>
					<rect x="126.5" y="4.1" class="st27" width="17.8" height="20.5"/>
				</g>
			</g>
			<g class="st3">
				<defs>
					<path id="SVGID_57_" d="M108.2,22.7L108.2,22.7L108.2,22.7c-0.3,0-0.5,0.1-0.5,0.5c-0.1,1.6-0.3,3.2-0.5,4.7
						c0.1,0,0.2,0,0.3,0.1c0.2-1.5,0.8-3.9,1-4.6c0-0.1,0.1-0.2,0.1-0.3C108.5,22.8,108.4,22.7,108.2,22.7"/>
				</defs>
				<clipPath id="SVGID_58_">
					<use xlink:href="#SVGID_57_"  style="overflow:visible;"/>
				</clipPath>
				<g class="st28">
					<defs>
						<rect id="SVGID_59_" y="0" width="140" height="30"/>
					</defs>
					<clipPath id="SVGID_60_">
						<use xlink:href="#SVGID_59_"  style="overflow:visible;"/>
					</clipPath>
					<rect x="102.2" y="17.7" class="st29" width="11.4" height="15.2"/>
				</g>
			</g>
			<g class="st3">
				<defs>
					<path id="SVGID_61_" d="M92.8,25.8c-1,0-2,0-3,0c0-0.8,0-1.6,0.1-2.5c-0.3,0.1-0.6,0.1-0.9,0c0.1,1.8,0.1,3.6,0,5.3
						c0.3-0.1,0.6-0.1,0.9,0c-0.1-0.8-0.1-1.7-0.1-2.5c1,0,2,0,3,0c0,0.8,0,1.6-0.1,2.5c0.3-0.1,0.6-0.1,0.9,0
						c-0.1-1.8-0.1-3.5,0-5.3c-0.3,0.1-0.6,0.1-0.9,0C92.8,24.1,92.8,24.9,92.8,25.8z"/>
				</defs>
				<clipPath id="SVGID_62_">
					<use xlink:href="#SVGID_61_"  style="overflow:visible;"/>
				</clipPath>
				<g class="st30">
					<defs>
						<rect id="SVGID_63_" y="0" width="140" height="30"/>
					</defs>
					<clipPath id="SVGID_64_">
						<use xlink:href="#SVGID_63_"  style="overflow:visible;"/>
					</clipPath>
					<rect x="84" y="18.3" class="st31" width="14.6" height="15.3"/>
				</g>
			</g>
			<g class="st3">
				<defs>
					<path id="SVGID_65_" d="M86.4,23.3L86.4,23.3c-0.2,0.1-0.4,0.1-0.6,0c-0.7,1.8-1.5,3.8-2.3,5.3c0.3-0.1,0.7-0.1,0.9,0
						c0.2-0.5,0.4-1,0.6-1.6c0.7,0,1.5,0,2.2,0c0.2,0.5,0.4,1,0.6,1.6c0.3-0.1,0.6-0.1,0.9,0C88.2,27.6,87.1,25,86.4,23.3
						 M86.1,24.2c0.3,0.8,0.6,1.7,1,2.5c-0.6,0-1.3,0-1.9,0C85.5,25.7,85.9,24.8,86.1,24.2"/>
				</defs>
				<clipPath id="SVGID_66_">
					<use xlink:href="#SVGID_65_"  style="overflow:visible;"/>
				</clipPath>
				<g class="st32">
					<defs>
						<rect id="SVGID_67_" y="0" width="140" height="30"/>
					</defs>
					<clipPath id="SVGID_68_">
						<use xlink:href="#SVGID_67_"  style="overflow:visible;"/>
					</clipPath>
					<rect x="78.5" y="18.3" class="st33" width="15.2" height="15.3"/>
				</g>
			</g>
			<g class="st3">
				<defs>
					<path id="SVGID_69_" d="M84.8,22.6L84.8,22.6c-0.3,0.1-0.6,0.1-0.9,0c-0.2,0.5-1.2,2-1.8,3c-0.6-1-1.3-2.2-1.8-3
						c-0.4,0.1-0.5,0.1-0.9,0c0.7,1.1,1.9,3.2,2.3,3.9l-0.1,2.8c0,0,0.3-0.1,0.4-0.1c0.2,0,0.4,0.1,0.4,0.1l0-2.9
						C83.2,25.1,84.5,23,84.8,22.6"/>
				</defs>
				<clipPath id="SVGID_70_">
					<use xlink:href="#SVGID_69_"  style="overflow:visible;"/>
				</clipPath>
				<g class="st34">
					<defs>
						<rect id="SVGID_71_" y="0" width="140" height="30"/>
					</defs>
					<clipPath id="SVGID_72_">
						<use xlink:href="#SVGID_71_"  style="overflow:visible;"/>
					</clipPath>
					<rect x="74.4" y="17.6" class="st35" width="15.3" height="16.7"/>
				</g>
			</g>
			<g class="st3">
				<defs>
					<path id="SVGID_73_" d="M96.8,23.2c-1.9,0-2.9,1.2-2.9,2.7c0,1.7,1.1,2.7,2.9,2.7c1.9,0,2.9-1.2,2.9-2.7
						C99.6,24.3,98.5,23.2,96.8,23.2 M96.8,28.4c-1.3,0-2-0.9-2-2.4c0-1.7,0.9-2.4,1.9-2.4h0.1c1.1,0,2,0.8,2,2.4
						C98.7,27.6,97.9,28.4,96.8,28.4"/>
				</defs>
				<clipPath id="SVGID_74_">
					<use xlink:href="#SVGID_73_"  style="overflow:visible;"/>
				</clipPath>
				<g class="st36">
					<defs>
						<rect id="SVGID_75_" y="0" width="140" height="30"/>
					</defs>
					<clipPath id="SVGID_76_">
						<use xlink:href="#SVGID_75_"  style="overflow:visible;"/>
					</clipPath>
					<rect x="88.9" y="18.2" class="st37" width="15.7" height="15.5"/>
				</g>
			</g>
			<g class="st3">
				<defs>
					<path id="SVGID_77_" d="M103.3,22.9c-1.9,0-3.3,1.1-3.3,3c0,1.6,1,3.1,3.3,3.1c2,0,3.3-1.1,3.3-3
						C106.6,24.2,105.4,22.9,103.3,22.9 M100.8,25.9c0-2.1,1.3-2.7,2.4-2.7c1.4,0,2.4,0.9,2.4,2.7c0,2-1.3,2.7-2.4,2.7
						C102,28.7,100.8,27.9,100.8,25.9"/>
				</defs>
				<clipPath id="SVGID_78_">
					<use xlink:href="#SVGID_77_"  style="overflow:visible;"/>
				</clipPath>
				<g class="st38">
					<defs>
						<rect id="SVGID_79_" y="0" width="140" height="30"/>
					</defs>
					<clipPath id="SVGID_80_">
						<use xlink:href="#SVGID_79_"  style="overflow:visible;"/>
					</clipPath>
					<rect x="95" y="17.9" class="st39" width="16.7" height="16.1"/>
				</g>
			</g>
			<g class="st3">
				<defs>
					<path id="SVGID_81_" d="M107.2,28.5c-0.3,0-0.4,0.2-0.4,0.5c0,0.3,0.2,0.4,0.5,0.4c0.2,0,0.4-0.1,0.4-0.4
						C107.6,28.7,107.4,28.5,107.2,28.5"/>
				</defs>
				<clipPath id="SVGID_82_">
					<use xlink:href="#SVGID_81_"  style="overflow:visible;"/>
				</clipPath>
				<g class="st40">
					<defs>
						<rect id="SVGID_83_" y="0" width="140" height="30"/>
					</defs>
					<clipPath id="SVGID_84_">
						<use xlink:href="#SVGID_83_"  style="overflow:visible;"/>
					</clipPath>
					<rect x="101.7" y="23.5" class="st41" width="10.9" height="10.9"/>
				</g>
			</g>
			<g class="st3">
				<defs>
					<path id="SVGID_85_" d="M69.1,25.5h-0.3v-0.3h0.3V25c0-0.3,0.1-0.5,0.2-0.6c0.1-0.1,0.3-0.2,0.5-0.2c0.2,0,0.3,0,0.4,0.1v0.3
						c-0.1,0-0.2-0.1-0.3-0.1c-0.3,0-0.4,0.2-0.4,0.5v0.2h0.8v0.3h-0.8v2.1h-0.4V25.5z"/>
				</defs>
				<clipPath id="SVGID_86_">
					<use xlink:href="#SVGID_85_"  style="overflow:visible;"/>
				</clipPath>
				<g class="st42">
					<defs>
						<rect id="SVGID_87_" y="0" width="140" height="30"/>
					</defs>
					<clipPath id="SVGID_88_">
						<use xlink:href="#SVGID_87_"  style="overflow:visible;"/>
					</clipPath>
					<rect x="63.8" y="19.2" class="st43" width="11.4" height="13.4"/>
				</g>
			</g>
			<g class="st3">
				<defs>
					<path id="SVGID_89_" d="M70.8,25.2h0.4v0.6c0.2-0.4,0.5-0.7,1-0.7v0.4h0c-0.5,0-0.9,0.4-0.9,1.1v1h-0.4V25.2z"/>
				</defs>
				<clipPath id="SVGID_90_">
					<use xlink:href="#SVGID_89_"  style="overflow:visible;"/>
				</clipPath>
				<g class="st44">
					<defs>
						<rect id="SVGID_91_" y="0" width="140" height="30"/>
					</defs>
					<clipPath id="SVGID_92_">
						<use xlink:href="#SVGID_91_"  style="overflow:visible;"/>
					</clipPath>
					<rect x="65.8" y="20.1" class="st45" width="11.3" height="12.4"/>
				</g>
			</g>
			<g class="st3">
				<defs>
					<path id="SVGID_93_" d="M72.4,26.4L72.4,26.4c0-0.7,0.5-1.3,1.2-1.3c0.7,0,1.2,0.6,1.2,1.2v0c0,0.7-0.5,1.2-1.3,1.2
						C72.9,27.6,72.4,27.1,72.4,26.4 M74.5,26.4L74.5,26.4c0-0.5-0.4-0.9-0.9-0.9c-0.5,0-0.9,0.4-0.9,0.9v0c0,0.5,0.4,0.9,0.9,0.9
						C74.1,27.3,74.5,26.9,74.5,26.4"/>
				</defs>
				<clipPath id="SVGID_94_">
					<use xlink:href="#SVGID_93_"  style="overflow:visible;"/>
				</clipPath>
				<g class="st46">
					<defs>
						<rect id="SVGID_95_" y="0" width="140" height="30"/>
					</defs>
					<clipPath id="SVGID_96_">
						<use xlink:href="#SVGID_95_"  style="overflow:visible;"/>
					</clipPath>
					<rect x="67.4" y="20.1" class="st47" width="12.5" height="12.5"/>
				</g>
			</g>
			<g class="st3">
				<defs>
					<path id="SVGID_97_" d="M75.3,25.2h0.3v0.4c0.2-0.2,0.4-0.5,0.7-0.5c0.4,0,0.6,0.2,0.7,0.5c0.2-0.3,0.4-0.5,0.8-0.5
						c0.5,0,0.9,0.4,0.9,1v1.5h-0.3v-1.4c0-0.5-0.2-0.7-0.6-0.7c-0.4,0-0.6,0.3-0.6,0.7v1.4h-0.3v-1.4c0-0.4-0.2-0.7-0.6-0.7
						c-0.4,0-0.6,0.3-0.6,0.8v1.4h-0.3V25.2z"/>
				</defs>
				<clipPath id="SVGID_98_">
					<use xlink:href="#SVGID_97_"  style="overflow:visible;"/>
				</clipPath>
				<g class="st48">
					<defs>
						<rect id="SVGID_99_" y="0" width="140" height="30"/>
					</defs>
					<clipPath id="SVGID_100_">
						<use xlink:href="#SVGID_99_"  style="overflow:visible;"/>
					</clipPath>
					<rect x="70.3" y="20.1" class="st49" width="13.5" height="12.4"/>
				</g>
			</g>
		</g>
	</g>
</g>
</svg>
