<svg id="Layer_1" data-name="Layer 1" xmlns="http://www.w3.org/2000/svg" xmlns:xlink="http://www.w3.org/1999/xlink" viewBox="0 0 139.94 56.42"><defs><style>.cls-1{fill:#58595b;}.cls-2{fill:#fff;}.cls-3{fill:url(#linear-gradient);}</style><linearGradient id="linear-gradient" y1="28.21" x2="32.36" y2="28.21" gradientUnits="userSpaceOnUse"><stop offset="0" stop-color="#ec297b"/><stop offset="0.14" stop-color="#e7297c"/><stop offset="0.31" stop-color="#da2a7e"/><stop offset="0.48" stop-color="#c32c81"/><stop offset="0.66" stop-color="#a42e86"/><stop offset="0.84" stop-color="#7c308c"/><stop offset="1" stop-color="#513392"/></linearGradient></defs><title>cannaly (RGB)-01</title><g id="_1" data-name="1"><path class="cls-1" d="M59.63,39h2.42V30.57a8.47,8.47,0,0,0-14.46-6,8.47,8.47,0,0,0,0,12,8.16,8.16,0,0,0,6,2.48,8.26,8.26,0,0,0,6.05-2.54V39Zm-1.77-4.19a6,6,0,0,1-10.33-4.28A6.05,6.05,0,1,1,57.86,34.86Z"/><path class="cls-1" d="M115.29,39h2.42V30.57a8.47,8.47,0,1,0-14.46,6,8.16,8.16,0,0,0,6,2.48,8.26,8.26,0,0,0,6-2.54V39Zm-1.77-4.19a6.05,6.05,0,0,1-10.33-4.28A6.05,6.05,0,1,1,113.52,34.86Z"/><path class="cls-1" d="M77.89,24.23a7.87,7.87,0,0,0-13.42,5.56v9.07h2.42V29.78a5.45,5.45,0,0,1,10.89,0v9.07H80.2V29.78A7.58,7.58,0,0,0,77.89,24.23Z"/><path class="cls-1" d="M96.6,24.83a7.69,7.69,0,0,0-6.11-2.91,7.94,7.94,0,0,0-5.67,2.42,7.56,7.56,0,0,0-2.19,5.44v9.07H85v-9a5.45,5.45,0,0,1,6.39-5.46,4.68,4.68,0,0,1,2.2.91,5.4,5.4,0,0,1,2.3,4.46v9.07h2.42v-9A7.79,7.79,0,0,0,96.6,24.83Z"/><polygon class="cls-1" points="120.13 15.62 120.13 39.05 122.55 39.05 122.55 35.49 122.55 35.49 122.55 15.62 120.13 15.62"/><path class="cls-1" d="M137.32,22.11L132.1,34.66l-5.26-12.55h-2.6l0,0,6.56,15.69-2.88,6.9h2.63l9.41-22.61h-2.63Z"/><path class="cls-2" d="M23.15,28.19v0Z"/><path class="cls-3" d="M12,6.83l4.23-5.39a3.75,3.75,0,0,1,5.85-.07,60.23,60.23,0,0,0,2.08,16.75c-0.25.26-.49,0.52-0.72,0.79A36.27,36.27,0,0,0,12.82,7.34C12.57,7.16,12.3,7,12,6.83ZM0,34.26l6.95,8.85c3.36-4.24,5.72-7.24,13.32-11.3A62.87,62.87,0,0,1,0,34.26ZM28.51,12.17a20.07,20.07,0,0,1,.6,2.51,13.89,13.89,0,0,1,2.83-.86L25.35,5.45A28.83,28.83,0,0,1,28.51,12.17ZM24.21,38.3C24,38,23.72,37.79,23.49,37.52A36.27,36.27,0,0,1,12.82,49.08c-0.26.18-.53,0.34-0.79,0.52L16.26,55a3.76,3.76,0,0,0,5.86.05A60.24,60.24,0,0,1,24.21,38.3ZM20.26,24.61C12.67,20.55,10.31,17.55,7,13.32L0,22.16A62.87,62.87,0,0,1,20.26,24.61Zm8.25,19.64a29.73,29.73,0,0,1-3.6,7.43l7.45-9a14.09,14.09,0,0,1-3.25-.92A20.06,20.06,0,0,1,28.51,44.25Z"/><path class="cls-1" d="M43.77,37.71a11.88,11.88,0,0,1-7.61,2.69,12.11,12.11,0,0,1-12.1-12.1,12.11,12.11,0,0,1,12.1-12.1A11.8,11.8,0,0,1,43.86,19l-1.72,1.71a9.69,9.69,0,0,0-12.82.78,9.33,9.33,0,0,0-2.84,6.84A9.68,9.68,0,0,0,36.16,38a9.26,9.26,0,0,0,6-2.12m0,0,1.56,1.85a11.88,11.88,0,0,1-7.61,2.69"/></g></svg>