<?xml version="1.0" encoding="utf-8"?>
<!-- Generator: Adobe Illustrator 19.2.1, SVG Export Plug-In . SVG Version: 6.00 Build 0)  -->
<svg version="1.1" id="Layer_1" xmlns="http://www.w3.org/2000/svg" xmlns:xlink="http://www.w3.org/1999/xlink" x="0px" y="0px"
	 viewBox="0 0 148.9 44.6" style="enable-background:new 0 0 148.9 44.6;" xml:space="preserve">
<style type="text/css">
	.st0{clip-path:url(#SVGID_2_);}
	.st1{opacity:0.84;clip-path:url(#SVGID_4_);}
	.st2{clip-path:url(#SVGID_6_);}
	.st3{clip-path:url(#SVGID_8_);fill:#FF0076;}
	.st4{clip-path:url(#SVGID_10_);}
	.st5{clip-path:url(#SVGID_12_);fill:#FFFFFF;}
	.st6{clip-path:url(#SVGID_14_);}
	.st7{clip-path:url(#SVGID_16_);fill:#FF0076;}
</style>
<g>
	<defs>
		<path id="SVGID_1_" d="M105.2,30.3H104l-0.2-1.8c-0.4-0.4-0.8-0.7-1.4-0.9c-0.5-0.2-1.2-0.3-1.9-0.3c-1.1,0-1.8,0.2-2.4,0.7
			c-0.5,0.5-0.8,1-0.8,1.6c0,0.6,0.2,1.1,0.7,1.5c0.5,0.4,1.4,0.7,2.7,1c1.5,0.3,2.7,0.8,3.5,1.4c0.8,0.6,1.2,1.4,1.2,2.4
			c0,1.1-0.4,2-1.3,2.6c-0.9,0.7-2,1-3.5,1c-1,0-1.8-0.1-2.6-0.4S96.5,38.5,96,38v-2.6h1.2l0.2,1.9c0.4,0.4,0.9,0.7,1.5,0.8
			c0.6,0.2,1.2,0.3,1.8,0.3c1,0,1.9-0.2,2.5-0.7c0.6-0.5,0.9-1,0.9-1.7c0-0.6-0.3-1.1-0.8-1.6c-0.5-0.5-1.4-0.8-2.7-1.1
			c-1.5-0.3-2.7-0.8-3.4-1.3c-0.7-0.6-1.1-1.3-1.1-2.3c0-1,0.4-1.8,1.3-2.5c0.8-0.7,2-1,3.3-1c1,0,1.8,0.1,2.6,0.4
			c0.8,0.3,1.4,0.7,1.9,1.2L105.2,30.3z M89.9,26.3l0.2,2.2v0.2c0.4-0.8,0.9-1.4,1.5-1.9c0.6-0.5,1.4-0.7,2.3-0.7c0.2,0,0.4,0,0.5,0
			c0.2,0,0.3,0.1,0.4,0.1l-0.2,1.3l-1.1-0.1c-0.9,0-1.6,0.3-2.2,0.8c-0.6,0.5-1,1.2-1.2,2.1v7.8l2,0.2v1.1h-5.4v-1.1l2-0.2V27.5
			l-2-0.2v-1.1h2H89.9z M80,27.3c-1.1,0-2,0.4-2.7,1.2c-0.7,0.8-1.1,1.8-1.3,3.1l0,0.1h7.6v-0.4c0-1.1-0.3-2.1-1-2.8
			C82,27.7,81.1,27.3,80,27.3z M80.2,39.6c-1.6,0-3-0.6-4.1-1.8c-1.1-1.2-1.6-2.7-1.6-4.6v-0.7c0-1.9,0.5-3.4,1.6-4.6
			c1.1-1.2,2.4-1.8,3.9-1.8c1.6,0,2.9,0.5,3.8,1.5c0.9,1,1.4,2.4,1.4,4v1.2h-9.2v0.3c0,1.5,0.4,2.7,1.2,3.7c0.8,1,1.8,1.5,3.1,1.5
			c0.9,0,1.7-0.1,2.3-0.4c0.6-0.2,1.2-0.6,1.6-1.1l0.6,1c-0.5,0.5-1.1,0.9-1.9,1.2C82.1,39.4,81.2,39.6,80.2,39.6z M59.3,38.2l2-0.2
			V27.5l-2-0.2v-1.1h3.2l0.1,2.3c0.4-0.8,1-1.4,1.7-1.9c0.7-0.4,1.5-0.7,2.5-0.7c1.4,0,2.5,0.4,3.2,1.3c0.7,0.9,1.1,2.2,1.1,4v6.7
			l2,0.2v1.1h-5.4v-1.1l2-0.2v-6.7c0-1.5-0.3-2.5-0.8-3.2c-0.6-0.6-1.3-0.9-2.4-0.9c-1,0-1.8,0.3-2.5,0.8c-0.6,0.5-1.1,1.2-1.4,2.1
			v7.9l2,0.2v1.1h-5.4V38.2z M48.2,33.2c0,1.6,0.3,2.8,1,3.7c0.6,0.9,1.6,1.4,2.9,1.4c0.9,0,1.7-0.2,2.3-0.6c0.6-0.4,1.1-1,1.4-1.8
			v-6c-0.3-0.8-0.8-1.4-1.4-1.9c-0.6-0.5-1.4-0.7-2.4-0.7c-1.3,0-2.2,0.5-2.9,1.6c-0.6,1-1,2.4-1,4V33.2z M46.8,32.9
			c0-2.1,0.4-3.7,1.3-5c0.9-1.2,2.1-1.9,3.7-1.9c0.9,0,1.7,0.2,2.4,0.6c0.7,0.4,1.2,1,1.7,1.7l0.2-2.1h1.2v12.8c0,1.7-0.5,3-1.4,4
			s-2.2,1.5-3.8,1.5c-0.6,0-1.3-0.1-2-0.2c-0.7-0.2-1.3-0.4-1.9-0.6l0.4-1.2c0.5,0.2,1.1,0.4,1.6,0.6c0.6,0.1,1.2,0.2,1.8,0.2
			c1.2,0,2.2-0.4,2.8-1.1c0.6-0.7,0.9-1.7,0.9-3v-1.6c-0.4,0.7-1,1.2-1.7,1.5c-0.7,0.4-1.5,0.5-2.4,0.5c-1.6,0-2.8-0.6-3.7-1.7
			c-0.9-1.2-1.3-2.7-1.3-4.7V32.9z M43.3,22.6h-1.4v-2h1.4V22.6z M39.9,38.2l2-0.2V27.5l-2-0.2v-1.1h3.4v11.8l2,0.2v1.1h-5.4V38.2z
			 M38,30.3h-1.2l-0.2-1.8c-0.4-0.4-0.8-0.7-1.4-0.9c-0.5-0.2-1.2-0.3-1.9-0.3c-1.1,0-1.8,0.2-2.4,0.7c-0.5,0.5-0.8,1-0.8,1.6
			c0,0.6,0.2,1.1,0.7,1.5c0.5,0.4,1.4,0.7,2.7,1c1.5,0.3,2.7,0.8,3.5,1.4c0.8,0.6,1.2,1.4,1.2,2.4c0,1.1-0.4,2-1.3,2.6
			c-0.9,0.7-2,1-3.5,1c-1,0-1.8-0.1-2.6-0.4c-0.8-0.3-1.5-0.6-2.1-1.1v-2.6H30l0.2,1.9c0.4,0.4,0.9,0.7,1.5,0.8s1.2,0.3,1.8,0.3
			c1,0,1.9-0.2,2.5-0.7c0.6-0.5,0.9-1,0.9-1.7c0-0.6-0.3-1.1-0.8-1.6c-0.5-0.5-1.4-0.8-2.7-1.1c-1.5-0.3-2.7-0.8-3.4-1.3
			c-0.7-0.6-1.1-1.3-1.1-2.3c0-1,0.4-1.8,1.3-2.5c0.8-0.7,2-1,3.3-1c1,0,1.8,0.1,2.6,0.4c0.8,0.3,1.4,0.7,1.9,1.2L38,30.3z
			 M21.8,27.3c-1.1,0-2,0.4-2.7,1.2c-0.7,0.8-1.1,1.8-1.3,3.1l0,0.1h7.6v-0.4c0-1.1-0.3-2.1-1-2.8C23.8,27.7,22.9,27.3,21.8,27.3z
			 M22,39.6c-1.6,0-3-0.6-4.1-1.8c-1.1-1.2-1.6-2.7-1.6-4.6v-0.7c0-1.9,0.5-3.4,1.6-4.6c1.1-1.2,2.4-1.8,3.9-1.8
			c1.6,0,2.9,0.5,3.8,1.5c0.9,1,1.4,2.4,1.4,4v1.2h-9.2v0.3c0,1.5,0.4,2.7,1.2,3.7c0.8,1,1.8,1.5,3.1,1.5c0.9,0,1.7-0.1,2.3-0.4
			c0.6-0.2,1.2-0.6,1.6-1.1l0.6,1c-0.5,0.5-1.1,0.9-1.9,1.2C23.9,39.4,23,39.6,22,39.6z M3.4,23v15.1H7c1.7,0,3.2-0.6,4.3-1.8
			c1.1-1.2,1.7-2.7,1.7-4.6v-2.3c0-1.8-0.6-3.3-1.7-4.6S8.8,23,7,23H3.4z M7,21.8c2.1,0,3.9,0.7,5.3,2.1c1.4,1.4,2.1,3.3,2.1,5.5
			v2.2c0,2.2-0.7,4.1-2.1,5.5C11,38.6,9.2,39.3,7,39.3H0v-1.1l2-0.2V23l-2-0.2v-1.1h2H7z M84,18.9h-1.4l4.6-14.3h1.3L84,18.9z
			 M78.9,14l2-9.3H83l-3.2,13h-1.7l-2.5-9.3l-2.5,9.3h-1.7l-3.2-13h2.1l2,9l2.4-9h1.7L78.9,14z M62.7,15.6l-0.4,0.5
			c-1.1,1.3-2.7,1.9-4.9,1.9c-1.9,0-3.4-0.6-4.5-1.9c-1.1-1.3-1.6-3-1.7-5.3V7.3c0-2.5,0.5-4.3,1.5-5.5c1-1.2,2.5-1.8,4.4-1.8
			c1.7,0,3,0.5,3.9,1.4c0.9,0.9,1.5,2.3,1.6,4h-2.2c-0.1-1.1-0.4-1.9-0.9-2.6c-0.5-0.6-1.3-0.9-2.4-0.9c-1.3,0-2.2,0.4-2.8,1.2
			c-0.6,0.8-0.9,2.1-0.9,3.9v3.6c0,1.8,0.3,3.1,1,4.1c0.7,0.9,1.6,1.4,2.9,1.4c1.2,0,2.1-0.3,2.7-0.9l0.3-0.3v-4h-3.2V9h5.4V15.6z
			 M49.2,17.8H47l-7-13.5v13.5h-2.2V0.2h2.2l7,13.6V0.2h2.2V17.8z M35.1,17.8h-2.2V0.2h2.2V17.8z M30.2,17.8H28L21,4.3v13.5h-2.2
			V0.2H21l7,13.6V0.2h2.2V17.8z M16.2,17.8H14V0.2h2.2V17.8z M3.2,2.1v13.7H5c1.5,0,2.7-0.4,3.4-1.3c0.7-0.9,1.1-2.2,1.1-3.9V7.5
			c0-1.8-0.4-3.2-1.1-4.1C7.7,2.6,6.6,2.1,5.2,2.1H3.2z M1,17.8V0.2h4.2c2,0,3.6,0.6,4.8,1.9c1.1,1.3,1.7,3.1,1.7,5.4v2.9
			c0,2.3-0.6,4.1-1.7,5.4c-1.1,1.3-2.8,1.9-5,1.9H1z"/>
	</defs>
	<clipPath id="SVGID_2_">
		<use xlink:href="#SVGID_1_"  style="overflow:visible;"/>
	</clipPath>
	<g class="st0">
		<defs>
			<rect id="SVGID_3_" x="-10.9" y="-11.8" width="170" height="60"/>
		</defs>
		<clipPath id="SVGID_4_">
			<use xlink:href="#SVGID_3_"  style="overflow:visible;"/>
		</clipPath>
		<rect x="-5" y="-5" class="st1" width="115.4" height="54.6"/>
	</g>
</g>
<g>
	<defs>
		<ellipse id="SVGID_5_" cx="130.4" cy="18.4" rx="18.5" ry="18.2"/>
	</defs>
	<clipPath id="SVGID_6_">
		<use xlink:href="#SVGID_5_"  style="overflow:visible;"/>
	</clipPath>
	<g class="st2">
		<defs>
			<rect id="SVGID_7_" x="-10.9" y="-11.8" width="170" height="60"/>
		</defs>
		<clipPath id="SVGID_8_">
			<use xlink:href="#SVGID_7_"  style="overflow:visible;"/>
		</clipPath>
		<rect x="106.9" y="-4.8" class="st3" width="47" height="46.4"/>
	</g>
</g>
<g>
	<defs>
		<path id="SVGID_9_" d="M139,19.5h-4.1v5.4h-2.7V11.7h7.3v2.2h-4.6v3.4h4.1V19.5z M127.8,21.4c0-0.5-0.1-0.9-0.4-1.2
			c-0.3-0.3-0.8-0.6-1.5-0.9c-1.3-0.5-2.3-1.1-2.8-1.8c-0.6-0.7-0.9-1.5-0.9-2.4c0-1.1,0.4-2,1.2-2.7c0.8-0.7,1.8-1,3-1
			c0.8,0,1.5,0.2,2.2,0.5c0.6,0.3,1.1,0.8,1.5,1.4c0.3,0.6,0.5,1.3,0.5,2.1h-2.6c0-0.6-0.1-1.1-0.4-1.4c-0.3-0.3-0.6-0.5-1.1-0.5
			c-0.5,0-0.8,0.1-1.1,0.4c-0.3,0.3-0.4,0.6-0.4,1.1c0,0.4,0.1,0.7,0.4,1c0.3,0.3,0.8,0.6,1.5,0.9c1.3,0.5,2.2,1,2.8,1.7
			c0.6,0.7,0.9,1.5,0.9,2.6c0,1.1-0.4,2-1.1,2.7c-0.7,0.6-1.7,1-3,1c-0.8,0-1.6-0.2-2.3-0.5c-0.7-0.3-1.2-0.8-1.6-1.5
			c-0.4-0.6-0.6-1.4-0.6-2.3h2.7c0,0.8,0.1,1.3,0.4,1.7c0.3,0.3,0.8,0.5,1.4,0.5C127.3,22.8,127.8,22.4,127.8,21.4z"/>
	</defs>
	<clipPath id="SVGID_10_">
		<use xlink:href="#SVGID_9_"  style="overflow:visible;"/>
	</clipPath>
	<g class="st4">
		<defs>
			<rect id="SVGID_11_" x="-10.9" y="-11.8" width="170" height="60"/>
		</defs>
		<clipPath id="SVGID_12_">
			<use xlink:href="#SVGID_11_"  style="overflow:visible;"/>
		</clipPath>
		<rect x="116.8" y="6.5" class="st5" width="27.6" height="23.5"/>
	</g>
</g>
<g>
	<defs>
		<ellipse id="SVGID_13_" cx="42.5" cy="21" rx="2.9" ry="2.8"/>
	</defs>
	<clipPath id="SVGID_14_">
		<use xlink:href="#SVGID_13_"  style="overflow:visible;"/>
	</clipPath>
	<g class="st6">
		<defs>
			<rect id="SVGID_15_" x="-10.9" y="-11.8" width="170" height="60"/>
		</defs>
		<clipPath id="SVGID_16_">
			<use xlink:href="#SVGID_15_"  style="overflow:visible;"/>
		</clipPath>
		<rect x="34.7" y="13.2" class="st7" width="15.7" height="15.6"/>
	</g>
</g>
</svg>
