<svg xmlns="http://www.w3.org/2000/svg" xmlns:xlink="http://www.w3.org/1999/xlink" width="80" height="68" viewBox="0 0 80 68">
  <defs>
    <path id="footer-heart-a" d="M40,68 C40.7142857,68 41.4285714,67.734375 41.9642857,67.203125 L69.7767857,40.640625 C70.1785714,40.2421875 80,31.34375 80,20.71875 C80,7.74739583 72.0089286,0 58.6607143,0 C50.8482143,0 43.5267857,6.109375 40,9.5625 C36.4732143,6.109375 29.1517857,0 21.3392857,0 C7.99107143,0 0,7.74739583 0,20.71875 C0,31.34375 9.82142857,40.2421875 10.1785714,40.5520833 L38.0357143,67.203125 C38.5714286,67.734375 39.2857143,68 40,68 Z"/>
    <filter id="footer-heart-b" width="112.5%" height="114.7%" x="-6.2%" y="-7.4%" filterUnits="objectBoundingBox">
      <feGaussianBlur in="SourceAlpha" result="shadowBlurInner1" stdDeviation="2.5"/>
      <feOffset dy="-5" in="shadowBlurInner1" result="shadowOffsetInner1"/>
      <feComposite in="shadowOffsetInner1" in2="SourceAlpha" k2="-1" k3="1" operator="arithmetic" result="shadowInnerInner1"/>
      <feColorMatrix in="shadowInnerInner1" values="0 0 0 0 0.615686275   0 0 0 0 0.274509804   0 0 0 0 0.274509804  0 0 0 0.1 0"/>
    </filter>
    <ellipse id="footer-heart-c" cx="3" cy="4" rx="3" ry="4"/>
  </defs>
  <g fill="none" fill-rule="evenodd">
    <use fill="#F8614C" xlink:href="#footer-heart-a"/>
    <use fill="#000" filter="url(#footer-heart-b)" xlink:href="#footer-heart-a"/>
    <g transform="translate(18 25)">
      <g transform="translate(9)">
        <ellipse cx="23" cy="4" fill="#9D4646" rx="3" ry="4"/>
        <use fill="#9D4646" xlink:href="#footer-heart-c"/>
        <ellipse cx="3" cy="4" stroke="#9D4646" rx="2.5" ry="3.5"/>
        <g stroke="#9D4646" stroke-linecap="round" stroke-width="2" transform="translate(9 7)">
          <path d="M0,0 C0.229091258,2.66666667 1.56242459,4 4,4 C6.43757541,4 7.77090874,2.66666667 8,0"/>
        </g>
      </g>
      <circle cx="5" cy="12" r="5" fill="#DC523E"/>
      <circle cx="39" cy="12" r="5" fill="#DC523E"/>
    </g>
  </g>
</svg>
