<?xml version="1.0" encoding="utf-8"?>
<!-- Generator: Adobe Illustrator 18.1.1, SVG Export Plug-In . SVG Version: 6.00 Build 0)  -->
<svg version="1.1" id="Layer_1" xmlns="http://www.w3.org/2000/svg" xmlns:xlink="http://www.w3.org/1999/xlink" x="0px" y="0px"
	 viewBox="0 0 977 334.3" enable-background="new 0 0 977 334.3" xml:space="preserve">
<g>
	<defs>
		<path id="SVGID_1_" d="M542.7,17.1c19-22.8,49.7-22.8,68.7,0l195.2,234.7c37.9,45.6,20.6,82.6-38.7,82.6H386.1
			c-59.3,0-76.7-37-38.7-82.6L542.7,17.1z"/>
	</defs>
	<clipPath id="SVGID_2_">
		<use xlink:href="#SVGID_1_"  overflow="visible"/>
	</clipPath>
	<g clip-path="url(#SVGID_2_)" enable-background="new    ">
		<g>
			<defs>
				<rect id="SVGID_3_" x="321.5" y="-0.8" width="511" height="336"/>
			</defs>
			<clipPath id="SVGID_4_">
				<use xlink:href="#SVGID_3_"  overflow="visible"/>
			</clipPath>
			<g clip-path="url(#SVGID_4_)">
				<defs>
					<rect id="SVGID_5_" x="321.5" y="-0.8" width="511" height="336"/>
				</defs>
				<clipPath id="SVGID_6_">
					<use xlink:href="#SVGID_5_"  overflow="visible"/>
				</clipPath>
				<rect x="322.3" y="-5" clip-path="url(#SVGID_6_)" fill="#FF7878" width="509.4" height="344.3"/>
			</g>
			<g clip-path="url(#SVGID_4_)">
				<defs>
					<rect id="SVGID_7_" x="278.8" y="-18.8" width="596.6" height="88.1"/>
				</defs>
				<clipPath id="SVGID_8_">
					<use xlink:href="#SVGID_7_"  overflow="visible"/>
				</clipPath>
				<g clip-path="url(#SVGID_8_)">
					<defs>
						<rect id="SVGID_9_" x="321.5" y="-0.8" width="511" height="336"/>
					</defs>
					<clipPath id="SVGID_10_">
						<use xlink:href="#SVGID_9_"  overflow="visible"/>
					</clipPath>
					<rect x="273.8" y="-23.8" clip-path="url(#SVGID_10_)" fill="#39A4EB" width="606.6" height="98.1"/>
				</g>
			</g>
			<g clip-path="url(#SVGID_4_)">
				<defs>
					<rect id="SVGID_11_" x="278.8" y="68.8" width="596.6" height="88.1"/>
				</defs>
				<clipPath id="SVGID_12_">
					<use xlink:href="#SVGID_11_"  overflow="visible"/>
				</clipPath>
				<g clip-path="url(#SVGID_12_)">
					<defs>
						<rect id="SVGID_13_" x="321.5" y="-0.8" width="511" height="336"/>
					</defs>
					<clipPath id="SVGID_14_">
						<use xlink:href="#SVGID_13_"  overflow="visible"/>
					</clipPath>
					<rect x="273.8" y="63.8" clip-path="url(#SVGID_14_)" fill="#2BDB7A" width="606.6" height="98.1"/>
				</g>
			</g>
			<g clip-path="url(#SVGID_4_)">
				<defs>
					<rect id="SVGID_15_" x="278.8" y="156.4" width="596.6" height="88.1"/>
				</defs>
				<clipPath id="SVGID_16_">
					<use xlink:href="#SVGID_15_"  overflow="visible"/>
				</clipPath>
				<g clip-path="url(#SVGID_16_)">
					<defs>
						<rect id="SVGID_17_" x="321.5" y="-0.8" width="511" height="336"/>
					</defs>
					<clipPath id="SVGID_18_">
						<use xlink:href="#SVGID_17_"  overflow="visible"/>
					</clipPath>
					<rect x="273.8" y="151.4" clip-path="url(#SVGID_18_)" fill="#FFD20D" width="606.6" height="98.1"/>
				</g>
			</g>
			<g clip-path="url(#SVGID_4_)">
				<defs>
					<rect id="SVGID_19_" x="278.8" y="244" width="596.6" height="92.3"/>
				</defs>
				<clipPath id="SVGID_20_">
					<use xlink:href="#SVGID_19_"  overflow="visible"/>
				</clipPath>
				<g clip-path="url(#SVGID_20_)">
					<defs>
						<rect id="SVGID_21_" x="321.5" y="-0.8" width="511" height="336"/>
					</defs>
					<clipPath id="SVGID_22_">
						<use xlink:href="#SVGID_21_"  overflow="visible"/>
					</clipPath>
					<rect x="273.8" y="239" clip-path="url(#SVGID_22_)" fill="#F65842" width="606.6" height="102.3"/>
				</g>
			</g>
		</g>
	</g>
</g>
<g>
	<defs>
		<path id="SVGID_23_" d="M495.3,166.4c-4.4,0-7.9,3.5-7.9,7.9v45.3c0,4.4,3.5,7.9,7.9,7.9c4.4,0,7.9-3.5,7.9-7.9v-45.3
			C503.2,170,499.7,166.4,495.3,166.4z"/>
	</defs>
	<clipPath id="SVGID_24_">
		<use xlink:href="#SVGID_23_"  overflow="visible"/>
	</clipPath>
	<rect x="482.4" y="161.4" clip-path="url(#SVGID_24_)" fill="#4A4A4A" width="25.8" height="71.1"/>
</g>
<g>
	<defs>
		<path id="SVGID_25_" d="M495.3,165.8c-4.4,0-7.9,3.5-7.9,7.9v10.2c0,4.4,3.5,7.9,7.9,7.9c4.4,0,7.9-3.5,7.9-7.9v-10.2
			C503.2,169.3,499.7,165.8,495.3,165.8z"/>
	</defs>
	<clipPath id="SVGID_26_">
		<use xlink:href="#SVGID_25_"  overflow="visible"/>
	</clipPath>
	<rect x="482.4" y="160.8" clip-path="url(#SVGID_26_)" fill="#FFFFFF" width="25.8" height="36"/>
</g>
<g>
	<defs>
		<path id="SVGID_27_" d="M658.6,166.4c-4.4,0-7.9,3.5-7.9,7.9v45.3c0,4.4,3.5,7.9,7.9,7.9c4.4,0,7.9-3.5,7.9-7.9v-45.3
			C666.5,170,662.9,166.4,658.6,166.4z"/>
	</defs>
	<clipPath id="SVGID_28_">
		<use xlink:href="#SVGID_27_"  overflow="visible"/>
	</clipPath>
	<rect x="645.7" y="161.4" clip-path="url(#SVGID_28_)" fill="#4A4A4A" width="25.8" height="71.1"/>
</g>
<g>
	<defs>
		<path id="SVGID_29_" d="M658.6,165.8c-4.4,0-7.9,3.5-7.9,7.9v10.2c0,4.4,3.5,7.9,7.9,7.9c4.4,0,7.9-3.5,7.9-7.9v-10.2
			C666.5,169.3,662.9,165.8,658.6,165.8z"/>
	</defs>
	<clipPath id="SVGID_30_">
		<use xlink:href="#SVGID_29_"  overflow="visible"/>
	</clipPath>
	<rect x="645.7" y="160.8" clip-path="url(#SVGID_30_)" fill="#FFFFFF" width="25.8" height="36"/>
</g>
<g>
	<defs>
		<path id="SVGID_31_" d="M543.9,196.6c0.9,18,5.9,38.9,33,38.9c27.1,0,32.5-20.7,33.1-38.9C610,196.2,543.8,196,543.9,196.6z"/>
	</defs>
	<clipPath id="SVGID_32_">
		<use xlink:href="#SVGID_31_"  overflow="visible"/>
	</clipPath>
	<g clip-path="url(#SVGID_32_)" enable-background="new    ">
		<g>
			<defs>
				<rect id="SVGID_33_" x="543.5" y="196" width="67" height="40"/>
			</defs>
			<clipPath id="SVGID_34_">
				<use xlink:href="#SVGID_33_"  overflow="visible"/>
			</clipPath>
			<g clip-path="url(#SVGID_34_)">
				<defs>
					<rect id="SVGID_35_" x="543.5" y="196" width="67" height="40"/>
				</defs>
				<clipPath id="SVGID_36_">
					<use xlink:href="#SVGID_35_"  overflow="visible"/>
				</clipPath>
				<rect x="538.9" y="191.2" clip-path="url(#SVGID_36_)" fill="#4A4A4A" width="76.1" height="49.2"/>
			</g>
			<g clip-path="url(#SVGID_34_)">
				<defs>
					<path id="SVGID_37_" d="M576.9,286.5c16.4,0,29.8-43.4,29.8-59.9c0-16.5-20.8-20.2-29.8-20.2s-29.8,3.7-29.8,20.2
						C547.1,243.1,560.5,286.5,576.9,286.5z"/>
				</defs>
				<clipPath id="SVGID_38_">
					<use xlink:href="#SVGID_37_"  overflow="visible"/>
				</clipPath>
				<g clip-path="url(#SVGID_38_)">
					<defs>
						<rect id="SVGID_39_" x="543.5" y="196" width="67" height="40"/>
					</defs>
					<clipPath id="SVGID_40_">
						<use xlink:href="#SVGID_39_"  overflow="visible"/>
					</clipPath>
					<rect x="542.1" y="201.3" clip-path="url(#SVGID_40_)" fill="#F65842" width="69.5" height="90.1"/>
				</g>
			</g>
		</g>
	</g>
</g>
<g>
	<defs>
		<path id="SVGID_41_" d="M361.9,87.6h-20c-13.8,0-25,11.2-25,25c0,13.8,11.2,25,25,25h125c13.8,0,25-11.2,25-25h37.5
			c18,0,32.5-14.6,32.5-32.5c0-18-14.5-32.5-32.5-32.5h-135c-18,0-32.5,14.6-32.5,32.5V87.6z"/>
	</defs>
	<clipPath id="SVGID_42_">
		<use xlink:href="#SVGID_41_"  overflow="visible"/>
	</clipPath>
	<rect x="311.9" y="42.6" clip-path="url(#SVGID_42_)" fill="#F0FCFF" width="255" height="100"/>
</g>
<g>
	<defs>
		<path id="SVGID_43_" d="M774.6,191.4c8.6-10.2,22.4-10.2,31,0l88.5,105.9c17.1,20.5,9.4,37.1-17.4,37.1H703.4
			c-26.7,0-34.5-16.6-17.4-37.1L774.6,191.4z"/>
	</defs>
	<clipPath id="SVGID_44_">
		<use xlink:href="#SVGID_43_"  overflow="visible"/>
	</clipPath>
	<g clip-path="url(#SVGID_44_)" enable-background="new    ">
		<g>
			<defs>
				<rect id="SVGID_45_" x="671.5" y="181.1" width="237" height="154"/>
			</defs>
			<clipPath id="SVGID_46_">
				<use xlink:href="#SVGID_45_"  overflow="visible"/>
			</clipPath>
			<g clip-path="url(#SVGID_46_)">
				<defs>
					<rect id="SVGID_47_" x="671.5" y="181.1" width="237" height="154"/>
				</defs>
				<clipPath id="SVGID_48_">
					<use xlink:href="#SVGID_47_"  overflow="visible"/>
				</clipPath>
				<rect x="672" y="178.7" clip-path="url(#SVGID_48_)" fill="#FF7878" width="236.2" height="160.7"/>
			</g>
			<g clip-path="url(#SVGID_46_)">
				<defs>
					<rect id="SVGID_49_" x="655.2" y="175.5" width="268.5" height="39.6"/>
				</defs>
				<clipPath id="SVGID_50_">
					<use xlink:href="#SVGID_49_"  overflow="visible"/>
				</clipPath>
				<g clip-path="url(#SVGID_50_)">
					<defs>
						<rect id="SVGID_51_" x="671.5" y="181.1" width="237" height="154"/>
					</defs>
					<clipPath id="SVGID_52_">
						<use xlink:href="#SVGID_51_"  overflow="visible"/>
					</clipPath>
					<rect x="650.2" y="170.5" clip-path="url(#SVGID_52_)" fill="#39A4EB" width="278.5" height="49.6"/>
				</g>
			</g>
			<g clip-path="url(#SVGID_46_)">
				<defs>
					<rect id="SVGID_53_" x="655.2" y="214.9" width="268.5" height="39.6"/>
				</defs>
				<clipPath id="SVGID_54_">
					<use xlink:href="#SVGID_53_"  overflow="visible"/>
				</clipPath>
				<g clip-path="url(#SVGID_54_)">
					<defs>
						<rect id="SVGID_55_" x="671.5" y="181.1" width="237" height="154"/>
					</defs>
					<clipPath id="SVGID_56_">
						<use xlink:href="#SVGID_55_"  overflow="visible"/>
					</clipPath>
					<rect x="650.2" y="209.9" clip-path="url(#SVGID_56_)" fill="#2BDB7A" width="278.5" height="49.6"/>
				</g>
			</g>
			<g clip-path="url(#SVGID_46_)">
				<defs>
					<rect id="SVGID_57_" x="655.2" y="254.4" width="268.5" height="39.6"/>
				</defs>
				<clipPath id="SVGID_58_">
					<use xlink:href="#SVGID_57_"  overflow="visible"/>
				</clipPath>
				<g clip-path="url(#SVGID_58_)">
					<defs>
						<rect id="SVGID_59_" x="671.5" y="181.1" width="237" height="154"/>
					</defs>
					<clipPath id="SVGID_60_">
						<use xlink:href="#SVGID_59_"  overflow="visible"/>
					</clipPath>
					<rect x="650.2" y="249.4" clip-path="url(#SVGID_60_)" fill="#FFD20D" width="278.5" height="49.6"/>
				</g>
			</g>
			<g clip-path="url(#SVGID_46_)">
				<defs>
					<rect id="SVGID_61_" x="655.2" y="293.8" width="268.5" height="40.6"/>
				</defs>
				<clipPath id="SVGID_62_">
					<use xlink:href="#SVGID_61_"  overflow="visible"/>
				</clipPath>
				<g clip-path="url(#SVGID_62_)">
					<defs>
						<rect id="SVGID_63_" x="671.5" y="181.1" width="237" height="154"/>
					</defs>
					<clipPath id="SVGID_64_">
						<use xlink:href="#SVGID_63_"  overflow="visible"/>
					</clipPath>
					<rect x="650.2" y="288.8" clip-path="url(#SVGID_64_)" fill="#F65842" width="278.5" height="50.6"/>
				</g>
			</g>
		</g>
	</g>
</g>
<g>
	<defs>
		<path id="SVGID_65_" d="M752.7,258.9c-2,0-3.6,1.6-3.6,3.6v20.4c0,2,1.6,3.6,3.6,3.6c2,0,3.6-1.6,3.6-3.6v-20.4
			C756.2,260.5,754.6,258.9,752.7,258.9z"/>
	</defs>
	<clipPath id="SVGID_66_">
		<use xlink:href="#SVGID_65_"  overflow="visible"/>
	</clipPath>
	<rect x="744.1" y="253.9" clip-path="url(#SVGID_66_)" fill="#4A4A4A" width="17.1" height="37.5"/>
</g>
<g>
	<defs>
		<path id="SVGID_67_" d="M752.7,258.6c-2,0-3.6,1.6-3.6,3.5v4.6c0,2,1.6,3.5,3.6,3.5c2,0,3.6-1.6,3.6-3.5v-4.6
			C756.2,260.2,754.6,258.6,752.7,258.6z"/>
	</defs>
	<clipPath id="SVGID_68_">
		<use xlink:href="#SVGID_67_"  overflow="visible"/>
	</clipPath>
	<rect x="744.1" y="253.6" clip-path="url(#SVGID_68_)" fill="#FFFFFF" width="17.1" height="21.7"/>
</g>
<g>
	<defs>
		<path id="SVGID_69_" d="M826.1,258.9c-2,0-3.6,1.6-3.6,3.6v20.4c0,2,1.6,3.6,3.6,3.6c2,0,3.6-1.6,3.6-3.6v-20.4
			C829.7,260.5,828.1,258.9,826.1,258.9z"/>
	</defs>
	<clipPath id="SVGID_70_">
		<use xlink:href="#SVGID_69_"  overflow="visible"/>
	</clipPath>
	<rect x="817.6" y="253.9" clip-path="url(#SVGID_70_)" fill="#4A4A4A" width="17.1" height="37.5"/>
</g>
<g>
	<defs>
		<path id="SVGID_71_" d="M826.1,258.6c-2,0-3.6,1.6-3.6,3.5v4.6c0,2,1.6,3.5,3.6,3.5c2,0,3.6-1.6,3.6-3.5v-4.6
			C829.7,260.2,828.1,258.6,826.1,258.6z"/>
	</defs>
	<clipPath id="SVGID_72_">
		<use xlink:href="#SVGID_71_"  overflow="visible"/>
	</clipPath>
	<rect x="817.6" y="253.6" clip-path="url(#SVGID_72_)" fill="#FFFFFF" width="17.1" height="21.7"/>
</g>
<g>
	<defs>
		<path id="SVGID_73_" d="M774.5,272.5c0.4,8.1,2.7,17.5,14.9,17.5c12.2,0,14.6-9.3,14.9-17.5C804.3,272.3,774.5,272.2,774.5,272.5z
			"/>
	</defs>
	<clipPath id="SVGID_74_">
		<use xlink:href="#SVGID_73_"  overflow="visible"/>
	</clipPath>
	<g clip-path="url(#SVGID_74_)" enable-background="new    ">
		<g>
			<defs>
				<rect id="SVGID_75_" x="774.5" y="272" width="30" height="18"/>
			</defs>
			<clipPath id="SVGID_76_">
				<use xlink:href="#SVGID_75_"  overflow="visible"/>
			</clipPath>
			<g clip-path="url(#SVGID_76_)">
				<defs>
					<rect id="SVGID_77_" x="774.5" y="272" width="30" height="18"/>
				</defs>
				<clipPath id="SVGID_78_">
					<use xlink:href="#SVGID_77_"  overflow="visible"/>
				</clipPath>
				<rect x="769.5" y="267.3" clip-path="url(#SVGID_78_)" fill="#4A4A4A" width="39.7" height="27.7"/>
			</g>
			<g clip-path="url(#SVGID_76_)">
				<defs>
					<path id="SVGID_79_" d="M789.4,312.9c7.4,0,13.4-19.5,13.4-27c0-7.4-9.4-9.1-13.4-9.1s-13.4,1.7-13.4,9.1
						C776,293.4,782,312.9,789.4,312.9z"/>
				</defs>
				<clipPath id="SVGID_80_">
					<use xlink:href="#SVGID_79_"  overflow="visible"/>
				</clipPath>
				<g clip-path="url(#SVGID_80_)">
					<defs>
						<rect id="SVGID_81_" x="774.5" y="272" width="30" height="18"/>
					</defs>
					<clipPath id="SVGID_82_">
						<use xlink:href="#SVGID_81_"  overflow="visible"/>
					</clipPath>
					<rect x="771" y="271.8" clip-path="url(#SVGID_82_)" fill="#F65842" width="36.8" height="46.1"/>
				</g>
			</g>
		</g>
	</g>
</g>
<g>
	<defs>
		<path id="SVGID_83_" d="M340.8,127.7c12.3-14.8,32.4-14.8,44.7,0l127.6,153c24.7,29.6,13.5,53.6-25.1,53.6H238.3
			c-38.6,0-49.8-24-25.1-53.6L340.8,127.7z"/>
	</defs>
	<clipPath id="SVGID_84_">
		<use xlink:href="#SVGID_83_"  overflow="visible"/>
	</clipPath>
	<g clip-path="url(#SVGID_84_)" enable-background="new    ">
		<g>
			<defs>
				<rect id="SVGID_85_" x="194.5" y="112" width="337" height="223"/>
			</defs>
			<clipPath id="SVGID_86_">
				<use xlink:href="#SVGID_85_"  overflow="visible"/>
			</clipPath>
			<g clip-path="url(#SVGID_86_)">
				<defs>
					<rect id="SVGID_87_" x="194.5" y="112" width="337" height="223"/>
				</defs>
				<clipPath id="SVGID_88_">
					<use xlink:href="#SVGID_87_"  overflow="visible"/>
				</clipPath>
				<rect x="195.1" y="111.6" clip-path="url(#SVGID_88_)" fill="#FF7878" width="336.2" height="227.7"/>
			</g>
			<g clip-path="url(#SVGID_86_)">
				<defs>
					<rect id="SVGID_89_" x="168.6" y="104.8" width="387.8" height="57.3"/>
				</defs>
				<clipPath id="SVGID_90_">
					<use xlink:href="#SVGID_89_"  overflow="visible"/>
				</clipPath>
				<g clip-path="url(#SVGID_90_)">
					<defs>
						<rect id="SVGID_91_" x="194.5" y="112" width="337" height="223"/>
					</defs>
					<clipPath id="SVGID_92_">
						<use xlink:href="#SVGID_91_"  overflow="visible"/>
					</clipPath>
					<rect x="163.6" y="99.8" clip-path="url(#SVGID_92_)" fill="#39A4EB" width="397.8" height="67.3"/>
				</g>
			</g>
			<g clip-path="url(#SVGID_86_)">
				<defs>
					<rect id="SVGID_93_" x="168.6" y="161.8" width="387.8" height="57.3"/>
				</defs>
				<clipPath id="SVGID_94_">
					<use xlink:href="#SVGID_93_"  overflow="visible"/>
				</clipPath>
				<g clip-path="url(#SVGID_94_)">
					<defs>
						<rect id="SVGID_95_" x="194.5" y="112" width="337" height="223"/>
					</defs>
					<clipPath id="SVGID_96_">
						<use xlink:href="#SVGID_95_"  overflow="visible"/>
					</clipPath>
					<rect x="163.6" y="156.8" clip-path="url(#SVGID_96_)" fill="#2BDB7A" width="397.8" height="67.3"/>
				</g>
			</g>
			<g clip-path="url(#SVGID_86_)">
				<defs>
					<rect id="SVGID_97_" x="168.6" y="218.7" width="387.8" height="57.3"/>
				</defs>
				<clipPath id="SVGID_98_">
					<use xlink:href="#SVGID_97_"  overflow="visible"/>
				</clipPath>
				<g clip-path="url(#SVGID_98_)">
					<defs>
						<rect id="SVGID_99_" x="194.5" y="112" width="337" height="223"/>
					</defs>
					<clipPath id="SVGID_100_">
						<use xlink:href="#SVGID_99_"  overflow="visible"/>
					</clipPath>
					<rect x="163.6" y="213.7" clip-path="url(#SVGID_100_)" fill="#FFD20D" width="397.8" height="67.3"/>
				</g>
			</g>
			<g clip-path="url(#SVGID_86_)">
				<defs>
					<rect id="SVGID_101_" x="168.6" y="275.6" width="387.8" height="62.5"/>
				</defs>
				<clipPath id="SVGID_102_">
					<use xlink:href="#SVGID_101_"  overflow="visible"/>
				</clipPath>
				<g clip-path="url(#SVGID_102_)">
					<defs>
						<rect id="SVGID_103_" x="194.5" y="112" width="337" height="223"/>
					</defs>
					<clipPath id="SVGID_104_">
						<use xlink:href="#SVGID_103_"  overflow="visible"/>
					</clipPath>
					<rect x="163.6" y="270.6" clip-path="url(#SVGID_104_)" fill="#F65842" width="397.8" height="72.5"/>
				</g>
			</g>
		</g>
	</g>
</g>
<g>
	<defs>
		<path id="SVGID_105_" d="M309.4,225.4c-2.8,0-5.1,2.3-5.1,5.1v29.4c0,2.8,2.3,5.1,5.1,5.1c2.8,0,5.1-2.3,5.1-5.1v-29.4
			C314.5,227.7,312.2,225.4,309.4,225.4z"/>
	</defs>
	<clipPath id="SVGID_106_">
		<use xlink:href="#SVGID_105_"  overflow="visible"/>
	</clipPath>
	<rect x="299.2" y="220.4" clip-path="url(#SVGID_106_)" fill="#4A4A4A" width="20.3" height="49.7"/>
</g>
<g>
	<defs>
		<path id="SVGID_107_" d="M309.4,224.9c-2.8,0-5.1,2.3-5.1,5.1v6.6c0,2.8,2.3,5.1,5.1,5.1c2.8,0,5.1-2.3,5.1-5.1v-6.6
			C314.5,227.2,312.2,224.9,309.4,224.9z"/>
	</defs>
	<clipPath id="SVGID_108_">
		<use xlink:href="#SVGID_107_"  overflow="visible"/>
	</clipPath>
	<rect x="299.2" y="219.9" clip-path="url(#SVGID_108_)" fill="#FFFFFF" width="20.3" height="26.9"/>
</g>
<g>
	<defs>
		<path id="SVGID_109_" d="M415.5,225.4c-2.8,0-5.1,2.3-5.1,5.1v29.4c0,2.8,2.3,5.1,5.1,5.1c2.8,0,5.1-2.3,5.1-5.1v-29.4
			C420.6,227.7,418.3,225.4,415.5,225.4z"/>
	</defs>
	<clipPath id="SVGID_110_">
		<use xlink:href="#SVGID_109_"  overflow="visible"/>
	</clipPath>
	<rect x="405.4" y="220.4" clip-path="url(#SVGID_110_)" fill="#4A4A4A" width="20.3" height="49.7"/>
</g>
<g>
	<defs>
		<path id="SVGID_111_" d="M415.5,224.9c-2.8,0-5.1,2.3-5.1,5.1v6.6c0,2.8,2.3,5.1,5.1,5.1c2.8,0,5.1-2.3,5.1-5.1v-6.6
			C420.6,227.2,418.3,224.9,415.5,224.9z"/>
	</defs>
	<clipPath id="SVGID_112_">
		<use xlink:href="#SVGID_111_"  overflow="visible"/>
	</clipPath>
	<rect x="405.4" y="219.9" clip-path="url(#SVGID_112_)" fill="#FFFFFF" width="20.3" height="26.9"/>
</g>
<g>
	<defs>
		<path id="SVGID_113_" d="M340.9,245c0.6,11.7,3.8,25.3,21.5,25.3c17.6,0,21.1-13.4,21.5-25.3C383.9,244.7,340.9,244.6,340.9,245z"
			/>
	</defs>
	<clipPath id="SVGID_114_">
		<use xlink:href="#SVGID_113_"  overflow="visible"/>
	</clipPath>
	<g clip-path="url(#SVGID_114_)" enable-background="new    ">
		<g>
			<defs>
				<rect id="SVGID_115_" x="340.5" y="244" width="44" height="27"/>
			</defs>
			<clipPath id="SVGID_116_">
				<use xlink:href="#SVGID_115_"  overflow="visible"/>
			</clipPath>
			<g clip-path="url(#SVGID_116_)">
				<defs>
					<rect id="SVGID_117_" x="340.5" y="244" width="44" height="27"/>
				</defs>
				<clipPath id="SVGID_118_">
					<use xlink:href="#SVGID_117_"  overflow="visible"/>
				</clipPath>
				<rect x="335.9" y="239.7" clip-path="url(#SVGID_118_)" fill="#4A4A4A" width="53" height="35.5"/>
			</g>
			<g clip-path="url(#SVGID_116_)">
				<defs>
					<path id="SVGID_119_" d="M362.4,303.4c10.7,0,19.3-28.2,19.3-38.9c0-10.8-13.5-13.1-19.3-13.1s-19.3,2.4-19.3,13.1
						C343,275.2,351.7,303.4,362.4,303.4z"/>
				</defs>
				<clipPath id="SVGID_120_">
					<use xlink:href="#SVGID_119_"  overflow="visible"/>
				</clipPath>
				<g clip-path="url(#SVGID_120_)">
					<defs>
						<rect id="SVGID_121_" x="340.5" y="244" width="44" height="27"/>
					</defs>
					<clipPath id="SVGID_122_">
						<use xlink:href="#SVGID_121_"  overflow="visible"/>
					</clipPath>
					<rect x="338" y="246.3" clip-path="url(#SVGID_122_)" fill="#F65842" width="48.7" height="62.1"/>
				</g>
			</g>
		</g>
	</g>
</g>
<g>
	<defs>
		<path id="SVGID_123_" d="M182.8,175.7c9.5-11.4,24.9-11.4,34.3,0l97.6,117.3c19,22.8,10.3,41.3-19.4,41.3H104.5
			c-29.7,0-38.3-18.5-19.4-41.3L182.8,175.7z"/>
	</defs>
	<clipPath id="SVGID_124_">
		<use xlink:href="#SVGID_123_"  overflow="visible"/>
	</clipPath>
	<g clip-path="url(#SVGID_124_)" enable-background="new    ">
		<g>
			<defs>
				<rect id="SVGID_125_" x="69.5" y="164" width="261" height="171"/>
			</defs>
			<clipPath id="SVGID_126_">
				<use xlink:href="#SVGID_125_"  overflow="visible"/>
			</clipPath>
			<g clip-path="url(#SVGID_126_)">
				<defs>
					<rect id="SVGID_127_" x="69.5" y="164" width="261" height="171"/>
				</defs>
				<clipPath id="SVGID_128_">
					<use xlink:href="#SVGID_127_"  overflow="visible"/>
				</clipPath>
				<rect x="70.1" y="162.2" clip-path="url(#SVGID_128_)" fill="#FF7878" width="259.7" height="177.2"/>
			</g>
			<g clip-path="url(#SVGID_126_)">
				<defs>
					<rect id="SVGID_129_" x="50.8" y="158.1" width="298.3" height="44"/>
				</defs>
				<clipPath id="SVGID_130_">
					<use xlink:href="#SVGID_129_"  overflow="visible"/>
				</clipPath>
				<g clip-path="url(#SVGID_130_)">
					<defs>
						<rect id="SVGID_131_" x="69.5" y="164" width="261" height="171"/>
					</defs>
					<clipPath id="SVGID_132_">
						<use xlink:href="#SVGID_131_"  overflow="visible"/>
					</clipPath>
					<rect x="45.8" y="153.1" clip-path="url(#SVGID_132_)" fill="#39A4EB" width="308.3" height="54"/>
				</g>
			</g>
			<g clip-path="url(#SVGID_126_)">
				<defs>
					<rect id="SVGID_133_" x="50.8" y="201.9" width="298.3" height="44"/>
				</defs>
				<clipPath id="SVGID_134_">
					<use xlink:href="#SVGID_133_"  overflow="visible"/>
				</clipPath>
				<g clip-path="url(#SVGID_134_)">
					<defs>
						<rect id="SVGID_135_" x="69.5" y="164" width="261" height="171"/>
					</defs>
					<clipPath id="SVGID_136_">
						<use xlink:href="#SVGID_135_"  overflow="visible"/>
					</clipPath>
					<rect x="45.8" y="196.9" clip-path="url(#SVGID_136_)" fill="#2BDB7A" width="308.3" height="54"/>
				</g>
			</g>
			<g clip-path="url(#SVGID_126_)">
				<defs>
					<rect id="SVGID_137_" x="50.8" y="245.7" width="298.3" height="44"/>
				</defs>
				<clipPath id="SVGID_138_">
					<use xlink:href="#SVGID_137_"  overflow="visible"/>
				</clipPath>
				<g clip-path="url(#SVGID_138_)">
					<defs>
						<rect id="SVGID_139_" x="69.5" y="164" width="261" height="171"/>
					</defs>
					<clipPath id="SVGID_140_">
						<use xlink:href="#SVGID_139_"  overflow="visible"/>
					</clipPath>
					<rect x="45.8" y="240.7" clip-path="url(#SVGID_140_)" fill="#FFD20D" width="308.3" height="54"/>
				</g>
			</g>
			<g clip-path="url(#SVGID_126_)">
				<defs>
					<rect id="SVGID_141_" x="50.8" y="289.5" width="298.3" height="53.7"/>
				</defs>
				<clipPath id="SVGID_142_">
					<use xlink:href="#SVGID_141_"  overflow="visible"/>
				</clipPath>
				<g clip-path="url(#SVGID_142_)">
					<defs>
						<rect id="SVGID_143_" x="69.5" y="164" width="261" height="171"/>
					</defs>
					<clipPath id="SVGID_144_">
						<use xlink:href="#SVGID_143_"  overflow="visible"/>
					</clipPath>
					<rect x="45.8" y="284.5" clip-path="url(#SVGID_144_)" fill="#F65842" width="308.3" height="63.7"/>
				</g>
			</g>
		</g>
	</g>
</g>
<g>
	<defs>
		<path id="SVGID_145_" d="M159.1,250.8c-2.2,0-3.9,1.8-3.9,3.9v22.7c0,2.2,1.8,3.9,3.9,3.9c2.2,0,3.9-1.8,3.9-3.9v-22.7
			C163,252.5,161.3,250.8,159.1,250.8z"/>
	</defs>
	<clipPath id="SVGID_146_">
		<use xlink:href="#SVGID_145_"  overflow="visible"/>
	</clipPath>
	<rect x="150.2" y="245.8" clip-path="url(#SVGID_146_)" fill="#4A4A4A" width="17.9" height="40.5"/>
</g>
<g>
	<defs>
		<path id="SVGID_147_" d="M159.1,250.4c-2.2,0-3.9,1.8-3.9,3.9v5.1c0,2.2,1.8,3.9,3.9,3.9c2.2,0,3.9-1.8,3.9-3.9v-5.1
			C163,252.2,161.3,250.4,159.1,250.4z"/>
	</defs>
	<clipPath id="SVGID_148_">
		<use xlink:href="#SVGID_147_"  overflow="visible"/>
	</clipPath>
	<rect x="150.2" y="245.4" clip-path="url(#SVGID_148_)" fill="#FFFFFF" width="17.9" height="23"/>
</g>
<g>
	<defs>
		<path id="SVGID_149_" d="M240.7,250.8c-2.2,0-3.9,1.8-3.9,3.9v22.7c0,2.2,1.8,3.9,3.9,3.9c2.2,0,3.9-1.8,3.9-3.9v-22.7
			C244.7,252.5,242.9,250.8,240.7,250.8z"/>
	</defs>
	<clipPath id="SVGID_150_">
		<use xlink:href="#SVGID_149_"  overflow="visible"/>
	</clipPath>
	<rect x="231.8" y="245.8" clip-path="url(#SVGID_150_)" fill="#4A4A4A" width="17.9" height="40.5"/>
</g>
<g>
	<defs>
		<path id="SVGID_151_" d="M240.7,250.4c-2.2,0-3.9,1.8-3.9,3.9v5.1c0,2.2,1.8,3.9,3.9,3.9c2.2,0,3.9-1.8,3.9-3.9v-5.1
			C244.7,252.2,242.9,250.4,240.7,250.4z"/>
	</defs>
	<clipPath id="SVGID_152_">
		<use xlink:href="#SVGID_151_"  overflow="visible"/>
	</clipPath>
	<rect x="231.8" y="245.4" clip-path="url(#SVGID_152_)" fill="#FFFFFF" width="17.9" height="23"/>
</g>
<g>
	<defs>
		<path id="SVGID_153_" d="M183.4,265.8c0.4,9,3,19.4,16.5,19.4s16.2-10.3,16.5-19.4C216.4,265.6,183.4,265.6,183.4,265.8z"/>
	</defs>
	<clipPath id="SVGID_154_">
		<use xlink:href="#SVGID_153_"  overflow="visible"/>
	</clipPath>
	<g clip-path="url(#SVGID_154_)" enable-background="new    ">
		<g>
			<defs>
				<rect id="SVGID_155_" x="182.5" y="265" width="34" height="21"/>
			</defs>
			<clipPath id="SVGID_156_">
				<use xlink:href="#SVGID_155_"  overflow="visible"/>
			</clipPath>
			<g clip-path="url(#SVGID_156_)">
				<defs>
					<rect id="SVGID_157_" x="182.5" y="265" width="34" height="21"/>
				</defs>
				<clipPath id="SVGID_158_">
					<use xlink:href="#SVGID_157_"  overflow="visible"/>
				</clipPath>
				<rect x="178.4" y="260.7" clip-path="url(#SVGID_158_)" fill="#4A4A4A" width="43.1" height="29.6"/>
			</g>
			<g clip-path="url(#SVGID_156_)">
				<defs>
					<path id="SVGID_159_" d="M199.9,310.8c8.2,0,14.9-21.7,14.9-30s-10.4-10.1-14.9-10.1c-4.5,0-14.9,1.8-14.9,10.1
						S191.7,310.8,199.9,310.8z"/>
				</defs>
				<clipPath id="SVGID_160_">
					<use xlink:href="#SVGID_159_"  overflow="visible"/>
				</clipPath>
				<g clip-path="url(#SVGID_160_)">
					<defs>
						<rect id="SVGID_161_" x="182.5" y="265" width="34" height="21"/>
					</defs>
					<clipPath id="SVGID_162_">
						<use xlink:href="#SVGID_161_"  overflow="visible"/>
					</clipPath>
					<rect x="180" y="265.7" clip-path="url(#SVGID_162_)" fill="#F65842" width="39.8" height="50.1"/>
				</g>
			</g>
		</g>
	</g>
</g>
<g>
	<defs>
		<path id="SVGID_163_" d="M64.7,239.4c5.7-6.8,14.9-6.8,20.6,0l58.6,70.2c11.4,13.7,6.2,24.7-11.6,24.7H17.6
			c-17.8,0-23-11.1-11.6-24.7L64.7,239.4z"/>
	</defs>
	<clipPath id="SVGID_164_">
		<use xlink:href="#SVGID_163_"  overflow="visible"/>
	</clipPath>
	<g clip-path="url(#SVGID_164_)" enable-background="new    ">
		<g>
			<defs>
				<rect id="SVGID_165_" x="-0.5" y="232.1" width="156" height="103"/>
			</defs>
			<clipPath id="SVGID_166_">
				<use xlink:href="#SVGID_165_"  overflow="visible"/>
			</clipPath>
			<g clip-path="url(#SVGID_166_)">
				<defs>
					<rect id="SVGID_167_" x="-0.5" y="232.1" width="156" height="103"/>
				</defs>
				<clipPath id="SVGID_168_">
					<use xlink:href="#SVGID_167_"  overflow="visible"/>
				</clipPath>
				<rect x="-5" y="229.2" clip-path="url(#SVGID_168_)" fill="#FF7878" width="160" height="110.1"/>
			</g>
			<g clip-path="url(#SVGID_166_)">
				<defs>
					<rect id="SVGID_169_" x="-14.5" y="228.8" width="179" height="26.4"/>
				</defs>
				<clipPath id="SVGID_170_">
					<use xlink:href="#SVGID_169_"  overflow="visible"/>
				</clipPath>
				<g clip-path="url(#SVGID_170_)">
					<defs>
						<rect id="SVGID_171_" x="-0.5" y="232.1" width="156" height="103"/>
					</defs>
					<clipPath id="SVGID_172_">
						<use xlink:href="#SVGID_171_"  overflow="visible"/>
					</clipPath>
					<rect x="-19.5" y="223.8" clip-path="url(#SVGID_172_)" fill="#39A4EB" width="189" height="36.4"/>
				</g>
			</g>
			<g clip-path="url(#SVGID_166_)">
				<defs>
					<rect id="SVGID_173_" x="-14.5" y="255.1" width="179" height="26.4"/>
				</defs>
				<clipPath id="SVGID_174_">
					<use xlink:href="#SVGID_173_"  overflow="visible"/>
				</clipPath>
				<g clip-path="url(#SVGID_174_)">
					<defs>
						<rect id="SVGID_175_" x="-0.5" y="232.1" width="156" height="103"/>
					</defs>
					<clipPath id="SVGID_176_">
						<use xlink:href="#SVGID_175_"  overflow="visible"/>
					</clipPath>
					<rect x="-19.5" y="250.1" clip-path="url(#SVGID_176_)" fill="#2BDB7A" width="189" height="36.4"/>
				</g>
			</g>
			<g clip-path="url(#SVGID_166_)">
				<defs>
					<rect id="SVGID_177_" x="-14.5" y="281.3" width="179" height="26.4"/>
				</defs>
				<clipPath id="SVGID_178_">
					<use xlink:href="#SVGID_177_"  overflow="visible"/>
				</clipPath>
				<g clip-path="url(#SVGID_178_)">
					<defs>
						<rect id="SVGID_179_" x="-0.5" y="232.1" width="156" height="103"/>
					</defs>
					<clipPath id="SVGID_180_">
						<use xlink:href="#SVGID_179_"  overflow="visible"/>
					</clipPath>
					<rect x="-19.5" y="276.3" clip-path="url(#SVGID_180_)" fill="#FFD20D" width="189" height="36.4"/>
				</g>
			</g>
			<g clip-path="url(#SVGID_166_)">
				<defs>
					<rect id="SVGID_181_" x="-14.5" y="307.6" width="179" height="26.9"/>
				</defs>
				<clipPath id="SVGID_182_">
					<use xlink:href="#SVGID_181_"  overflow="visible"/>
				</clipPath>
				<g clip-path="url(#SVGID_182_)">
					<defs>
						<rect id="SVGID_183_" x="-0.5" y="232.1" width="156" height="103"/>
					</defs>
					<clipPath id="SVGID_184_">
						<use xlink:href="#SVGID_183_"  overflow="visible"/>
					</clipPath>
					<rect x="-19.5" y="302.6" clip-path="url(#SVGID_184_)" fill="#F65842" width="189" height="36.9"/>
				</g>
			</g>
		</g>
	</g>
</g>
<g>
	<defs>
		<path id="SVGID_185_" d="M50.4,284.3c-1.3,0-2.4,1.1-2.4,2.4v13.6c0,1.3,1.1,2.4,2.4,2.4c1.3,0,2.4-1.1,2.4-2.4v-13.6
			C52.8,285.3,51.7,284.3,50.4,284.3z"/>
	</defs>
	<clipPath id="SVGID_186_">
		<use xlink:href="#SVGID_185_"  overflow="visible"/>
	</clipPath>
	<rect x="43" y="279.3" clip-path="url(#SVGID_186_)" fill="#4A4A4A" width="14.7" height="28.3"/>
</g>
<g>
	<defs>
		<path id="SVGID_187_" d="M50.4,284.1c-1.3,0-2.4,1.1-2.4,2.4v3.1c0,1.3,1.1,2.4,2.4,2.4c1.3,0,2.4-1.1,2.4-2.4v-3.1
			C52.8,285.1,51.7,284.1,50.4,284.1z"/>
	</defs>
	<clipPath id="SVGID_188_">
		<use xlink:href="#SVGID_187_"  overflow="visible"/>
	</clipPath>
	<rect x="43" y="279.1" clip-path="url(#SVGID_188_)" fill="#FFFFFF" width="14.7" height="17.8"/>
</g>
<g>
	<defs>
		<path id="SVGID_189_" d="M99.4,284.3c-1.3,0-2.4,1.1-2.4,2.4v13.6c0,1.3,1.1,2.4,2.4,2.4c1.3,0,2.4-1.1,2.4-2.4v-13.6
			C101.8,285.3,100.7,284.3,99.4,284.3z"/>
	</defs>
	<clipPath id="SVGID_190_">
		<use xlink:href="#SVGID_189_"  overflow="visible"/>
	</clipPath>
	<rect x="92" y="279.3" clip-path="url(#SVGID_190_)" fill="#4A4A4A" width="14.7" height="28.3"/>
</g>
<g>
	<defs>
		<path id="SVGID_191_" d="M99.4,284.1c-1.3,0-2.4,1.1-2.4,2.4v3.1c0,1.3,1.1,2.4,2.4,2.4c1.3,0,2.4-1.1,2.4-2.4v-3.1
			C101.8,285.1,100.7,284.1,99.4,284.1z"/>
	</defs>
	<clipPath id="SVGID_192_">
		<use xlink:href="#SVGID_191_"  overflow="visible"/>
	</clipPath>
	<rect x="92" y="279.1" clip-path="url(#SVGID_192_)" fill="#FFFFFF" width="14.7" height="17.8"/>
</g>
<g>
	<defs>
		<path id="SVGID_193_" d="M65,293.3c0.3,5.4,1.8,11.7,9.9,11.7s9.7-6.2,9.9-11.7C84.8,293.2,65,293.2,65,293.3z"/>
	</defs>
	<clipPath id="SVGID_194_">
		<use xlink:href="#SVGID_193_"  overflow="visible"/>
	</clipPath>
	<g clip-path="url(#SVGID_194_)" enable-background="new    ">
		<g>
			<defs>
				<rect id="SVGID_195_" x="64.5" y="293" width="21" height="12"/>
			</defs>
			<clipPath id="SVGID_196_">
				<use xlink:href="#SVGID_195_"  overflow="visible"/>
			</clipPath>
			<g clip-path="url(#SVGID_196_)">
				<defs>
					<rect id="SVGID_197_" x="64.5" y="293" width="21" height="12"/>
				</defs>
				<clipPath id="SVGID_198_">
					<use xlink:href="#SVGID_197_"  overflow="visible"/>
				</clipPath>
				<rect x="60" y="288.2" clip-path="url(#SVGID_198_)" fill="#4A4A4A" width="29.8" height="21.8"/>
			</g>
			<g clip-path="url(#SVGID_196_)">
				<defs>
					<path id="SVGID_199_" d="M74.9,320.3c4.9,0,8.9-13,8.9-18s-6.3-6.1-8.9-6.1c-2.7,0-8.9,1.1-8.9,6.1S69.9,320.3,74.9,320.3z"/>
				</defs>
				<clipPath id="SVGID_200_">
					<use xlink:href="#SVGID_199_"  overflow="visible"/>
				</clipPath>
				<g clip-path="url(#SVGID_200_)">
					<defs>
						<rect id="SVGID_201_" x="64.5" y="293" width="21" height="12"/>
					</defs>
					<clipPath id="SVGID_202_">
						<use xlink:href="#SVGID_201_"  overflow="visible"/>
					</clipPath>
					<rect x="60.9" y="291.3" clip-path="url(#SVGID_202_)" fill="#F65842" width="27.9" height="34"/>
				</g>
			</g>
		</g>
	</g>
</g>
<g>
	<defs>
		<path id="SVGID_203_" d="M891.7,239.4c5.7-6.8,14.9-6.8,20.6,0l58.6,70.2c11.4,13.7,6.2,24.7-11.6,24.7H844.6
			c-17.8,0-23-11.1-11.6-24.7L891.7,239.4z"/>
	</defs>
	<clipPath id="SVGID_204_">
		<use xlink:href="#SVGID_203_"  overflow="visible"/>
	</clipPath>
	<g clip-path="url(#SVGID_204_)" enable-background="new    ">
		<g>
			<defs>
				<rect id="SVGID_205_" x="821.5" y="232.1" width="156" height="103"/>
			</defs>
			<clipPath id="SVGID_206_">
				<use xlink:href="#SVGID_205_"  overflow="visible"/>
			</clipPath>
			<g clip-path="url(#SVGID_206_)">
				<defs>
					<rect id="SVGID_207_" x="821.5" y="232.1" width="156" height="103"/>
				</defs>
				<clipPath id="SVGID_208_">
					<use xlink:href="#SVGID_207_"  overflow="visible"/>
				</clipPath>
				<rect x="822" y="229.2" clip-path="url(#SVGID_208_)" fill="#FF7878" width="160" height="110.1"/>
			</g>
			<g clip-path="url(#SVGID_206_)">
				<defs>
					<rect id="SVGID_209_" x="812.5" y="228.8" width="179" height="26.4"/>
				</defs>
				<clipPath id="SVGID_210_">
					<use xlink:href="#SVGID_209_"  overflow="visible"/>
				</clipPath>
				<g clip-path="url(#SVGID_210_)">
					<defs>
						<rect id="SVGID_211_" x="821.5" y="232.1" width="156" height="103"/>
					</defs>
					<clipPath id="SVGID_212_">
						<use xlink:href="#SVGID_211_"  overflow="visible"/>
					</clipPath>
					<rect x="807.5" y="223.8" clip-path="url(#SVGID_212_)" fill="#39A4EB" width="189" height="36.4"/>
				</g>
			</g>
			<g clip-path="url(#SVGID_206_)">
				<defs>
					<rect id="SVGID_213_" x="812.5" y="255.1" width="179" height="26.4"/>
				</defs>
				<clipPath id="SVGID_214_">
					<use xlink:href="#SVGID_213_"  overflow="visible"/>
				</clipPath>
				<g clip-path="url(#SVGID_214_)">
					<defs>
						<rect id="SVGID_215_" x="821.5" y="232.1" width="156" height="103"/>
					</defs>
					<clipPath id="SVGID_216_">
						<use xlink:href="#SVGID_215_"  overflow="visible"/>
					</clipPath>
					<rect x="807.5" y="250.1" clip-path="url(#SVGID_216_)" fill="#2BDB7A" width="189" height="36.4"/>
				</g>
			</g>
			<g clip-path="url(#SVGID_206_)">
				<defs>
					<rect id="SVGID_217_" x="812.5" y="281.3" width="179" height="26.4"/>
				</defs>
				<clipPath id="SVGID_218_">
					<use xlink:href="#SVGID_217_"  overflow="visible"/>
				</clipPath>
				<g clip-path="url(#SVGID_218_)">
					<defs>
						<rect id="SVGID_219_" x="821.5" y="232.1" width="156" height="103"/>
					</defs>
					<clipPath id="SVGID_220_">
						<use xlink:href="#SVGID_219_"  overflow="visible"/>
					</clipPath>
					<rect x="807.5" y="276.3" clip-path="url(#SVGID_220_)" fill="#FFD20D" width="189" height="36.4"/>
				</g>
			</g>
			<g clip-path="url(#SVGID_206_)">
				<defs>
					<rect id="SVGID_221_" x="812.5" y="307.6" width="179" height="26.9"/>
				</defs>
				<clipPath id="SVGID_222_">
					<use xlink:href="#SVGID_221_"  overflow="visible"/>
				</clipPath>
				<g clip-path="url(#SVGID_222_)">
					<defs>
						<rect id="SVGID_223_" x="821.5" y="232.1" width="156" height="103"/>
					</defs>
					<clipPath id="SVGID_224_">
						<use xlink:href="#SVGID_223_"  overflow="visible"/>
					</clipPath>
					<rect x="807.5" y="302.6" clip-path="url(#SVGID_224_)" fill="#F65842" width="189" height="36.9"/>
				</g>
			</g>
		</g>
	</g>
</g>
<g>
	<defs>
		<path id="SVGID_225_" d="M877.4,284.3c-1.3,0-2.4,1.1-2.4,2.4v13.6c0,1.3,1.1,2.4,2.4,2.4c1.3,0,2.4-1.1,2.4-2.4v-13.6
			C879.8,285.3,878.7,284.3,877.4,284.3z"/>
	</defs>
	<clipPath id="SVGID_226_">
		<use xlink:href="#SVGID_225_"  overflow="visible"/>
	</clipPath>
	<rect x="870" y="279.3" clip-path="url(#SVGID_226_)" fill="#4A4A4A" width="14.7" height="28.3"/>
</g>
<g>
	<defs>
		<path id="SVGID_227_" d="M877.4,284.1c-1.3,0-2.4,1.1-2.4,2.4v3.1c0,1.3,1.1,2.4,2.4,2.4c1.3,0,2.4-1.1,2.4-2.4v-3.1
			C879.8,285.1,878.7,284.1,877.4,284.1z"/>
	</defs>
	<clipPath id="SVGID_228_">
		<use xlink:href="#SVGID_227_"  overflow="visible"/>
	</clipPath>
	<rect x="870" y="279.1" clip-path="url(#SVGID_228_)" fill="#FFFFFF" width="14.7" height="17.8"/>
</g>
<g>
	<defs>
		<path id="SVGID_229_" d="M926.4,284.3c-1.3,0-2.4,1.1-2.4,2.4v13.6c0,1.3,1.1,2.4,2.4,2.4c1.3,0,2.4-1.1,2.4-2.4v-13.6
			C928.8,285.3,927.7,284.3,926.4,284.3z"/>
	</defs>
	<clipPath id="SVGID_230_">
		<use xlink:href="#SVGID_229_"  overflow="visible"/>
	</clipPath>
	<rect x="919" y="279.3" clip-path="url(#SVGID_230_)" fill="#4A4A4A" width="14.7" height="28.3"/>
</g>
<g>
	<defs>
		<path id="SVGID_231_" d="M926.4,284.1c-1.3,0-2.4,1.1-2.4,2.4v3.1c0,1.3,1.1,2.4,2.4,2.4c1.3,0,2.4-1.1,2.4-2.4v-3.1
			C928.8,285.1,927.7,284.1,926.4,284.1z"/>
	</defs>
	<clipPath id="SVGID_232_">
		<use xlink:href="#SVGID_231_"  overflow="visible"/>
	</clipPath>
	<rect x="919" y="279.1" clip-path="url(#SVGID_232_)" fill="#FFFFFF" width="14.7" height="17.8"/>
</g>
<g>
	<defs>
		<path id="SVGID_233_" d="M892,293.3c0.3,5.4,1.8,11.7,9.9,11.7c8.1,0,9.7-6.2,9.9-11.7C911.8,293.2,892,293.2,892,293.3z"/>
	</defs>
	<clipPath id="SVGID_234_">
		<use xlink:href="#SVGID_233_"  overflow="visible"/>
	</clipPath>
	<g clip-path="url(#SVGID_234_)" enable-background="new    ">
		<g>
			<defs>
				<rect id="SVGID_235_" x="891.5" y="293" width="21" height="12"/>
			</defs>
			<clipPath id="SVGID_236_">
				<use xlink:href="#SVGID_235_"  overflow="visible"/>
			</clipPath>
			<g clip-path="url(#SVGID_236_)">
				<defs>
					<rect id="SVGID_237_" x="891.5" y="293" width="21" height="12"/>
				</defs>
				<clipPath id="SVGID_238_">
					<use xlink:href="#SVGID_237_"  overflow="visible"/>
				</clipPath>
				<rect x="887" y="288.2" clip-path="url(#SVGID_238_)" fill="#4A4A4A" width="29.8" height="21.8"/>
			</g>
			<g clip-path="url(#SVGID_236_)">
				<defs>
					<path id="SVGID_239_" d="M901.9,320.3c4.9,0,8.9-13,8.9-18s-6.3-6.1-8.9-6.1c-2.7,0-8.9,1.1-8.9,6.1S896.9,320.3,901.9,320.3z"
						/>
				</defs>
				<clipPath id="SVGID_240_">
					<use xlink:href="#SVGID_239_"  overflow="visible"/>
				</clipPath>
				<g clip-path="url(#SVGID_240_)">
					<defs>
						<rect id="SVGID_241_" x="891.5" y="293" width="21" height="12"/>
					</defs>
					<clipPath id="SVGID_242_">
						<use xlink:href="#SVGID_241_"  overflow="visible"/>
					</clipPath>
					<rect x="887.9" y="291.3" clip-path="url(#SVGID_242_)" fill="#F65842" width="27.9" height="34"/>
				</g>
			</g>
		</g>
	</g>
</g>
<g>
	<defs>
		<path id="SVGID_243_" d="M108.5,212.5H97.4c-6.9,0-12.5,5.6-12.5,12.5c0,6.9,5.6,12.5,12.5,12.5h50c6.9,0,12.5-5.6,12.5-12.5h6.1
			c9.7,0,17.5-7.8,17.5-17.5c0-9.7-7.8-17.5-17.5-17.5h-40c-9.7,0-17.5,7.8-17.5,17.5V212.5z"/>
	</defs>
	<clipPath id="SVGID_244_">
		<use xlink:href="#SVGID_243_"  overflow="visible"/>
	</clipPath>
	<rect x="79.9" y="185" clip-path="url(#SVGID_244_)" fill="#F0FCFF" width="108.6" height="57.5"/>
</g>
<g>
	<defs>
		<path id="SVGID_245_" d="M813,198.1h-7.1c-5.5,0-10,4.5-10,10c0,5.5,4.5,10,10,10h40c5.5,0,10-4.5,10-10h7.1c8.3,0,15-6.7,15-15
			c0-8.3-6.7-15-15-15h-35c-8.3,0-15,6.7-15,15V198.1z"/>
	</defs>
	<clipPath id="SVGID_246_">
		<use xlink:href="#SVGID_245_"  overflow="visible"/>
	</clipPath>
	<rect x="790.9" y="173.1" clip-path="url(#SVGID_246_)" fill="#F0FCFF" width="92.1" height="50"/>
</g>
</svg>
