<svg xmlns="http://www.w3.org/2000/svg" xmlns:xlink="http://www.w3.org/1999/xlink" version="1.1" id="Layer_1" x="0" y="0" viewBox="0 0 986.602 335.597" enable-background="new 0 0 986.602 335.597" xml:space="preserve"><defs><path id="SVGID_1_" d="M462.688 16.94c18.798-22.586 49.274-22.586 68.072 0l197.144 236.873c37.593 45.169 20.432 81.785-38.339 81.785H303.883c-58.767 0-75.927-36.621-38.339-81.785L462.688 16.94z"/></defs><clipPath id="SVGID_2_"><use xlink:href="#SVGID_1_" overflow="visible"/></clipPath><g clip-path="url(#SVGID_2_)"><defs><rect id="SVGID_3_" x="-0.776" y="-9.403" width="988" height="345"/></defs><clipPath id="SVGID_4_"><use xlink:href="#SVGID_3_" overflow="visible"/></clipPath><rect x="240.622" y="-5" opacity="0.05" clip-path="url(#SVGID_4_)" width="512.208" height="345.597"/></g><defs><path id="SVGID_5_" d="M452.688 16.94c18.798-22.586 49.274-22.586 68.072 0l197.144 236.873c37.593 45.169 20.432 81.785-38.339 81.785H293.883c-58.767 0-75.927-36.621-38.339-81.785L452.688 16.94z"/></defs><clipPath id="SVGID_6_"><use xlink:href="#SVGID_5_" overflow="visible"/></clipPath><g clip-path="url(#SVGID_6_)"><defs><rect id="SVGID_7_" x="-0.776" y="-9.403" width="988" height="345"/></defs><clipPath id="SVGID_8_"><use xlink:href="#SVGID_7_" overflow="visible"/></clipPath><g clip-path="url(#SVGID_8_)" enable-background="new    "><defs><rect id="SVGID_9_" x="231.224" y="-0.403" width="511" height="336"/></defs><clipPath id="SVGID_10_"><use xlink:href="#SVGID_9_" overflow="visible"/></clipPath><g clip-path="url(#SVGID_10_)"><defs><rect id="SVGID_11_" x="231.224" y="-0.403" width="511" height="336"/></defs><clipPath id="SVGID_12_"><use xlink:href="#SVGID_11_" overflow="visible"/></clipPath><rect x="230.622" y="-5" clip-path="url(#SVGID_12_)" fill="#FF7878" width="512.208" height="345.597"/></g><g clip-path="url(#SVGID_10_)"><defs><rect id="SVGID_13_" x="236.224" y="-0.778" width="501" height="73.312"/></defs><clipPath id="SVGID_14_"><use xlink:href="#SVGID_13_" overflow="visible"/></clipPath><g clip-path="url(#SVGID_14_)"><defs><rect id="SVGID_15_" x="231.224" y="-0.403" width="511" height="336"/></defs><clipPath id="SVGID_16_"><use xlink:href="#SVGID_15_" overflow="visible"/></clipPath><rect x="231.224" y="-5.778" clip-path="url(#SVGID_16_)" fill="#39A4EB" width="511" height="83.312"/></g></g><g clip-path="url(#SVGID_10_)"><defs><rect id="SVGID_17_" x="236.224" y="72.535" width="501" height="81.938"/></defs><clipPath id="SVGID_18_"><use xlink:href="#SVGID_17_" overflow="visible"/></clipPath><g clip-path="url(#SVGID_18_)"><defs><rect id="SVGID_19_" x="231.224" y="-0.403" width="511" height="336"/></defs><clipPath id="SVGID_20_"><use xlink:href="#SVGID_19_" overflow="visible"/></clipPath><rect x="231.224" y="67.535" clip-path="url(#SVGID_20_)" fill="#2BDB7A" width="511" height="91.938"/></g></g><g clip-path="url(#SVGID_10_)"><defs><rect id="SVGID_21_" x="236.224" y="154.472" width="501" height="90.562"/></defs><clipPath id="SVGID_22_"><use xlink:href="#SVGID_21_" overflow="visible"/></clipPath><g clip-path="url(#SVGID_22_)"><defs><rect id="SVGID_23_" x="231.224" y="-0.403" width="511" height="336"/></defs><clipPath id="SVGID_24_"><use xlink:href="#SVGID_23_" overflow="visible"/></clipPath><rect x="231.224" y="149.472" clip-path="url(#SVGID_24_)" fill="#FFD20D" width="511" height="100.562"/></g></g><g clip-path="url(#SVGID_10_)"><defs><rect id="SVGID_25_" x="236.224" y="245.035" width="501" height="99.188"/></defs><clipPath id="SVGID_26_"><use xlink:href="#SVGID_25_" overflow="visible"/></clipPath><g clip-path="url(#SVGID_26_)"><defs><rect id="SVGID_27_" x="231.224" y="-0.403" width="511" height="336"/></defs><clipPath id="SVGID_28_"><use xlink:href="#SVGID_27_" overflow="visible"/></clipPath><rect x="231.224" y="240.035" clip-path="url(#SVGID_28_)" fill="#F65842" width="511" height="109.188"/></g></g></g></g><defs><path id="SVGID_29_" d="M405.382 168.937c-4.367 0-7.907 3.531-7.907 7.904v45.368c0 4.365 3.549 7.904 7.907 7.904 4.367 0 7.907-3.531 7.907-7.904v-45.368C413.289 172.476 409.74 168.937 405.382 168.937z"/></defs><clipPath id="SVGID_30_"><use xlink:href="#SVGID_29_" overflow="visible"/></clipPath><g clip-path="url(#SVGID_30_)"><defs><rect id="SVGID_31_" x="-0.776" y="-9.403" width="988" height="345"/></defs><clipPath id="SVGID_32_"><use xlink:href="#SVGID_31_" overflow="visible"/></clipPath><rect x="392.475" y="163.937" clip-path="url(#SVGID_32_)" fill="#4A4A4A" width="25.814" height="71.175"/></g><defs><path id="SVGID_33_" d="M405.382 168.272c-4.367 0-7.907 3.54-7.907 7.904v10.241c0 4.365 3.549 7.904 7.907 7.904 4.367 0 7.907-3.54 7.907-7.904v-10.241C413.289 171.811 409.74 168.272 405.382 168.272z"/></defs><clipPath id="SVGID_34_"><use xlink:href="#SVGID_33_" overflow="visible"/></clipPath><g clip-path="url(#SVGID_34_)"><defs><rect id="SVGID_35_" x="-0.776" y="-9.403" width="988" height="345"/></defs><clipPath id="SVGID_36_"><use xlink:href="#SVGID_35_" overflow="visible"/></clipPath><rect x="392.475" y="163.272" clip-path="url(#SVGID_36_)" fill="#FFFFFF" width="25.814" height="36.049"/></g><defs><path id="SVGID_37_" d="M568.974 168.937c-4.367 0-7.907 3.531-7.907 7.904v45.368c0 4.365 3.549 7.904 7.907 7.904 4.367 0 7.907-3.531 7.907-7.904v-45.368C576.881 172.476 573.332 168.937 568.974 168.937z"/></defs><clipPath id="SVGID_38_"><use xlink:href="#SVGID_37_" overflow="visible"/></clipPath><g clip-path="url(#SVGID_38_)"><defs><rect id="SVGID_39_" x="-0.776" y="-9.403" width="988" height="345"/></defs><clipPath id="SVGID_40_"><use xlink:href="#SVGID_39_" overflow="visible"/></clipPath><rect x="556.067" y="163.937" clip-path="url(#SVGID_40_)" fill="#4A4A4A" width="25.815" height="71.175"/></g><defs><path id="SVGID_41_" d="M568.974 168.272c-4.367 0-7.907 3.54-7.907 7.904v10.241c0 4.365 3.549 7.904 7.907 7.904 4.367 0 7.907-3.54 7.907-7.904v-10.241C576.881 171.811 573.332 168.272 568.974 168.272z"/></defs><clipPath id="SVGID_42_"><use xlink:href="#SVGID_41_" overflow="visible"/></clipPath><g clip-path="url(#SVGID_42_)"><defs><rect id="SVGID_43_" x="-0.776" y="-9.403" width="988" height="345"/></defs><clipPath id="SVGID_44_"><use xlink:href="#SVGID_43_" overflow="visible"/></clipPath><rect x="556.067" y="163.272" clip-path="url(#SVGID_44_)" fill="#FFFFFF" width="25.815" height="36.049"/></g><defs><path id="SVGID_45_" d="M453.565 191.755c0.856 17.988 5.925 38.935 33.096 38.935 27.172 0 32.561-20.682 33.136-38.935C519.809 191.384 453.538 191.197 453.565 191.755z"/></defs><clipPath id="SVGID_46_"><use xlink:href="#SVGID_45_" overflow="visible"/></clipPath><g clip-path="url(#SVGID_46_)"><defs><rect id="SVGID_47_" x="-0.776" y="-9.403" width="988" height="345"/></defs><clipPath id="SVGID_48_"><use xlink:href="#SVGID_47_" overflow="visible"/></clipPath><g clip-path="url(#SVGID_48_)" enable-background="new    "><defs><rect id="SVGID_49_" x="453.224" y="190.597" width="67" height="41"/></defs><clipPath id="SVGID_50_"><use xlink:href="#SVGID_49_" overflow="visible"/></clipPath><g clip-path="url(#SVGID_50_)"><defs><rect id="SVGID_51_" x="453.224" y="190.597" width="67" height="41"/></defs><clipPath id="SVGID_52_"><use xlink:href="#SVGID_51_" overflow="visible"/></clipPath><rect x="448.565" y="186.403" clip-path="url(#SVGID_52_)" fill="#4A4A4A" width="76.232" height="49.287"/></g><g clip-path="url(#SVGID_50_)"><defs><path id="SVGID_53_" d="M486.661 281.759c16.47 0 29.822-43.432 29.822-60 0-16.569-20.876-20.25-29.822-20.25 -8.947 0-29.823 3.682-29.823 20.25C456.838 238.327 470.19 281.759 486.661 281.759z"/></defs><clipPath id="SVGID_54_"><use xlink:href="#SVGID_53_" overflow="visible"/></clipPath><g clip-path="url(#SVGID_54_)"><defs><rect id="SVGID_55_" x="453.224" y="190.597" width="67" height="41"/></defs><clipPath id="SVGID_56_"><use xlink:href="#SVGID_55_" overflow="visible"/></clipPath><rect x="451.838" y="196.508" clip-path="url(#SVGID_56_)" fill="#F65842" width="69.645" height="90.251"/></g></g></g></g><defs><path id="SVGID_57_" d="M225.76 208.597h92.926 46.463c9.429 0 17.073-7.643 17.073-17.077 0-7.747-5.163-14.289-12.229-16.379 0.005-0.232 0.007-0.465 0.007-0.698 0-15.5-10.32-28.589-24.467-32.763 0.015-0.462 0.022-0.926 0.022-1.391 0-23.578-19.114-42.692-42.691-42.692H290.47c-17.507 0-32.553 10.535-39.14 25.615h-10.922c-9.429 0-17.074 7.643-17.074 17.077h-14.742c-18.859 0-34.147 15.287-34.147 34.154 0 0.233 0.002 0.465 0.007 0.697 -7.07 2.088-12.229 8.63-12.229 16.38 0 9.431 7.652 17.077 17.074 17.077H225.76z"/></defs><clipPath id="SVGID_58_"><use xlink:href="#SVGID_57_" overflow="visible"/></clipPath><g clip-path="url(#SVGID_58_)"><defs><rect id="SVGID_59_" x="-0.776" y="-9.403" width="988" height="345"/></defs><clipPath id="SVGID_60_"><use xlink:href="#SVGID_59_" overflow="visible"/></clipPath><rect x="157.224" y="92.597" opacity="0.05" clip-path="url(#SVGID_60_)" width="230" height="121"/></g><defs><path id="SVGID_61_" d="M220.76 203.597h92.926 46.463c9.429 0 17.073-7.643 17.073-17.077 0-7.747-5.163-14.289-12.229-16.379 0.005-0.232 0.007-0.465 0.007-0.698 0-15.5-10.32-28.589-24.467-32.763 0.015-0.462 0.022-0.926 0.022-1.391 0-23.578-19.114-42.692-42.691-42.692H285.47c-17.507 0-32.553 10.535-39.14 25.615h-10.922c-9.429 0-17.074 7.643-17.074 17.077h-14.742c-18.859 0-34.147 15.287-34.147 34.154 0 0.233 0.002 0.465 0.007 0.697 -7.07 2.088-12.229 8.63-12.229 16.38 0 9.431 7.652 17.077 17.074 17.077H220.76z"/></defs><clipPath id="SVGID_62_"><use xlink:href="#SVGID_61_" overflow="visible"/></clipPath><g clip-path="url(#SVGID_62_)"><defs><rect id="SVGID_63_" x="-0.776" y="-9.403" width="988" height="345"/></defs><clipPath id="SVGID_64_"><use xlink:href="#SVGID_63_" overflow="visible"/></clipPath><rect x="152.224" y="87.597" clip-path="url(#SVGID_64_)" fill="#F0FCFF" width="230" height="121"/></g><defs><path id="SVGID_65_" d="M244.521 127.763c12.263-14.722 32.141-14.726 44.407 0L417.63 282.277c24.528 29.448 13.351 53.32-24.975 53.32h-251.86c-38.322 0-49.505-23.87-24.976-53.32L244.521 127.763z"/></defs><clipPath id="SVGID_66_"><use xlink:href="#SVGID_65_" overflow="visible"/></clipPath><g clip-path="url(#SVGID_66_)"><defs><rect id="SVGID_67_" x="-0.776" y="-9.403" width="988" height="345"/></defs><clipPath id="SVGID_68_"><use xlink:href="#SVGID_67_" overflow="visible"/></clipPath><rect x="97.812" y="111.72" opacity="0.05" clip-path="url(#SVGID_68_)" width="337.825" height="228.877"/></g><defs><path id="SVGID_69_" d="M234.521 127.763c12.263-14.722 32.141-14.726 44.407 0L407.63 282.277c24.528 29.448 13.351 53.32-24.975 53.32h-251.86c-38.322 0-49.505-23.87-24.976-53.32L234.521 127.763z"/></defs><clipPath id="SVGID_70_"><use xlink:href="#SVGID_69_" overflow="visible"/></clipPath><g clip-path="url(#SVGID_70_)"><defs><rect id="SVGID_71_" x="-0.776" y="-9.403" width="988" height="345"/></defs><clipPath id="SVGID_72_"><use xlink:href="#SVGID_71_" overflow="visible"/></clipPath><g clip-path="url(#SVGID_72_)" enable-background="new    "><defs><rect id="SVGID_73_" x="88.224" y="112.597" width="337" height="223"/></defs><clipPath id="SVGID_74_"><use xlink:href="#SVGID_73_" overflow="visible"/></clipPath><g clip-path="url(#SVGID_74_)"><defs><rect id="SVGID_75_" x="88.224" y="112.597" width="337" height="223"/></defs><clipPath id="SVGID_76_"><use xlink:href="#SVGID_75_" overflow="visible"/></clipPath><rect x="87.812" y="111.72" clip-path="url(#SVGID_76_)" fill="#FF7878" width="337.825" height="228.877"/></g><g clip-path="url(#SVGID_74_)"><defs><rect id="SVGID_77_" x="93.224" y="116.222" width="327" height="47.812"/></defs><clipPath id="SVGID_78_"><use xlink:href="#SVGID_77_" overflow="visible"/></clipPath><g clip-path="url(#SVGID_78_)"><defs><rect id="SVGID_79_" x="88.224" y="112.597" width="337" height="223"/></defs><clipPath id="SVGID_80_"><use xlink:href="#SVGID_79_" overflow="visible"/></clipPath><rect x="88.224" y="111.222" clip-path="url(#SVGID_80_)" fill="#39A4EB" width="337" height="57.812"/></g></g><g clip-path="url(#SVGID_74_)"><defs><rect id="SVGID_81_" x="93.224" y="164.035" width="327" height="53.438"/></defs><clipPath id="SVGID_82_"><use xlink:href="#SVGID_81_" overflow="visible"/></clipPath><g clip-path="url(#SVGID_82_)"><defs><rect id="SVGID_83_" x="88.224" y="112.597" width="337" height="223"/></defs><clipPath id="SVGID_84_"><use xlink:href="#SVGID_83_" overflow="visible"/></clipPath><rect x="88.224" y="159.035" clip-path="url(#SVGID_84_)" fill="#2BDB7A" width="337" height="63.438"/></g></g><g clip-path="url(#SVGID_74_)"><defs><rect id="SVGID_85_" x="93.224" y="217.472" width="327" height="59.062"/></defs><clipPath id="SVGID_86_"><use xlink:href="#SVGID_85_" overflow="visible"/></clipPath><g clip-path="url(#SVGID_86_)"><defs><rect id="SVGID_87_" x="88.224" y="112.597" width="337" height="223"/></defs><clipPath id="SVGID_88_"><use xlink:href="#SVGID_87_" overflow="visible"/></clipPath><rect x="88.224" y="212.472" clip-path="url(#SVGID_88_)" fill="#FFD20D" width="337" height="69.062"/></g></g><g clip-path="url(#SVGID_74_)"><defs><rect id="SVGID_89_" x="93.224" y="276.535" width="327" height="64.688"/></defs><clipPath id="SVGID_90_"><use xlink:href="#SVGID_89_" overflow="visible"/></clipPath><g clip-path="url(#SVGID_90_)"><defs><rect id="SVGID_91_" x="88.224" y="112.597" width="337" height="223"/></defs><clipPath id="SVGID_92_"><use xlink:href="#SVGID_91_" overflow="visible"/></clipPath><rect x="88.224" y="271.535" clip-path="url(#SVGID_92_)" fill="#F65842" width="337" height="74.688"/></g></g></g></g><defs><path id="SVGID_93_" d="M203.632 226.906c-2.85 0-5.161 2.317-5.161 5.154v29.588c0 2.847 2.316 5.155 5.161 5.155 2.85 0 5.161-2.317 5.161-5.155V232.06C208.793 229.214 206.477 226.906 203.632 226.906z"/></defs><clipPath id="SVGID_94_"><use xlink:href="#SVGID_93_" overflow="visible"/></clipPath><g clip-path="url(#SVGID_94_)"><defs><rect id="SVGID_95_" x="-0.776" y="-9.403" width="988" height="345"/></defs><clipPath id="SVGID_96_"><use xlink:href="#SVGID_95_" overflow="visible"/></clipPath><rect x="193.471" y="221.906" clip-path="url(#SVGID_96_)" fill="#4A4A4A" width="20.322" height="49.897"/></g><defs><path id="SVGID_97_" d="M203.632 226.472c-2.85 0-5.161 2.309-5.161 5.166v6.656c0 2.853 2.316 5.166 5.161 5.166 2.85 0 5.161-2.309 5.161-5.166v-6.656C208.793 228.785 206.477 226.472 203.632 226.472z"/></defs><clipPath id="SVGID_98_"><use xlink:href="#SVGID_97_" overflow="visible"/></clipPath><g clip-path="url(#SVGID_98_)"><defs><rect id="SVGID_99_" x="-0.776" y="-9.403" width="988" height="345"/></defs><clipPath id="SVGID_100_"><use xlink:href="#SVGID_99_" overflow="visible"/></clipPath><rect x="193.471" y="221.472" clip-path="url(#SVGID_100_)" fill="#FFFFFF" width="20.322" height="26.988"/></g><defs><path id="SVGID_101_" d="M310.408 226.906c-2.85 0-5.161 2.317-5.161 5.154v29.588c0 2.847 2.316 5.155 5.161 5.155 2.85 0 5.161-2.317 5.161-5.155V232.06C315.569 229.214 313.252 226.906 310.408 226.906z"/></defs><clipPath id="SVGID_102_"><use xlink:href="#SVGID_101_" overflow="visible"/></clipPath><g clip-path="url(#SVGID_102_)"><defs><rect id="SVGID_103_" x="-0.776" y="-9.403" width="988" height="345"/></defs><clipPath id="SVGID_104_"><use xlink:href="#SVGID_103_" overflow="visible"/></clipPath><rect x="300.247" y="221.906" clip-path="url(#SVGID_104_)" fill="#4A4A4A" width="20.322" height="49.897"/></g><defs><path id="SVGID_105_" d="M310.408 226.472c-2.85 0-5.161 2.309-5.161 5.166v6.656c0 2.853 2.316 5.166 5.161 5.166 2.85 0 5.161-2.309 5.161-5.166v-6.656C315.569 228.785 313.252 226.472 310.408 226.472z"/></defs><clipPath id="SVGID_106_"><use xlink:href="#SVGID_105_" overflow="visible"/></clipPath><g clip-path="url(#SVGID_106_)"><defs><rect id="SVGID_107_" x="-0.776" y="-9.403" width="988" height="345"/></defs><clipPath id="SVGID_108_"><use xlink:href="#SVGID_107_" overflow="visible"/></clipPath><rect x="300.247" y="221.472" clip-path="url(#SVGID_108_)" fill="#FFFFFF" width="20.322" height="26.988"/></g><defs><path id="SVGID_109_" d="M235.081 241.787c0.558 11.731 3.867 25.393 21.602 25.393s21.253-13.489 21.628-25.393C278.318 241.545 235.064 241.423 235.081 241.787z"/></defs><clipPath id="SVGID_110_"><use xlink:href="#SVGID_109_" overflow="visible"/></clipPath><g clip-path="url(#SVGID_110_)"><defs><rect id="SVGID_111_" x="-0.776" y="-9.403" width="988" height="345"/></defs><clipPath id="SVGID_112_"><use xlink:href="#SVGID_111_" overflow="visible"/></clipPath><g clip-path="url(#SVGID_112_)" enable-background="new    "><defs><rect id="SVGID_113_" x="234.224" y="240.597" width="45" height="27"/></defs><clipPath id="SVGID_114_"><use xlink:href="#SVGID_113_" overflow="visible"/></clipPath><g clip-path="url(#SVGID_114_)"><defs><rect id="SVGID_115_" x="234.224" y="240.597" width="45" height="27"/></defs><clipPath id="SVGID_116_"><use xlink:href="#SVGID_115_" overflow="visible"/></clipPath><rect x="230.081" y="236.558" clip-path="url(#SVGID_116_)" fill="#4A4A4A" width="53.23" height="35.622"/></g><g clip-path="url(#SVGID_114_)"><defs><path id="SVGID_117_" d="M256.683 300.485c10.75 0 19.465-28.325 19.465-39.131 0-10.806-13.625-13.207-19.465-13.207 -5.84 0-19.465 2.401-19.465 13.207C237.218 272.16 245.932 300.485 256.683 300.485z"/></defs><clipPath id="SVGID_118_"><use xlink:href="#SVGID_117_" overflow="visible"/></clipPath><g clip-path="url(#SVGID_118_)"><defs><rect id="SVGID_119_" x="234.224" y="240.597" width="45" height="27"/></defs><clipPath id="SVGID_120_"><use xlink:href="#SVGID_119_" overflow="visible"/></clipPath><rect x="232.218" y="243.148" clip-path="url(#SVGID_120_)" fill="#F65842" width="48.93" height="62.337"/></g></g></g></g><defs><path id="SVGID_121_" d="M771.186 170.597H657.261h-56.963c-11.639 0-21.074-9.434-21.074-21.077 0-9.531 6.33-17.585 15.009-20.19 -0.006-0.295-0.009-0.59-0.009-0.886 0-19.066 12.664-35.176 30.029-40.384 -0.019-0.588-0.029-1.178-0.029-1.77 0-29.101 23.601-52.692 52.699-52.692h14.602c21.611 0 40.184 13.003 48.315 31.615h13.31c11.639 0 21.074 9.434 21.074 21.077h17.852c23.278 0 42.148 18.868 42.148 42.154 0 0.296-0.003 0.591-0.009 0.886 8.682 2.604 15.009 10.657 15.009 20.191 0 11.64-9.441 21.077-21.074 21.077H771.186z"/></defs><clipPath id="SVGID_122_"><use xlink:href="#SVGID_121_" overflow="visible"/></clipPath><g clip-path="url(#SVGID_122_)"><defs><rect id="SVGID_123_" x="-0.776" y="-9.403" width="988" height="345"/></defs><clipPath id="SVGID_124_"><use xlink:href="#SVGID_123_" overflow="visible"/></clipPath><rect x="574.224" y="28.597" opacity="0.05" clip-path="url(#SVGID_124_)" width="280" height="147"/></g><defs><path id="SVGID_125_" d="M766.186 165.597H652.261h-56.963c-11.639 0-21.074-9.434-21.074-21.077 0-9.531 6.33-17.585 15.009-20.19 -0.006-0.295-0.009-0.59-0.009-0.886 0-19.066 12.664-35.176 30.029-40.384 -0.019-0.588-0.029-1.178-0.029-1.77 0-29.101 23.601-52.692 52.699-52.692h14.602c21.611 0 40.184 13.003 48.315 31.615h13.31c11.639 0 21.074 9.434 21.074 21.077h17.852c23.278 0 42.148 18.868 42.148 42.154 0 0.296-0.003 0.591-0.009 0.886 8.682 2.604 15.009 10.657 15.009 20.191 0 11.64-9.441 21.077-21.074 21.077H766.186z"/></defs><clipPath id="SVGID_126_"><use xlink:href="#SVGID_125_" overflow="visible"/></clipPath><g clip-path="url(#SVGID_126_)"><defs><rect id="SVGID_127_" x="-0.776" y="-9.403" width="988" height="345"/></defs><clipPath id="SVGID_128_"><use xlink:href="#SVGID_127_" overflow="visible"/></clipPath><rect x="569.224" y="23.597" clip-path="url(#SVGID_128_)" fill="#F0FCFF" width="280" height="147"/></g><defs><path id="SVGID_129_" d="M819.283 148.059c11.013-13.268 28.876-13.26 39.883 0l115.776 139.482c22.03 26.541 11.926 48.057-22.572 48.057H726.079c-34.496 0-44.605-21.511-22.572-48.057L819.283 148.059z"/></defs><clipPath id="SVGID_130_"><use xlink:href="#SVGID_129_" overflow="visible"/></clipPath><g clip-path="url(#SVGID_130_)"><defs><rect id="SVGID_131_" x="-0.776" y="-9.403" width="988" height="345"/></defs><clipPath id="SVGID_132_"><use xlink:href="#SVGID_131_" overflow="visible"/></clipPath><rect x="686.845" y="133.11" opacity="0.05" clip-path="url(#SVGID_132_)" width="304.756" height="207.487"/></g><defs><path id="SVGID_133_" d="M809.283 148.059c11.013-13.268 28.876-13.26 39.883 0l115.776 139.482c22.03 26.541 11.926 48.057-22.572 48.057H716.079c-34.496 0-44.605-21.511-22.572-48.057L809.283 148.059z"/></defs><clipPath id="SVGID_134_"><use xlink:href="#SVGID_133_" overflow="visible"/></clipPath><g clip-path="url(#SVGID_134_)"><defs><rect id="SVGID_135_" x="-0.776" y="-9.403" width="988" height="345"/></defs><clipPath id="SVGID_136_"><use xlink:href="#SVGID_135_" overflow="visible"/></clipPath><g clip-path="url(#SVGID_136_)" enable-background="new    "><defs><rect id="SVGID_137_" x="677.224" y="134.597" width="304" height="201"/></defs><clipPath id="SVGID_138_"><use xlink:href="#SVGID_137_" overflow="visible"/></clipPath><g clip-path="url(#SVGID_138_)"><defs><rect id="SVGID_139_" x="677.224" y="134.597" width="304" height="201"/></defs><clipPath id="SVGID_140_"><use xlink:href="#SVGID_139_" overflow="visible"/></clipPath><rect x="676.845" y="133.11" clip-path="url(#SVGID_140_)" fill="#FF7878" width="304.756" height="207.487"/></g><g clip-path="url(#SVGID_138_)"><defs><rect id="SVGID_141_" x="682.224" y="137.672" width="294" height="43.137"/></defs><clipPath id="SVGID_142_"><use xlink:href="#SVGID_141_" overflow="visible"/></clipPath><g clip-path="url(#SVGID_142_)"><defs><rect id="SVGID_143_" x="677.224" y="134.597" width="304" height="201"/></defs><clipPath id="SVGID_144_"><use xlink:href="#SVGID_143_" overflow="visible"/></clipPath><rect x="677.224" y="132.672" clip-path="url(#SVGID_144_)" fill="#39A4EB" width="304" height="53.137"/></g></g><g clip-path="url(#SVGID_138_)"><defs><rect id="SVGID_145_" x="682.224" y="180.81" width="294" height="48.213"/></defs><clipPath id="SVGID_146_"><use xlink:href="#SVGID_145_" overflow="visible"/></clipPath><g clip-path="url(#SVGID_146_)"><defs><rect id="SVGID_147_" x="677.224" y="134.597" width="304" height="201"/></defs><clipPath id="SVGID_148_"><use xlink:href="#SVGID_147_" overflow="visible"/></clipPath><rect x="677.224" y="175.81" clip-path="url(#SVGID_148_)" fill="#2BDB7A" width="304" height="58.213"/></g></g><g clip-path="url(#SVGID_138_)"><defs><rect id="SVGID_149_" x="682.224" y="229.022" width="294" height="53.287"/></defs><clipPath id="SVGID_150_"><use xlink:href="#SVGID_149_" overflow="visible"/></clipPath><g clip-path="url(#SVGID_150_)"><defs><rect id="SVGID_151_" x="677.224" y="134.597" width="304" height="201"/></defs><clipPath id="SVGID_152_"><use xlink:href="#SVGID_151_" overflow="visible"/></clipPath><rect x="677.224" y="224.022" clip-path="url(#SVGID_152_)" fill="#FFD20D" width="304" height="63.287"/></g></g><g clip-path="url(#SVGID_138_)"><defs><rect id="SVGID_153_" x="682.224" y="282.31" width="294" height="58.362"/></defs><clipPath id="SVGID_154_"><use xlink:href="#SVGID_153_" overflow="visible"/></clipPath><g clip-path="url(#SVGID_154_)"><defs><rect id="SVGID_155_" x="677.224" y="134.597" width="304" height="201"/></defs><clipPath id="SVGID_156_"><use xlink:href="#SVGID_155_" overflow="visible"/></clipPath><rect x="677.224" y="277.31" clip-path="url(#SVGID_156_)" fill="#F65842" width="304" height="68.362"/></g></g></g></g><defs><path id="SVGID_157_" d="M781.49 237.533c-2.563 0-4.64 2.078-4.64 4.632v26.731c0 2.558 2.083 4.632 4.64 4.632 2.563 0 4.64-2.078 4.64-4.632v-26.731C786.13 239.607 784.048 237.533 781.49 237.533z"/></defs><clipPath id="SVGID_158_"><use xlink:href="#SVGID_157_" overflow="visible"/></clipPath><g clip-path="url(#SVGID_158_)"><defs><rect id="SVGID_159_" x="-0.776" y="-9.403" width="988" height="345"/></defs><clipPath id="SVGID_160_"><use xlink:href="#SVGID_159_" overflow="visible"/></clipPath><rect x="771.85" y="232.533" clip-path="url(#SVGID_160_)" fill="#4A4A4A" width="19.28" height="45.996"/></g><defs><path id="SVGID_161_" d="M781.49 237.142c-2.563 0-4.64 2.083-4.64 4.64v6.047c0 2.563 2.083 4.64 4.64 4.64 2.563 0 4.64-2.083 4.64-4.64v-6.047C786.13 239.22 784.048 237.142 781.49 237.142z"/></defs><clipPath id="SVGID_162_"><use xlink:href="#SVGID_161_" overflow="visible"/></clipPath><g clip-path="url(#SVGID_162_)"><defs><rect id="SVGID_163_" x="-0.776" y="-9.403" width="988" height="345"/></defs><clipPath id="SVGID_164_"><use xlink:href="#SVGID_163_" overflow="visible"/></clipPath><rect x="771.85" y="232.142" clip-path="url(#SVGID_164_)" fill="#FFFFFF" width="19.28" height="25.327"/></g><defs><path id="SVGID_165_" d="M877.49 237.533c-2.563 0-4.64 2.078-4.64 4.632v26.731c0 2.558 2.083 4.632 4.64 4.632 2.563 0 4.64-2.078 4.64-4.632v-26.731C882.13 239.607 880.048 237.533 877.49 237.533z"/></defs><clipPath id="SVGID_166_"><use xlink:href="#SVGID_165_" overflow="visible"/></clipPath><g clip-path="url(#SVGID_166_)"><defs><rect id="SVGID_167_" x="-0.776" y="-9.403" width="988" height="345"/></defs><clipPath id="SVGID_168_"><use xlink:href="#SVGID_167_" overflow="visible"/></clipPath><rect x="867.85" y="232.533" clip-path="url(#SVGID_168_)" fill="#4A4A4A" width="19.28" height="45.996"/></g><defs><path id="SVGID_169_" d="M877.49 237.142c-2.563 0-4.64 2.083-4.64 4.64v6.047c0 2.563 2.083 4.64 4.64 4.64 2.563 0 4.64-2.083 4.64-4.64v-6.047C882.13 239.22 880.048 237.142 877.49 237.142z"/></defs><clipPath id="SVGID_170_"><use xlink:href="#SVGID_169_" overflow="visible"/></clipPath><g clip-path="url(#SVGID_170_)"><defs><rect id="SVGID_171_" x="-0.776" y="-9.403" width="988" height="345"/></defs><clipPath id="SVGID_172_"><use xlink:href="#SVGID_171_" overflow="visible"/></clipPath><rect x="867.85" y="232.142" clip-path="url(#SVGID_172_)" fill="#FFFFFF" width="19.28" height="25.327"/></g><defs><path id="SVGID_173_" d="M809.765 250.959c0.502 10.584 3.477 22.91 19.422 22.91 15.945 0 19.108-12.17 19.445-22.91C848.639 250.741 809.749 250.631 809.765 250.959z"/></defs><clipPath id="SVGID_174_"><use xlink:href="#SVGID_173_" overflow="visible"/></clipPath><g clip-path="url(#SVGID_174_)"><defs><rect id="SVGID_175_" x="-0.776" y="-9.403" width="988" height="345"/></defs><clipPath id="SVGID_176_"><use xlink:href="#SVGID_175_" overflow="visible"/></clipPath><g clip-path="url(#SVGID_176_)" enable-background="new    "><defs><rect id="SVGID_177_" x="809.224" y="250.597" width="40" height="24"/></defs><clipPath id="SVGID_178_"><use xlink:href="#SVGID_177_" overflow="visible"/></clipPath><g clip-path="url(#SVGID_178_)"><defs><rect id="SVGID_179_" x="809.224" y="250.597" width="40" height="24"/></defs><clipPath id="SVGID_180_"><use xlink:href="#SVGID_179_" overflow="visible"/></clipPath><rect x="804.765" y="245.752" clip-path="url(#SVGID_180_)" fill="#4A4A4A" width="48.867" height="33.117"/></g><g clip-path="url(#SVGID_178_)"><defs><path id="SVGID_181_" d="M829.187 303.918c9.665 0 17.501-25.556 17.501-35.305 0-9.749-12.251-11.915-17.501-11.915s-17.501 2.166-17.501 11.915C811.686 278.363 819.521 303.918 829.187 303.918z"/></defs><clipPath id="SVGID_182_"><use xlink:href="#SVGID_181_" overflow="visible"/></clipPath><g clip-path="url(#SVGID_182_)"><defs><rect id="SVGID_183_" x="809.224" y="250.597" width="40" height="24"/></defs><clipPath id="SVGID_184_"><use xlink:href="#SVGID_183_" overflow="visible"/></clipPath><rect x="806.686" y="251.698" clip-path="url(#SVGID_184_)" fill="#F65842" width="45.001" height="57.22"/></g></g></g></g><defs><path id="SVGID_185_" d="M660.672 175.807c9.418-11.326 24.693-11.318 34.104 0l98.757 118.766c18.84 22.658 10.225 41.025-19.244 41.025H581.159c-29.469 0-38.088-18.364-19.244-41.025L660.672 175.807z"/></defs><clipPath id="SVGID_186_"><use xlink:href="#SVGID_185_" overflow="visible"/></clipPath><g clip-path="url(#SVGID_186_)"><defs><rect id="SVGID_187_" x="-0.776" y="-9.403" width="988" height="345"/></defs><clipPath id="SVGID_188_"><use xlink:href="#SVGID_187_" overflow="visible"/></clipPath><rect x="546.933" y="162.315" opacity="0.05" clip-path="url(#SVGID_188_)" width="261.581" height="178.282"/></g><defs><path id="SVGID_189_" d="M650.672 175.807c9.418-11.326 24.693-11.318 34.104 0l98.757 118.766c18.84 22.658 10.225 41.025-19.244 41.025H571.159c-29.469 0-38.088-18.364-19.244-41.025L650.672 175.807z"/></defs><clipPath id="SVGID_190_"><use xlink:href="#SVGID_189_" overflow="visible"/></clipPath><g clip-path="url(#SVGID_190_)"><defs><rect id="SVGID_191_" x="-0.776" y="-9.403" width="988" height="345"/></defs><clipPath id="SVGID_192_"><use xlink:href="#SVGID_191_" overflow="visible"/></clipPath><g clip-path="url(#SVGID_192_)" enable-background="new    "><defs><rect id="SVGID_193_" x="537.224" y="163.597" width="261" height="172"/></defs><clipPath id="SVGID_194_"><use xlink:href="#SVGID_193_" overflow="visible"/></clipPath><g clip-path="url(#SVGID_194_)"><defs><rect id="SVGID_195_" x="537.224" y="163.597" width="261" height="172"/></defs><clipPath id="SVGID_196_"><use xlink:href="#SVGID_195_" overflow="visible"/></clipPath><rect x="536.933" y="162.315" clip-path="url(#SVGID_196_)" fill="#FF7878" width="261.581" height="178.282"/></g><g clip-path="url(#SVGID_194_)"><defs><rect id="SVGID_197_" x="542.224" y="166.922" width="251" height="36.762"/></defs><clipPath id="SVGID_198_"><use xlink:href="#SVGID_197_" overflow="visible"/></clipPath><g clip-path="url(#SVGID_198_)"><defs><rect id="SVGID_199_" x="537.224" y="163.597" width="261" height="172"/></defs><clipPath id="SVGID_200_"><use xlink:href="#SVGID_199_" overflow="visible"/></clipPath><rect x="537.224" y="161.922" clip-path="url(#SVGID_200_)" fill="#39A4EB" width="261" height="46.763"/></g></g><g clip-path="url(#SVGID_194_)"><defs><rect id="SVGID_201_" x="542.224" y="203.685" width="251" height="41.088"/></defs><clipPath id="SVGID_202_"><use xlink:href="#SVGID_201_" overflow="visible"/></clipPath><g clip-path="url(#SVGID_202_)"><defs><rect id="SVGID_203_" x="537.224" y="163.597" width="261" height="172"/></defs><clipPath id="SVGID_204_"><use xlink:href="#SVGID_203_" overflow="visible"/></clipPath><rect x="537.224" y="198.685" clip-path="url(#SVGID_204_)" fill="#2BDB7A" width="261" height="51.088"/></g></g><g clip-path="url(#SVGID_194_)"><defs><rect id="SVGID_205_" x="542.224" y="244.772" width="251" height="45.412"/></defs><clipPath id="SVGID_206_"><use xlink:href="#SVGID_205_" overflow="visible"/></clipPath><g clip-path="url(#SVGID_206_)"><defs><rect id="SVGID_207_" x="537.224" y="163.597" width="261" height="172"/></defs><clipPath id="SVGID_208_"><use xlink:href="#SVGID_207_" overflow="visible"/></clipPath><rect x="537.224" y="239.772" clip-path="url(#SVGID_208_)" fill="#FFD20D" width="261" height="55.412"/></g></g><g clip-path="url(#SVGID_194_)"><defs><rect id="SVGID_209_" x="542.224" y="290.185" width="251" height="49.737"/></defs><clipPath id="SVGID_210_"><use xlink:href="#SVGID_209_" overflow="visible"/></clipPath><g clip-path="url(#SVGID_210_)"><defs><rect id="SVGID_211_" x="537.224" y="163.597" width="261" height="172"/></defs><clipPath id="SVGID_212_"><use xlink:href="#SVGID_211_" overflow="visible"/></clipPath><rect x="537.224" y="285.185" clip-path="url(#SVGID_212_)" fill="#F65842" width="261" height="59.737"/></g></g></g></g><defs><path id="SVGID_213_" d="M626.972 252.026c-2.188 0-3.961 1.782-3.961 3.963v22.75c0 2.189 1.778 3.963 3.961 3.963 2.188 0 3.961-1.782 3.961-3.963v-22.75C630.933 253.8 629.155 252.026 626.972 252.026z"/></defs><clipPath id="SVGID_214_"><use xlink:href="#SVGID_213_" overflow="visible"/></clipPath><g clip-path="url(#SVGID_214_)"><defs><rect id="SVGID_215_" x="-0.776" y="-9.403" width="988" height="345"/></defs><clipPath id="SVGID_216_"><use xlink:href="#SVGID_215_" overflow="visible"/></clipPath><rect x="618.01" y="247.026" clip-path="url(#SVGID_216_)" fill="#4A4A4A" width="17.923" height="40.676"/></g><defs><path id="SVGID_217_" d="M626.972 251.692c-2.188 0-3.961 1.775-3.961 3.955v5.153c0 2.184 1.778 3.955 3.961 3.955 2.188 0 3.961-1.775 3.961-3.955v-5.153C630.933 253.463 629.155 251.692 626.972 251.692z"/></defs><clipPath id="SVGID_218_"><use xlink:href="#SVGID_217_" overflow="visible"/></clipPath><g clip-path="url(#SVGID_218_)"><defs><rect id="SVGID_219_" x="-0.776" y="-9.403" width="988" height="345"/></defs><clipPath id="SVGID_220_"><use xlink:href="#SVGID_219_" overflow="visible"/></clipPath><rect x="618.01" y="246.692" clip-path="url(#SVGID_220_)" fill="#FFFFFF" width="17.923" height="23.062"/></g><defs><path id="SVGID_221_" d="M708.931 252.026c-2.188 0-3.961 1.782-3.961 3.963v22.75c0 2.189 1.778 3.963 3.961 3.963 2.188 0 3.962-1.782 3.962-3.963v-22.75C712.892 253.8 711.114 252.026 708.931 252.026z"/></defs><clipPath id="SVGID_222_"><use xlink:href="#SVGID_221_" overflow="visible"/></clipPath><g clip-path="url(#SVGID_222_)"><defs><rect id="SVGID_223_" x="-0.776" y="-9.403" width="988" height="345"/></defs><clipPath id="SVGID_224_"><use xlink:href="#SVGID_223_" overflow="visible"/></clipPath><rect x="699.969" y="247.026" clip-path="url(#SVGID_224_)" fill="#4A4A4A" width="17.923" height="40.676"/></g><defs><path id="SVGID_225_" d="M708.931 251.692c-2.188 0-3.961 1.775-3.961 3.955v5.153c0 2.184 1.778 3.955 3.961 3.955 2.188 0 3.962-1.775 3.962-3.955v-5.153C712.892 253.463 711.114 251.692 708.931 251.692z"/></defs><clipPath id="SVGID_226_"><use xlink:href="#SVGID_225_" overflow="visible"/></clipPath><g clip-path="url(#SVGID_226_)"><defs><rect id="SVGID_227_" x="-0.776" y="-9.403" width="988" height="345"/></defs><clipPath id="SVGID_228_"><use xlink:href="#SVGID_227_" overflow="visible"/></clipPath><rect x="699.969" y="246.692" clip-path="url(#SVGID_228_)" fill="#FFFFFF" width="17.923" height="23.062"/></g><defs><path id="SVGID_229_" d="M651.111 263.467c0.429 9.02 2.968 19.524 16.581 19.524 13.613 0 16.313-10.371 16.601-19.524C684.299 263.281 651.098 263.188 651.111 263.467z"/></defs><clipPath id="SVGID_230_"><use xlink:href="#SVGID_229_" overflow="visible"/></clipPath><g clip-path="url(#SVGID_230_)"><defs><rect id="SVGID_231_" x="-0.776" y="-9.403" width="988" height="345"/></defs><clipPath id="SVGID_232_"><use xlink:href="#SVGID_231_" overflow="visible"/></clipPath><g clip-path="url(#SVGID_232_)" enable-background="new    "><defs><rect id="SVGID_233_" x="650.224" y="262.597" width="35" height="21"/></defs><clipPath id="SVGID_234_"><use xlink:href="#SVGID_233_" overflow="visible"/></clipPath><g clip-path="url(#SVGID_234_)"><defs><rect id="SVGID_235_" x="650.224" y="262.597" width="35" height="21"/></defs><clipPath id="SVGID_236_"><use xlink:href="#SVGID_235_" overflow="visible"/></clipPath><rect x="646.111" y="258.291" clip-path="url(#SVGID_236_)" fill="#4A4A4A" width="43.182" height="29.7"/></g><g clip-path="url(#SVGID_234_)"><defs><path id="SVGID_237_" d="M667.692 308.6c8.252 0 14.941-21.779 14.941-30.087 0-8.308-10.459-10.154-14.941-10.154s-14.941 1.846-14.941 10.154C652.751 286.821 659.44 308.6 667.692 308.6z"/></defs><clipPath id="SVGID_238_"><use xlink:href="#SVGID_237_" overflow="visible"/></clipPath><g clip-path="url(#SVGID_238_)"><defs><rect id="SVGID_239_" x="650.224" y="262.597" width="35" height="21"/></defs><clipPath id="SVGID_240_"><use xlink:href="#SVGID_239_" overflow="visible"/></clipPath><rect x="647.751" y="263.358" clip-path="url(#SVGID_240_)" fill="#F65842" width="39.882" height="50.242"/></g></g></g></g><defs><path id="SVGID_241_" d="M97.047 208.16c7.554-9.049 19.796-9.055 27.354 0l79.025 94.667c15.108 18.098 8.238 32.77-15.33 32.77H33.352c-23.575 0-30.443-14.665-15.33-32.77L97.047 208.16z"/></defs><clipPath id="SVGID_242_"><use xlink:href="#SVGID_241_" overflow="visible"/></clipPath><g clip-path="url(#SVGID_242_)"><defs><rect id="SVGID_243_" x="-0.776" y="-9.403" width="988" height="345"/></defs><clipPath id="SVGID_244_"><use xlink:href="#SVGID_243_" overflow="visible"/></clipPath><g clip-path="url(#SVGID_244_)" enable-background="new    "><defs><rect id="SVGID_245_" x="5.224" y="198.597" width="211" height="137"/></defs><clipPath id="SVGID_246_"><use xlink:href="#SVGID_245_" overflow="visible"/></clipPath><g clip-path="url(#SVGID_246_)"><defs><rect id="SVGID_247_" x="5.224" y="198.597" width="211" height="137"/></defs><clipPath id="SVGID_248_"><use xlink:href="#SVGID_247_" overflow="visible"/></clipPath><rect x="5" y="196.372" opacity="0.05" clip-path="url(#SVGID_248_)" width="211.444" height="144.225"/></g></g></g><defs><path id="SVGID_249_" d="M87.047 208.16c7.554-9.049 19.796-9.055 27.354 0l79.025 94.667c15.108 18.098 8.238 32.77-15.33 32.77H23.352c-23.575 0-30.443-14.665-15.33-32.77L87.047 208.16z"/></defs><clipPath id="SVGID_250_"><use xlink:href="#SVGID_249_" overflow="visible"/></clipPath><g clip-path="url(#SVGID_250_)"><defs><rect id="SVGID_251_" x="-0.776" y="-9.403" width="988" height="345"/></defs><clipPath id="SVGID_252_"><use xlink:href="#SVGID_251_" overflow="visible"/></clipPath><g clip-path="url(#SVGID_252_)" enable-background="new    "><defs><rect id="SVGID_253_" x="0.224" y="198.597" width="206" height="137"/></defs><clipPath id="SVGID_254_"><use xlink:href="#SVGID_253_" overflow="visible"/></clipPath><g clip-path="url(#SVGID_254_)"><defs><rect id="SVGID_255_" x="0.224" y="198.597" width="206" height="137"/></defs><clipPath id="SVGID_256_"><use xlink:href="#SVGID_255_" overflow="visible"/></clipPath><rect x="-5" y="196.372" clip-path="url(#SVGID_256_)" fill="#FF7878" width="211.444" height="144.225"/></g><g clip-path="url(#SVGID_254_)"><defs><rect id="SVGID_257_" x="0.224" y="201.047" width="201" height="29.325"/></defs><clipPath id="SVGID_258_"><use xlink:href="#SVGID_257_" overflow="visible"/></clipPath><g clip-path="url(#SVGID_258_)"><defs><rect id="SVGID_259_" x="0.224" y="198.597" width="206" height="137"/></defs><clipPath id="SVGID_260_"><use xlink:href="#SVGID_259_" overflow="visible"/></clipPath><rect x="-4.776" y="196.047" clip-path="url(#SVGID_260_)" fill="#39A4EB" width="211" height="39.325"/></g></g><g clip-path="url(#SVGID_254_)"><defs><rect id="SVGID_261_" x="0.224" y="230.372" width="201" height="32.775"/></defs><clipPath id="SVGID_262_"><use xlink:href="#SVGID_261_" overflow="visible"/></clipPath><g clip-path="url(#SVGID_262_)"><defs><rect id="SVGID_263_" x="0.224" y="198.597" width="206" height="137"/></defs><clipPath id="SVGID_264_"><use xlink:href="#SVGID_263_" overflow="visible"/></clipPath><rect x="-4.776" y="225.372" clip-path="url(#SVGID_264_)" fill="#2BDB7A" width="211" height="42.775"/></g></g><g clip-path="url(#SVGID_254_)"><defs><rect id="SVGID_265_" x="0.224" y="263.147" width="201" height="36.225"/></defs><clipPath id="SVGID_266_"><use xlink:href="#SVGID_265_" overflow="visible"/></clipPath><g clip-path="url(#SVGID_266_)"><defs><rect id="SVGID_267_" x="0.224" y="198.597" width="206" height="137"/></defs><clipPath id="SVGID_268_"><use xlink:href="#SVGID_267_" overflow="visible"/></clipPath><rect x="-4.776" y="258.147" clip-path="url(#SVGID_268_)" fill="#FFD20D" width="211" height="46.225"/></g></g><g clip-path="url(#SVGID_254_)"><defs><rect id="SVGID_269_" x="0.224" y="299.372" width="201" height="39.675"/></defs><clipPath id="SVGID_270_"><use xlink:href="#SVGID_269_" overflow="visible"/></clipPath><g clip-path="url(#SVGID_270_)"><defs><rect id="SVGID_271_" x="0.224" y="198.597" width="206" height="137"/></defs><clipPath id="SVGID_272_"><use xlink:href="#SVGID_271_" overflow="visible"/></clipPath><rect x="-4.776" y="294.372" clip-path="url(#SVGID_272_)" fill="#F65842" width="211" height="49.675"/></g></g></g></g><defs><path id="SVGID_273_" d="M68.09 268.933c-1.752 0-3.172 1.421-3.172 3.174v18.122c0 1.753 1.424 3.174 3.172 3.174 1.752 0 3.172-1.421 3.172-3.174v-18.122C71.262 270.354 69.838 268.933 68.09 268.933z"/></defs><clipPath id="SVGID_274_"><use xlink:href="#SVGID_273_" overflow="visible"/></clipPath><g clip-path="url(#SVGID_274_)"><defs><rect id="SVGID_275_" x="-0.776" y="-9.403" width="988" height="345"/></defs><clipPath id="SVGID_276_"><use xlink:href="#SVGID_275_" overflow="visible"/></clipPath><rect x="59.917" y="263.933" clip-path="url(#SVGID_276_)" fill="#4A4A4A" width="16.345" height="34.47"/></g><defs><path id="SVGID_277_" d="M68.09 268.667c-1.752 0-3.172 1.427-3.172 3.169v4.082c0 1.75 1.424 3.169 3.172 3.169 1.752 0 3.172-1.427 3.172-3.169v-4.082C71.262 270.086 69.838 268.667 68.09 268.667z"/></defs><clipPath id="SVGID_278_"><use xlink:href="#SVGID_277_" overflow="visible"/></clipPath><g clip-path="url(#SVGID_278_)"><defs><rect id="SVGID_279_" x="-0.776" y="-9.403" width="988" height="345"/></defs><clipPath id="SVGID_280_"><use xlink:href="#SVGID_279_" overflow="visible"/></clipPath><rect x="59.917" y="263.667" clip-path="url(#SVGID_280_)" fill="#FFFFFF" width="16.345" height="20.42"/></g><defs><path id="SVGID_281_" d="M133.722 268.933c-1.752 0-3.172 1.421-3.172 3.174v18.122c0 1.753 1.424 3.174 3.172 3.174 1.752 0 3.172-1.421 3.172-3.174v-18.122C136.895 270.354 135.471 268.933 133.722 268.933z"/></defs><clipPath id="SVGID_282_"><use xlink:href="#SVGID_281_" overflow="visible"/></clipPath><g clip-path="url(#SVGID_282_)"><defs><rect id="SVGID_283_" x="-0.776" y="-9.403" width="988" height="345"/></defs><clipPath id="SVGID_284_"><use xlink:href="#SVGID_283_" overflow="visible"/></clipPath><rect x="125.55" y="263.933" clip-path="url(#SVGID_284_)" fill="#4A4A4A" width="16.345" height="34.47"/></g><defs><path id="SVGID_285_" d="M133.722 268.667c-1.752 0-3.172 1.427-3.172 3.169v4.082c0 1.75 1.424 3.169 3.172 3.169 1.752 0 3.172-1.427 3.172-3.169v-4.082C136.895 270.086 135.471 268.667 133.722 268.667z"/></defs><clipPath id="SVGID_286_"><use xlink:href="#SVGID_285_" overflow="visible"/></clipPath><g clip-path="url(#SVGID_286_)"><defs><rect id="SVGID_287_" x="-0.776" y="-9.403" width="988" height="345"/></defs><clipPath id="SVGID_288_"><use xlink:href="#SVGID_287_" overflow="visible"/></clipPath><rect x="125.55" y="263.667" clip-path="url(#SVGID_288_)" fill="#FFFFFF" width="16.345" height="20.42"/></g><defs><path id="SVGID_289_" d="M87.42 278.06c0.343 7.195 2.377 15.574 13.278 15.574 10.901 0 13.063-8.273 13.294-15.574C113.997 277.912 87.41 277.837 87.42 278.06z"/></defs><clipPath id="SVGID_290_"><use xlink:href="#SVGID_289_" overflow="visible"/></clipPath><g clip-path="url(#SVGID_290_)"><defs><rect id="SVGID_291_" x="-0.776" y="-9.403" width="988" height="345"/></defs><clipPath id="SVGID_292_"><use xlink:href="#SVGID_291_" overflow="visible"/></clipPath><g clip-path="url(#SVGID_292_)" enable-background="new    "><defs><rect id="SVGID_293_" x="87.224" y="277.597" width="27" height="17"/></defs><clipPath id="SVGID_294_"><use xlink:href="#SVGID_293_" overflow="visible"/></clipPath><g clip-path="url(#SVGID_294_)"><defs><rect id="SVGID_295_" x="87.224" y="277.597" width="27" height="17"/></defs><clipPath id="SVGID_296_"><use xlink:href="#SVGID_295_" overflow="visible"/></clipPath><rect x="82.42" y="272.919" clip-path="url(#SVGID_296_)" fill="#4A4A4A" width="36.572" height="25.715"/></g><g clip-path="url(#SVGID_294_)"><defs><path id="SVGID_297_" d="M100.698 314.062c6.608 0 11.965-17.373 11.965-24s-8.375-8.1-11.965-8.1c-3.589 0-11.965 1.473-11.965 8.1S94.09 314.062 100.698 314.062z"/></defs><clipPath id="SVGID_298_"><use xlink:href="#SVGID_297_" overflow="visible"/></clipPath><g clip-path="url(#SVGID_298_)"><defs><rect id="SVGID_299_" x="87.224" y="277.597" width="27" height="17"/></defs><clipPath id="SVGID_300_"><use xlink:href="#SVGID_299_" overflow="visible"/></clipPath><rect x="83.734" y="276.961" clip-path="url(#SVGID_300_)" fill="#F65842" width="33.929" height="42.1"/></g></g></g></g></svg>