<?xml version="1.0" encoding="UTF-8"?>
<svg width="988px" height="345px" viewBox="0 0 988 345" version="1.1" xmlns="http://www.w3.org/2000/svg" xmlns:xlink="http://www.w3.org/1999/xlink">
    <!-- Generator: Sketch 44 (41411) - http://www.bohemiancoding.com/sketch -->
    <title>Artboard Copy 6</title>
    <desc>Created with Sketch.</desc>
    <defs>
        <path d="M279.660315,24.8782185 L484.030758,270.304029 L484.030758,270.304029 C499.050678,288.341256 496.604668,315.139369 478.567441,330.159289 C470.931318,336.518024 461.308465,340 451.371469,340 L42.6305836,340 L42.6305836,340 C19.1584817,340 0.130583587,320.972102 0.130583587,297.5 C0.130583587,287.563005 3.61255976,277.940151 9.97129483,270.304029 L214.341738,24.8782185 L214.341738,24.8782185 C229.361658,6.84099137 256.159771,4.39498086 274.196998,19.4149011 C276.180204,21.0663521 278.008864,22.8950125 279.660315,24.8782185 Z" id="path-1"></path>
        <path d="M25.5077453,9.775 C25.5077453,15.1743445 29.8857635,19.55 35.7108434,19.55 C40.6856651,19.55 45.0636833,15.1743445 45.0636833,9.775 C45.0636833,4.37565546 40.6856651,0 35.7108434,0 C29.8857635,0 25.5077453,4.37565546 25.5077453,9.775 Z" id="path-3"></path>
        <path d="M96.0791738,9.775 C96.0791738,15.1743445 100.454893,19.55 105.432014,19.55 C111.25643,19.55 115.635112,15.1743445 115.635112,9.775 C115.635112,4.37565546 111.25643,0 105.432014,0 C100.454893,0 96.0791738,4.37565546 96.0791738,9.775 Z" id="path-5"></path>
        <path d="M195.856809,17.3923876 L339.012076,189.206317 L339.012076,189.206317 C349.529611,201.829387 347.822737,220.588553 335.199667,231.106088 C329.853414,235.560583 323.11479,238 316.155986,238 L29.8454514,238 L29.8454514,238 C13.4149789,238 0.0954493372,224.68047 0.0954493372,208.249998 C0.0954493372,201.291194 2.53486659,194.55257 6.98936161,189.206317 L150.144629,17.3923876 L150.144629,17.3923876 C160.662164,4.76931783 179.42133,3.06244424 192.0444,13.5799788 C193.427974,14.7327719 194.704016,16.0088136 195.856809,17.3923876 Z" id="path-7"></path>
        <path d="M17.8657487,6.8425 C17.8657487,10.6220412 20.932134,13.685 25.0120482,13.685 C28.4964375,13.685 31.5628227,10.6220412 31.5628227,6.8425 C31.5628227,3.06295882 28.4964375,0 25.0120482,0 C20.932134,0 17.8657487,3.06295882 17.8657487,6.8425 Z" id="path-9"></path>
        <path d="M67.2943201,6.8425 C67.2943201,10.6220412 70.3590949,13.685 73.8450947,13.685 C77.9245444,13.685 80.9913941,10.6220412 80.9913941,6.8425 C80.9913941,3.06295882 77.9245444,0 73.8450947,0 C70.3590949,0 67.2943201,3.06295882 67.2943201,6.8425 Z" id="path-11"></path>
        <path d="M195.856809,17.3923876 L339.012076,189.206317 L339.012076,189.206317 C349.529611,201.829387 347.822737,220.588553 335.199667,231.106088 C329.853414,235.560583 323.11479,238 316.155986,238 L29.8454514,238 L29.8454514,238 C13.4149789,238 0.0954493372,224.68047 0.0954493372,208.249998 C0.0954493372,201.291194 2.53486659,194.55257 6.98936161,189.206317 L150.144629,17.3923876 L150.144629,17.3923876 C160.662164,4.76931783 179.42133,3.06244424 192.0444,13.5799788 C193.427974,14.7327719 194.704016,16.0088136 195.856809,17.3923876 Z" id="path-13"></path>
        <path d="M17.8657487,6.8425 C17.8657487,10.6220412 20.932134,13.685 25.0120482,13.685 C28.4964375,13.685 31.5628227,10.6220412 31.5628227,6.8425 C31.5628227,3.06295882 28.4964375,0 25.0120482,0 C20.932134,0 17.8657487,3.06295882 17.8657487,6.8425 Z" id="path-15"></path>
        <path d="M67.2943201,6.8425 C67.2943201,10.6220412 70.3590949,13.685 73.8450947,13.685 C77.9245444,13.685 80.9913941,10.6220412 80.9913941,6.8425 C80.9913941,3.06295882 77.9245444,0 73.8450947,0 C70.3590949,0 67.2943201,3.06295882 67.2943201,6.8425 Z" id="path-17"></path>
        <path d="M117.711133,10.4148088 L203.830397,113.720249 L203.830397,113.720249 C210.142874,121.29246 209.121658,132.548223 201.549447,138.8607 C198.341169,141.53524 194.296563,143 190.119697,143 L17.8811678,143 L17.8811678,143 C8.02288493,143 0.031167649,135.008283 0.031167649,125.15 C0.031167649,120.973133 1.4959272,116.928527 4.17046744,113.720249 L90.2897318,10.4148088 L90.2897318,10.4148088 C96.6022088,2.84259811 107.857972,1.82138216 115.430183,8.13385917 C116.257782,8.82377664 117.021215,9.5872097 117.711133,10.4148088 Z" id="path-19"></path>
        <path d="M10.7401033,4.11125 C10.7401033,6.38215079 12.5834794,8.2225 15.0361446,8.2225 C17.1308063,8.2225 18.9741824,6.38215079 18.9741824,4.11125 C18.9741824,1.84034921 17.1308063,0 15.0361446,0 C12.5834794,0 10.7401033,1.84034921 10.7401033,4.11125 Z" id="path-21"></path>
        <path d="M40.454389,4.11125 C40.454389,6.38215079 42.2967969,8.2225 44.3924269,8.2225 C46.8448128,8.2225 48.6884682,6.38215079 48.6884682,4.11125 C48.6884682,1.84034921 46.8448128,0 44.3924269,0 C42.2967969,0 40.454389,1.84034921 40.454389,4.11125 Z" id="path-23"></path>
        <path d="M117.711133,10.4148088 L203.830397,113.720249 L203.830397,113.720249 C210.142874,121.29246 209.121658,132.548223 201.549447,138.8607 C198.341169,141.53524 194.296563,143 190.119697,143 L17.8811678,143 L17.8811678,143 C8.02288493,143 0.031167649,135.008283 0.031167649,125.15 C0.031167649,120.973133 1.4959272,116.928527 4.17046744,113.720249 L90.2897318,10.4148088 L90.2897318,10.4148088 C96.6022088,2.84259811 107.857972,1.82138216 115.430183,8.13385917 C116.257782,8.82377664 117.021215,9.5872097 117.711133,10.4148088 Z" id="path-25"></path>
        <path d="M10.7401033,4.11125 C10.7401033,6.38215079 12.5834794,8.2225 15.0361446,8.2225 C17.1308063,8.2225 18.9741824,6.38215079 18.9741824,4.11125 C18.9741824,1.84034921 17.1308063,0 15.0361446,0 C12.5834794,0 10.7401033,1.84034921 10.7401033,4.11125 Z" id="path-27"></path>
        <path d="M40.454389,4.11125 C40.454389,6.38215079 42.2967969,8.2225 44.3924269,8.2225 C46.8448128,8.2225 48.6884682,6.38215079 48.6884682,4.11125 C48.6884682,1.84034921 46.8448128,0 44.3924269,0 C42.2967969,0 40.454389,1.84034921 40.454389,4.11125 Z" id="path-29"></path>
    </defs>
    <g id="Updated-version-with-100px-high-bars" stroke="none" stroke-width="1" fill="none" fill-rule="evenodd">
        <g id="Artboard-Copy-6">
            <g id="pyramid-lg" transform="translate(263.000000, 5.000000)">
                <g id="Pyramid">
                    <path d="M289.660315,24.8782185 L494.030758,270.304029 L494.030758,270.304029 C509.050678,288.341256 506.604668,315.139369 488.567441,330.159289 C480.931318,336.518024 471.308465,340 461.371469,340 L52.6305836,340 L52.6305836,340 C29.1584817,340 10.1305836,320.972102 10.1305836,297.5 C10.1305836,287.563005 13.6125598,277.940151 19.9712948,270.304029 L224.341738,24.8782185 L224.341738,24.8782185 C239.361658,6.84099137 266.159771,4.39498086 284.196998,19.4149011 C286.180204,21.0663521 288.008864,22.8950125 289.660315,24.8782185 Z" id="Mask-Copy-2" fill-opacity="0.05" fill="#000000"></path>
                    <mask id="mask-2" fill="white">
                        <use xlink:href="#path-1"></use>
                    </mask>
                    <use id="Mask" fill="#FF7777" xlink:href="#path-1"></use>
                    <rect id="blue" fill="#39A4EB" mask="url(#mask-2)" x="0" y="9.35" width="494" height="82.6625"></rect>
                    <rect id="green" fill="#2BDB7A" mask="url(#mask-2)" x="0" y="91.8" width="494" height="82.6625"></rect>
                    <rect id="yellow" fill="#FFD20D" mask="url(#mask-2)" x="0" y="174.25" width="494" height="82.6625"></rect>
                    <rect id="red" fill="#F65842" mask="url(#mask-2)" x="0" y="257.55" width="494" height="82.6625"></rect>
                </g>
                <g id="face" transform="translate(176.853701, 192.950000)">
                    <mask id="mask-4" fill="white">
                        <use xlink:href="#path-3"></use>
                    </mask>
                    <use id="Clip-38" fill="#433F4A" xlink:href="#path-3"></use>
                    <mask id="mask-6" fill="white">
                        <use xlink:href="#path-5"></use>
                    </mask>
                    <use id="Clip-41" fill="#433F4A" xlink:href="#path-5"></use>
                    <path d="M80.7745267,18.7 C80.518382,25.3169877 77.2149983,30.6 70.5714286,30.6 C63.9278588,30.6 60.6244752,25.3169877 60.3683305,18.7" id="Stroke-43" stroke="#433F4A" stroke-width="5.95" stroke-linecap="round"></path>
                    <path d="M0,32.6445946 C0,25.2572821 5.7101464,19.55 13.0985719,19.55 C19.7975989,19.55 25.5077453,25.2572821 25.5077453,32.6445946 C25.5077453,39.340281 19.7975989,45.05 13.0985719,45.05 C5.7101464,45.05 0,39.340281 0,32.6445946 Z" id="Clip-46" fill-opacity="0.5" fill="#F65842"></path>
                    <path d="M115.635112,32.6445946 C115.635112,25.2572821 121.345258,19.55 128.733684,19.55 C135.432711,19.55 141.142857,25.2572821 141.142857,32.6445946 C141.142857,39.340281 135.432711,45.05 128.733684,45.05 C121.345258,45.05 115.635112,39.340281 115.635112,32.6445946 Z" id="Clip-49" fill-opacity="0.5" fill="#F65842"></path>
                </g>
            </g>
            <g id="cloud-group-1-copy" transform="translate(613.000000, 93.000000)">
                <path d="M162.50148,119 L71.4985203,119 L25.9970406,119 C16.6098343,119 9,111.390905 9,102 C9,94.3480281 14.0569671,87.8768573 21.0079848,85.7444847 C21.0026706,85.4969665 21,85.2487959 21,85 C21,69.6977677 31.1116723,56.7566094 45.0113058,52.4904004 C45.0037822,52.1611798 45,51.8310327 45,51.5 C45,28.0278981 64.0238709,9 87.4912811,9 L98.5087189,9 C115.739595,9 130.574984,19.2556213 137.243078,34 L148.002959,34 C157.390166,34 165,41.6090949 165,51 L179.005919,51 C197.780331,51 213,66.2181898 213,85 C213,85.2486098 212.997331,85.4965965 212.99202,85.7439328 C219.94467,87.8754677 225,94.3458919 225,102 C225,111.388841 217.386798,119 208.002959,119 L162.50148,119 Z" id="Rectangle-93" fill-opacity="0.05" fill="#000000"></path>
                <path d="M153.50148,110 L62.4985203,110 L16.9970406,110 C7.60983427,110 0,102.390905 0,93 C0,85.3480281 5.05696715,78.8768573 12.0079848,76.7444847 C12.0026706,76.4969665 12,76.2487959 12,76 C12,60.6977677 22.1116723,47.7566094 36.0113058,43.4904004 C36.0037822,43.1611798 36,42.8310327 36,42.5 C36,19.0278981 55.0238709,0 78.4912811,0 L89.5087189,0 C106.739595,0 121.574984,10.2556213 128.243078,25 L139.002959,25 C148.390166,25 156,32.6090949 156,42 L170.005919,42 C188.780331,42 204,57.2181898 204,76 C204,76.2486098 203.997331,76.4965965 203.99202,76.7439328 C210.94467,78.8754677 216,85.3458919 216,93 C216,102.388841 208.386798,110 199.002959,110 L153.50148,110 Z" id="Rectangle-93-Copy-6" fill="#F1FCFF"></path>
            </g>
            <g id="cloud-group-1-copy-2" transform="translate(263.000000, 123.000000) scale(-1, 1) translate(-263.000000, -123.000000) translate(129.000000, 53.000000)">
                <path d="M183.497647,140 L75.0023532,140 L19.9986203,140 C8.95368727,140 0,131.048124 0,120 C0,110.678492 6.37541726,102.846418 15.0048349,100.628437 C15.0016156,100.419344 15,100.209861 15,100 C15,82.078248 26.7869344,66.909329 43.0325556,61.8216718 C43.0109134,61.2171257 43,60.6098402 43,60 C43,32.3857625 65.3777998,10 93.0016404,10 L107.99836,10 C128.503223,10 146.125326,22.3388087 153.840556,39.9999986 L166.00138,40 C177.046313,40 186,48.9518764 186,60 L203.996673,60 C226.089901,60 244,77.9037527 244,100 C244,100.304773 243.996591,100.608749 243.98981,100.911893 C252.109225,103.45644 258,111.038643 258,120 C258,131.045695 249.047953,140 238.00138,140 L183.497647,140 Z" id="Rectangle-93" fill-opacity="0.05" fill="#000000"></path>
                <path d="M193.497647,130 L85.0023532,130 L29.9986203,130 C18.9536873,130 10,121.048124 10,110 C10,100.678492 16.3754173,92.8464182 25.0048349,90.6284369 C25.0016156,90.4193439 25,90.2098611 25,90 C25,72.078248 36.7869344,56.909329 53.0325556,51.8216718 C53.0109134,51.2171257 53,50.6098402 53,50 C53,22.3857625 75.3777998,0 103.00164,0 L117.99836,0 C138.503223,0 156.125326,12.3388087 163.840556,29.9999986 L176.00138,30 C187.046313,30 196,38.9518764 196,50 L213.996673,50 C236.089901,50 254,67.9037527 254,90 C254,90.3047725 253.996591,90.6087489 253.98981,90.9118932 C262.109225,93.4564402 268,101.038643 268,110 C268,121.045695 259.047953,130 248.00138,130 L193.497647,130 Z" id="Rectangle-93-Copy-5" fill="#F1FCFF"></path>
            </g>
            <g id="pyramid-md" transform="translate(104.000000, 107.000000)">
                <g id="Pyramid">
                    <path d="M205.856809,17.3923876 L349.012076,189.206317 L349.012076,189.206317 C359.529611,201.829387 357.822737,220.588553 345.199667,231.106088 C339.853414,235.560583 333.11479,238 326.155986,238 L39.8454514,238 L39.8454514,238 C23.4149789,238 10.0954493,224.68047 10.0954493,208.249998 C10.0954493,201.291194 12.5348666,194.55257 16.9893616,189.206317 L160.144629,17.3923876 L160.144629,17.3923876 C170.662164,4.76931783 189.42133,3.06244424 202.0444,13.5799788 C203.427974,14.7327719 204.704016,16.0088136 205.856809,17.3923876 Z" id="shadow" fill-opacity="0.05" fill="#000000"></path>
                    <mask id="mask-8" fill="white">
                        <use xlink:href="#path-7"></use>
                    </mask>
                    <use id="Mask" fill="#FF7777" xlink:href="#path-7"></use>
                    <rect id="blue" fill="#39A4EB" mask="url(#mask-8)" x="0" y="6.545" width="346" height="57.86375"></rect>
                    <rect id="green" fill="#2BDB7A" mask="url(#mask-8)" x="0" y="64.26" width="346" height="57.86375"></rect>
                    <rect id="yellow" fill="#FFD20D" mask="url(#mask-8)" x="0" y="121.975" width="346" height="57.86375"></rect>
                    <rect id="red" fill="#F65842" mask="url(#mask-8)" x="0" y="180.285" width="346" height="57.86375"></rect>
                </g>
                <g id="face" transform="translate(123.869191, 135.065000)">
                    <mask id="mask-10" fill="white">
                        <use xlink:href="#path-9"></use>
                    </mask>
                    <use id="Clip-38" fill="#433F4A" xlink:href="#path-9"></use>
                    <mask id="mask-12" fill="white">
                        <use xlink:href="#path-11"></use>
                    </mask>
                    <use id="Clip-41" fill="#433F4A" xlink:href="#path-11"></use>
                    <path d="M56.5748709,13.09 C56.3954659,17.7218914 54.0817599,21.42 49.4285714,21.42 C44.7753829,21.42 42.461677,17.7218914 42.2822719,13.09" id="Stroke-43" stroke="#433F4A" stroke-width="4.16500028" stroke-linecap="round"></path>
                    <path d="M0,22.8512162 C0,17.6800975 3.99941428,13.685 9.17430339,13.685 C13.8663344,13.685 17.8657487,17.6800975 17.8657487,22.8512162 C17.8657487,27.5381967 13.8663344,31.535 9.17430339,31.535 C3.99941428,31.535 0,27.5381967 0,22.8512162 Z" id="Clip-46" fill-opacity="0.5" fill="#F65842"></path>
                    <path d="M80.9913941,22.8512162 C80.9913941,17.6800975 84.9908084,13.685 90.1656975,13.685 C94.8577286,13.685 98.8571429,17.6800975 98.8571429,22.8512162 C98.8571429,27.5381967 94.8577286,31.535 90.1656975,31.535 C84.9908084,31.535 80.9913941,27.5381967 80.9913941,22.8512162 Z" id="Clip-49" fill-opacity="0.5" fill="#F65842"></path>
                </g>
            </g>
            <g id="pyramid-md-copy-2" transform="translate(632.000000, 107.000000)">
                <g id="Pyramid">
                    <path d="M205.856809,17.3923876 L349.012076,189.206317 L349.012076,189.206317 C359.529611,201.829387 357.822737,220.588553 345.199667,231.106088 C339.853414,235.560583 333.11479,238 326.155986,238 L39.8454514,238 L39.8454514,238 C23.4149789,238 10.0954493,224.68047 10.0954493,208.249998 C10.0954493,201.291194 12.5348666,194.55257 16.9893616,189.206317 L160.144629,17.3923876 L160.144629,17.3923876 C170.662164,4.76931783 189.42133,3.06244424 202.0444,13.5799788 C203.427974,14.7327719 204.704016,16.0088136 205.856809,17.3923876 Z" id="Mask-Copy-4" fill-opacity="0.05" fill="#000000"></path>
                    <mask id="mask-14" fill="white">
                        <use xlink:href="#path-13"></use>
                    </mask>
                    <use id="Mask" fill="#FF7777" xlink:href="#path-13"></use>
                    <rect id="blue" fill="#39A4EB" mask="url(#mask-14)" x="0" y="6.545" width="346" height="57.86375"></rect>
                    <rect id="green" fill="#2BDB7A" mask="url(#mask-14)" x="0" y="64.26" width="346" height="57.86375"></rect>
                    <rect id="yellow" fill="#FFD20D" mask="url(#mask-14)" x="0" y="121.975" width="346" height="57.86375"></rect>
                    <rect id="red" fill="#F65842" mask="url(#mask-14)" x="0" y="180.285" width="346" height="57.86375"></rect>
                </g>
                <g id="face" transform="translate(123.869191, 135.065000)">
                    <mask id="mask-16" fill="white">
                        <use xlink:href="#path-15"></use>
                    </mask>
                    <use id="Clip-38" fill="#433F4A" xlink:href="#path-15"></use>
                    <mask id="mask-18" fill="white">
                        <use xlink:href="#path-17"></use>
                    </mask>
                    <use id="Clip-41" fill="#433F4A" xlink:href="#path-17"></use>
                    <path d="M56.5748709,13.09 C56.3954659,17.7218914 54.0817599,21.42 49.4285714,21.42 C44.7753829,21.42 42.461677,17.7218914 42.2822719,13.09" id="Stroke-43" stroke="#433F4A" stroke-width="4.16500028" stroke-linecap="round"></path>
                    <path d="M0,22.8512162 C0,17.6800975 3.99941428,13.685 9.17430339,13.685 C13.8663344,13.685 17.8657487,17.6800975 17.8657487,22.8512162 C17.8657487,27.5381967 13.8663344,31.535 9.17430339,31.535 C3.99941428,31.535 0,27.5381967 0,22.8512162 Z" id="Clip-46" fill-opacity="0.5" fill="#F65842"></path>
                    <path d="M80.9913941,22.8512162 C80.9913941,17.6800975 84.9908084,13.685 90.1656975,13.685 C94.8577286,13.685 98.8571429,17.6800975 98.8571429,22.8512162 C98.8571429,27.5381967 94.8577286,31.535 90.1656975,31.535 C84.9908084,31.535 80.9913941,27.5381967 80.9913941,22.8512162 Z" id="Clip-49" fill-opacity="0.5" fill="#F65842"></path>
                </g>
            </g>
            <g id="pyramid-sm" transform="translate(0.000000, 202.000000)">
                <g id="Pyramid">
                    <path d="M127.711133,10.4148088 L213.830397,113.720249 L213.830397,113.720249 C220.142874,121.29246 219.121658,132.548223 211.549447,138.8607 C208.341169,141.53524 204.296563,143 200.119697,143 L27.8811678,143 L27.8811678,143 C18.0228849,143 10.0311676,135.008283 10.0311676,125.15 C10.0311676,120.973133 11.4959272,116.928527 14.1704674,113.720249 L100.289732,10.4148088 L100.289732,10.4148088 C106.602209,2.84259811 117.857972,1.82138216 125.430183,8.13385917 C126.257782,8.82377664 127.021215,9.5872097 127.711133,10.4148088 Z" id="Mask-Copy" fill-opacity="0.05" fill="#000000"></path>
                    <mask id="mask-20" fill="white">
                        <use xlink:href="#path-19"></use>
                    </mask>
                    <use id="Mask" fill="#FF7777" xlink:href="#path-19"></use>
                    <rect id="blue" fill="#39A4EB" mask="url(#mask-20)" x="0" y="3.9325" width="208" height="34.766875"></rect>
                    <rect id="green" fill="#2BDB7A" mask="url(#mask-20)" x="0" y="38.61" width="208" height="34.766875"></rect>
                    <rect id="yellow" fill="#FFD20D" mask="url(#mask-20)" x="0" y="73.2875" width="208" height="34.766875"></rect>
                    <rect id="red" fill="#F65842" mask="url(#mask-20)" x="0" y="108.3225" width="208" height="34.766875"></rect>
                </g>
                <g id="face" transform="translate(74.464716, 81.152500)">
                    <mask id="mask-22" fill="white">
                        <use xlink:href="#path-21"></use>
                    </mask>
                    <use id="Clip-38" fill="#433F4A" xlink:href="#path-21"></use>
                    <mask id="mask-24" fill="white">
                        <use xlink:href="#path-23"></use>
                    </mask>
                    <use id="Clip-41" fill="#433F4A" xlink:href="#path-23"></use>
                    <path d="M34.010327,7.865 C33.9024766,10.6480272 32.5115782,12.87 29.7142857,12.87 C26.9169932,12.87 25.5260948,10.6480272 25.4182444,7.865" id="Stroke-43" stroke="#433F4A" stroke-width="2.49900002" stroke-linecap="round"></path>
                    <path d="M0,13.7299324 C0,10.6229157 2.40427217,8.2225 5.51518817,8.2225 C8.3358311,8.2225 10.7401033,10.6229157 10.7401033,13.7299324 C10.7401033,16.5460593 8.3358311,18.9475 5.51518817,18.9475 C2.40427217,18.9475 0,16.5460593 0,13.7299324 Z" id="Clip-46" fill-opacity="0.5" fill="#F65842"></path>
                    <path d="M48.6884682,13.7299324 C48.6884682,10.6229157 51.0927403,8.2225 54.2036563,8.2225 C57.0242993,8.2225 59.4285714,10.6229157 59.4285714,13.7299324 C59.4285714,16.5460593 57.0242993,18.9475 54.2036563,18.9475 C51.0927403,18.9475 48.6884682,16.5460593 48.6884682,13.7299324 Z" id="Clip-49" fill-opacity="0.5" fill="#F65842"></path>
                </g>
            </g>
            <g id="pyramid-sm-copy" transform="translate(550.000000, 202.000000)">
                <g id="Pyramid">
                    <path d="M127.711133,10.4148088 L213.830397,113.720249 L213.830397,113.720249 C220.142874,121.29246 219.121658,132.548223 211.549447,138.8607 C208.341169,141.53524 204.296563,143 200.119697,143 L27.8811678,143 L27.8811678,143 C18.0228849,143 10.0311676,135.008283 10.0311676,125.15 C10.0311676,120.973133 11.4959272,116.928527 14.1704674,113.720249 L100.289732,10.4148088 L100.289732,10.4148088 C106.602209,2.84259811 117.857972,1.82138216 125.430183,8.13385917 C126.257782,8.82377664 127.021215,9.5872097 127.711133,10.4148088 Z" id="Mask-Copy-3" fill-opacity="0.05" fill="#000000"></path>
                    <mask id="mask-26" fill="white">
                        <use xlink:href="#path-25"></use>
                    </mask>
                    <use id="Mask" fill="#FF7777" xlink:href="#path-25"></use>
                    <rect id="blue" fill="#39A4EB" mask="url(#mask-26)" x="0" y="3.9325" width="208" height="34.766875"></rect>
                    <rect id="green" fill="#2BDB7A" mask="url(#mask-26)" x="0" y="38.61" width="208" height="34.766875"></rect>
                    <rect id="yellow" fill="#FFD20D" mask="url(#mask-26)" x="0" y="73.2875" width="208" height="34.766875"></rect>
                    <rect id="red" fill="#F65842" mask="url(#mask-26)" x="0" y="108.3225" width="208" height="34.766875"></rect>
                </g>
                <g id="face" transform="translate(74.464716, 81.152500)">
                    <mask id="mask-28" fill="white">
                        <use xlink:href="#path-27"></use>
                    </mask>
                    <use id="Clip-38" fill="#433F4A" xlink:href="#path-27"></use>
                    <mask id="mask-30" fill="white">
                        <use xlink:href="#path-29"></use>
                    </mask>
                    <use id="Clip-41" fill="#433F4A" xlink:href="#path-29"></use>
                    <path d="M34.010327,7.865 C33.9024766,10.6480272 32.5115782,12.87 29.7142857,12.87 C26.9169932,12.87 25.5260948,10.6480272 25.4182444,7.865" id="Stroke-43" stroke="#433F4A" stroke-width="2.49900002" stroke-linecap="round"></path>
                    <path d="M0,13.7299324 C0,10.6229157 2.40427217,8.2225 5.51518817,8.2225 C8.3358311,8.2225 10.7401033,10.6229157 10.7401033,13.7299324 C10.7401033,16.5460593 8.3358311,18.9475 5.51518817,18.9475 C2.40427217,18.9475 0,16.5460593 0,13.7299324 Z" id="Clip-46" fill-opacity="0.5" fill="#F65842"></path>
                    <path d="M48.6884682,13.7299324 C48.6884682,10.6229157 51.0927403,8.2225 54.2036563,8.2225 C57.0242993,8.2225 59.4285714,10.6229157 59.4285714,13.7299324 C59.4285714,16.5460593 57.0242993,18.9475 54.2036563,18.9475 C51.0927403,18.9475 48.6884682,16.5460593 48.6884682,13.7299324 Z" id="Clip-49" fill-opacity="0.5" fill="#F65842"></path>
                </g>
            </g>
        </g>
    </g>
</svg>