<?xml version="1.0" encoding="UTF-8" standalone="no"?>
<svg width="1003px" height="642px" viewBox="0 0 1003 642" version="1.1" xmlns="http://www.w3.org/2000/svg" xmlns:xlink="http://www.w3.org/1999/xlink" xmlns:sketch="http://www.bohemiancoding.com/sketch/ns">
    <!-- Generator: Sketch 3.1.1 (8761) - http://www.bohemiancoding.com/sketch -->
    <title>kawaii-ux-pyramid-1000px</title>
    <desc>Created with Sketch.</desc>
    <defs>
        <polygon id="path-1" points="499.756426 -27.2666627 1055.15502 640.311666 -55.6421716 640.311666 "></polygon>
        <path id="path-3" d="M0.0742291283,0.363006086 C1.66403305,33.8083847 11.0837442,72.7553005 61.5763547,72.7552987 C112.068965,72.7552968 122.084127,34.3005188 123.152706,0.363006072 C123.174432,-0.326999699 0.0249346235,-0.674023299 0.0742291283,0.363006086 Z"></path>
    </defs>
    <g id="Page-1" stroke="none" stroke-width="1" fill="none" fill-rule="evenodd" sketch:type="MSPage">
        <g id="kawaii-ux-pyramid-1000px" sketch:type="MSLayerGroup" transform="translate(2.000000, 1.000000)">
            <g id="Pyramid">
                <mask id="mask-2" sketch:name="Mask" fill="white">
                    <use xlink:href="#path-1"></use>
                </mask>
                <use id="Mask" fill="#FF7777" sketch:type="MSShapeGroup" xlink:href="#path-1"></use>
                <rect id="blue" fill="#39A4EB" sketch:type="MSShapeGroup" mask="url(#mask-2)" x="-55.4438524" y="-16.0517292" width="1110.8877" height="164.007707"></rect>
                <rect id="green" fill="#2BDB7A" sketch:type="MSShapeGroup" mask="url(#mask-2)" x="-55.4438524" y="147.03867" width="1110.8877" height="164.007707"></rect>
                <rect id="yellow" fill="#FFD20D" sketch:type="MSShapeGroup" mask="url(#mask-2)" x="-55.4438524" y="310.124424" width="1110.8877" height="164.007707"></rect>
                <rect id="red" fill="#F65842" sketch:type="MSShapeGroup" mask="url(#mask-2)" x="-55.4438524" y="473.207857" width="1110.8877" height="164.007707"></rect>
            </g>
            <g id="eyes---large-2" transform="translate(334.000000, 328.000000)" sketch:type="MSShapeGroup">
                <g id="Rectangle-9-+-Rectangle-13">
                    <rect id="Rectangle-9" fill="#4A4A4A" x="0" y="1.23314066" width="24.1278778" height="113.4283" rx="40"></rect>
                    <rect id="Rectangle-12" fill="#FFFFFF" x="0" y="0" width="24.1278778" height="48.2989812" rx="40"></rect>
                </g>
                <g id="Rectangle-9-+-Rectangle-14" transform="translate(308.384438, 0.000000)">
                    <rect id="Rectangle-9" fill="#4A4A4A" x="0" y="1.23314066" width="24.1278778" height="113.4283" rx="40"></rect>
                    <rect id="Rectangle-12" fill="#FFFFFF" x="0" y="0" width="24.1278778" height="48.2989812" rx="40"></rect>
                </g>
            </g>
            <g id="Mouth-3-+-Oval-8" transform="translate(438.000000, 388.000000)">
                <mask id="mask-4" sketch:name="Mouth 3" fill="white">
                    <use xlink:href="#path-3"></use>
                </mask>
                <use id="Mouth-3" fill="#4A4A4A" sketch:type="MSShapeGroup" xlink:href="#path-3"></use>
                <path d="M61.5763547,167.707129 C92.1832682,167.707129 116.995074,86.9543738 116.995074,56.1482362 C116.995074,25.3420986 78.2019704,18.4971098 61.5763547,18.4971098 C44.9507389,18.4971098 6.15763547,25.3420986 6.15763547,56.1482362 C6.15763547,86.9543738 30.9694412,167.707129 61.5763547,167.707129 Z" id="Oval-8" fill="#F65842" sketch:type="MSShapeGroup" mask="url(#mask-4)"></path>
            </g>
        </g>
    </g>
</svg>