<?xml version="1.0" encoding="utf-8"?>
<!-- Generator: Adobe Illustrator 18.1.0, SVG Export Plug-In . SVG Version: 6.00 Build 0)  -->
<!DOCTYPE svg PUBLIC "-//W3C//DTD SVG 1.1//EN" "http://www.w3.org/Graphics/SVG/1.1/DTD/svg11.dtd">
<svg version="1.1" id="Layer_1" xmlns="http://www.w3.org/2000/svg" xmlns:xlink="http://www.w3.org/1999/xlink" x="0px" y="0px"
	 viewBox="0 0 491.5 293.3" enable-background="new 0 0 491.5 293.3" xml:space="preserve">
<g>
	<defs>
		<path id="SVGID_1_" d="M225.8,9.3c11-12.4,28.9-12.4,40,0l213.7,239.3c22.1,24.7,13.1,44.8-20,44.8H32.1c-33.1,0-42.1-20-20-44.8
			L225.8,9.3z"/>
	</defs>
	<clipPath id="SVGID_2_">
		<use xlink:href="#SVGID_1_"  overflow="visible"/>
	</clipPath>
	<g clip-path="url(#SVGID_2_)" enable-background="new    ">
		<g>
			<defs>
				<rect id="SVGID_3_" x="-0.1" y="-0.8" width="492" height="295"/>
			</defs>
			<clipPath id="SVGID_4_">
				<use xlink:href="#SVGID_3_"  overflow="visible"/>
			</clipPath>
			<g clip-path="url(#SVGID_4_)">
				<defs>
					<rect id="SVGID_5_" x="-0.1" y="-0.8" width="492" height="295"/>
				</defs>
				<clipPath id="SVGID_6_">
					<use xlink:href="#SVGID_5_"  overflow="visible"/>
				</clipPath>
				
					<rect x="-5" y="-5" clip-path="url(#SVGID_6_)" fill-rule="evenodd" clip-rule="evenodd" fill="#FF7878" width="501.5" height="303.3"/>
			</g>
			<g clip-path="url(#SVGID_4_)">
				<defs>
					<rect id="SVGID_7_" x="-8.1" y="-6.8" width="502.2" height="74.2"/>
				</defs>
				<clipPath id="SVGID_8_">
					<use xlink:href="#SVGID_7_"  overflow="visible"/>
				</clipPath>
				<g clip-path="url(#SVGID_8_)">
					<defs>
						<rect id="SVGID_9_" x="-0.1" y="-0.8" width="492" height="295"/>
					</defs>
					<clipPath id="SVGID_10_">
						<use xlink:href="#SVGID_9_"  overflow="visible"/>
					</clipPath>
					
						<rect x="-13.1" y="-11.8" clip-path="url(#SVGID_10_)" fill-rule="evenodd" clip-rule="evenodd" fill="#39A4EB" width="512.2" height="84.2"/>
				</g>
			</g>
			<g clip-path="url(#SVGID_4_)">
				<defs>
					<rect id="SVGID_11_" x="-8.1" y="67" width="502.2" height="74.2"/>
				</defs>
				<clipPath id="SVGID_12_">
					<use xlink:href="#SVGID_11_"  overflow="visible"/>
				</clipPath>
				<g clip-path="url(#SVGID_12_)">
					<defs>
						<rect id="SVGID_13_" x="-0.1" y="-0.8" width="492" height="295"/>
					</defs>
					<clipPath id="SVGID_14_">
						<use xlink:href="#SVGID_13_"  overflow="visible"/>
					</clipPath>
					
						<rect x="-13.1" y="62" clip-path="url(#SVGID_14_)" fill-rule="evenodd" clip-rule="evenodd" fill="#2BDB7A" width="512.2" height="84.2"/>
				</g>
			</g>
			<g clip-path="url(#SVGID_4_)">
				<defs>
					<rect id="SVGID_15_" x="-8.1" y="140.8" width="502.2" height="74.2"/>
				</defs>
				<clipPath id="SVGID_16_">
					<use xlink:href="#SVGID_15_"  overflow="visible"/>
				</clipPath>
				<g clip-path="url(#SVGID_16_)">
					<defs>
						<rect id="SVGID_17_" x="-0.1" y="-0.8" width="492" height="295"/>
					</defs>
					<clipPath id="SVGID_18_">
						<use xlink:href="#SVGID_17_"  overflow="visible"/>
					</clipPath>
					
						<rect x="-13.1" y="135.8" clip-path="url(#SVGID_18_)" fill-rule="evenodd" clip-rule="evenodd" fill="#FFD20D" width="512.2" height="84.2"/>
				</g>
			</g>
			<g clip-path="url(#SVGID_4_)">
				<defs>
					<rect id="SVGID_19_" x="-8.1" y="214.6" width="502.2" height="78.5"/>
				</defs>
				<clipPath id="SVGID_20_">
					<use xlink:href="#SVGID_19_"  overflow="visible"/>
				</clipPath>
				<g clip-path="url(#SVGID_20_)">
					<defs>
						<rect id="SVGID_21_" x="-0.1" y="-0.8" width="492" height="295"/>
					</defs>
					<clipPath id="SVGID_22_">
						<use xlink:href="#SVGID_21_"  overflow="visible"/>
					</clipPath>
					
						<rect x="-13.1" y="209.6" clip-path="url(#SVGID_22_)" fill-rule="evenodd" clip-rule="evenodd" fill="#F65842" width="512.2" height="88.5"/>
				</g>
			</g>
		</g>
	</g>
</g>
<g>
	<defs>
		<path id="SVGID_23_" d="M175.8,148.7c-3.8,0-6.9,3.1-6.9,6.9v37.7c0,3.8,3.1,6.9,6.9,6.9c3.8,0,6.9-3.1,6.9-6.9v-37.7
			C182.6,151.8,179.5,148.7,175.8,148.7z"/>
	</defs>
	<clipPath id="SVGID_24_">
		<use xlink:href="#SVGID_23_"  overflow="visible"/>
	</clipPath>
	
		<rect x="163.9" y="143.7" clip-path="url(#SVGID_24_)" fill-rule="evenodd" clip-rule="evenodd" fill="#4A4A4A" width="23.7" height="61.4"/>
</g>
<g>
	<defs>
		<path id="SVGID_25_" d="M175.8,148.2c-3.8,0-6.9,3.1-6.9,6.9v8.2c0,3.8,3.1,6.9,6.9,6.9c3.8,0,6.9-3.1,6.9-6.9V155
			C182.6,151.2,179.5,148.2,175.8,148.2z"/>
	</defs>
	<clipPath id="SVGID_26_">
		<use xlink:href="#SVGID_25_"  overflow="visible"/>
	</clipPath>
	
		<rect x="163.9" y="143.2" clip-path="url(#SVGID_26_)" fill-rule="evenodd" clip-rule="evenodd" fill="#FFFFFF" width="23.7" height="31.9"/>
</g>
<g>
	<defs>
		<path id="SVGID_27_" d="M315.8,148.7c-3.8,0-6.9,3.1-6.9,6.9v37.7c0,3.8,3.1,6.9,6.9,6.9c3.8,0,6.9-3.1,6.9-6.9v-37.7
			C322.6,151.8,319.5,148.7,315.8,148.7z"/>
	</defs>
	<clipPath id="SVGID_28_">
		<use xlink:href="#SVGID_27_"  overflow="visible"/>
	</clipPath>
	
		<rect x="303.9" y="143.7" clip-path="url(#SVGID_28_)" fill-rule="evenodd" clip-rule="evenodd" fill="#4A4A4A" width="23.7" height="61.4"/>
</g>
<g>
	<defs>
		<path id="SVGID_29_" d="M315.8,148.2c-3.8,0-6.9,3.1-6.9,6.9v8.2c0,3.8,3.1,6.9,6.9,6.9c3.8,0,6.9-3.1,6.9-6.9V155
			C322.6,151.2,319.5,148.2,315.8,148.2z"/>
	</defs>
	<clipPath id="SVGID_30_">
		<use xlink:href="#SVGID_29_"  overflow="visible"/>
	</clipPath>
	
		<rect x="303.9" y="143.2" clip-path="url(#SVGID_30_)" fill-rule="evenodd" clip-rule="evenodd" fill="#FFFFFF" width="23.7" height="31.9"/>
</g>
<g>
	<defs>
		<path id="SVGID_31_" d="M217.9,174.3c0.7,15.1,5,32.8,27.8,32.8c22.8,0,27.4-17.4,27.8-32.8C273.6,174,217.9,173.9,217.9,174.3z"
			/>
	</defs>
	<clipPath id="SVGID_32_">
		<use xlink:href="#SVGID_31_"  overflow="visible"/>
	</clipPath>
	<g clip-path="url(#SVGID_32_)" enable-background="new    ">
		<g>
			<defs>
				<rect id="SVGID_33_" x="217.9" y="173.2" width="56" height="34"/>
			</defs>
			<clipPath id="SVGID_34_">
				<use xlink:href="#SVGID_33_"  overflow="visible"/>
			</clipPath>
			<g clip-path="url(#SVGID_34_)">
				<defs>
					<rect id="SVGID_35_" x="217.9" y="173.2" width="56" height="34"/>
				</defs>
				<clipPath id="SVGID_36_">
					<use xlink:href="#SVGID_35_"  overflow="visible"/>
				</clipPath>
				
					<rect x="212.9" y="169" clip-path="url(#SVGID_36_)" fill-rule="evenodd" clip-rule="evenodd" fill="#4A4A4A" width="65.6" height="43.1"/>
			</g>
			<g clip-path="url(#SVGID_34_)">
				<defs>
					<path id="SVGID_37_" d="M245.7,250.1c13.8,0,25.1-36.6,25.1-50.5c0-13.9-17.5-17-25.1-17s-25.1,3.1-25.1,17
						C220.7,213.5,231.9,250.1,245.7,250.1z"/>
				</defs>
				<clipPath id="SVGID_38_">
					<use xlink:href="#SVGID_37_"  overflow="visible"/>
				</clipPath>
				<g clip-path="url(#SVGID_38_)">
					<defs>
						<rect id="SVGID_39_" x="217.9" y="173.2" width="56" height="34"/>
					</defs>
					<clipPath id="SVGID_40_">
						<use xlink:href="#SVGID_39_"  overflow="visible"/>
					</clipPath>
					
						<rect x="215.7" y="177.5" clip-path="url(#SVGID_40_)" fill-rule="evenodd" clip-rule="evenodd" fill="#F65842" width="60.1" height="77.5"/>
				</g>
			</g>
		</g>
	</g>
</g>
</svg>
