<svg version="1.1" id="Layer_1" xmlns="http://www.w3.org/2000/svg" xmlns:xlink="http://www.w3.org/1999/xlink" x="0px" y="0px" viewBox="0 0 777.6 193.6" style="enable-background:new 0 0 777.6 193.6;" xml:space="preserve">
<style type="text/css">
	.st0{fill:#2569E6;}
</style>
<g>
	<g>
		<path class="st0" d="M298.7,0H29.9C13.4,0,0,13.4,0,29.9v98.6c0,16.5,13.4,29.9,29.9,29.9h194.5l52.7,35.2l-10.6-35.2h32.2
			c16.5,0,29.9-13.4,29.9-29.9V29.9C328.6,13.4,315.2,0,298.7,0z M111.3,88.7c0,22.8-18.7,40-41.1,40c-22.7,0-41.2-17-41.2-40V40.3
			c0-6.8,4.3-10.6,10.2-10.6c5.8,0,10.2,3.8,10.2,10.6v47.3c0,12.5,8,22.4,20.9,22.4C82.6,110,91,99.6,91,87.6V40.3
			c0-6.8,4.3-10.6,10.2-10.6c5.8,0,10.2,3.8,10.2,10.6V88.7z M146.5,128.7c-11,0-27.3-6.2-27.3-15.1c0-3,3-8.7,8.4-8.7
			c7.6,0,11,6.6,20.2,6.6c6,0,7.7-1.9,7.7-5.6c0-9-33.9-7.6-33.9-30c0-13.6,11-22.8,26.5-22.8c9.6,0,24.4,4.5,24.4,14.1
			c0,4.5-3.4,8.7-8,8.7c-3.7,0-11.1-5.7-17.5-5.7c-3.5,0-6.6,1.6-6.6,5.4c0,9.1,33.9,7.7,33.9,30
			C174.4,118.8,163.4,128.7,146.5,128.7z M218.9,111.6c10,0,17-7.9,22.1-7.9c4.2,0,8,4.2,8,8.4c0,8.4-17.4,16.5-31.9,16.5
			c-22,0-36.6-16-36.6-37.6c0-19.8,14.4-37.9,35-37.9c21.2,0,35.1,19.3,35.1,35.5c0,5.8-2.6,8.7-8.5,8.7h-41.6
			C201.8,107.1,209.8,111.6,218.9,111.6z M292,74c-5.8,2.7-11.8,5.3-11.8,13v30c0,6.5-4.1,10.8-9.8,10.8c-5.7,0-9.8-4.3-9.8-10.8
			V63.9c0-6.5,5.2-9.8,10-9.8c5.2,0,9.5,1.9,9.5,8.1h0.3c3.7-5.4,7.6-8.1,13.7-8.1c4.7,0,9.5,3.4,9.5,10.5
			C303.6,70.9,297.8,71.3,292,74z"></path>
	</g>
	<g>
		<path class="st0" d="M215.5,69.6c-8.7,0-14.5,6.6-15.5,14.9h31.1C230,75.9,224.6,69.6,215.5,69.6z"></path>
	</g>
</g>
<g>
	<g>
		<path class="st0" d="M365.2,49.2h-14.8c-6.5,0-9.2-4.7-9.2-9.4c0-4.7,3.4-9.4,9.2-9.4h49.9c5.8,0,9.2,4.6,9.2,9.4
			c0,4.6-2.7,9.4-9.2,9.4h-14.8v68.1c0,6.8-4.3,10.6-10.2,10.6c-5.8,0-10.2-3.8-10.2-10.6V49.2z"></path>
	</g>
	<g>
		<path class="st0" d="M417.6,97.5c1.4,9.6,9.4,14.1,18.5,14.1c10,0,17-7.9,22.1-7.9c4.2,0,8,4.2,8,8.4c0,8.4-17.4,16.5-31.9,16.5
			c-22,0-36.6-16-36.6-37.6c0-19.8,14.4-37.9,35-37.9c21.2,0,35.1,19.3,35.1,35.5c0,5.8-2.6,8.7-8.5,8.7H417.6z M448.2,84.5
			c-1.1-8.5-6.5-14.9-15.6-14.9c-8.7,0-14.5,6.6-15.5,14.9H448.2z"></path>
	</g>
	<g>
		<path class="st0" d="M519.2,76.1c-3.7,0-11.1-5.7-17.5-5.7c-3.5,0-6.7,1.6-6.7,5.4c0,9.1,33.9,7.7,33.9,30c0,13-11,22.9-27.8,22.9
			c-11,0-27.3-6.2-27.3-15.1c0-3,3-8.7,8.4-8.7c7.6,0,11,6.6,20.2,6.6c6,0,7.7-1.9,7.7-5.6c0-9-33.9-7.6-33.9-30
			c0-13.6,11-22.8,26.5-22.8c9.6,0,24.4,4.5,24.4,14.1C527.2,71.9,523.8,76.1,519.2,76.1z"></path>
	</g>
	<g>
		<path class="st0" d="M544,72h-4.3c-5.3,0-8.5-3.3-8.5-8.5c0-4.9,3.7-8.5,8.5-8.5h4.3V43.2c0-6.5,4.1-10.9,9.8-10.9
			c5.7,0,9.8,4.3,9.8,10.9v11.7h5.6c5,0,9.4,2.3,9.4,8.5c0,6.1-4.3,8.5-9.4,8.5h-5.6v45c0,6.5-4.1,10.8-9.8,10.8
			c-5.7,0-9.8-4.3-9.8-10.8V72z"></path>
	</g>
	<g>
		<path class="st0" d="M605.4,35.5c0,6.1-4.9,11.3-11,11.3c-5.8,0-11-5.3-11-11.3c0-5.6,5.2-10.7,11-10.7
			C600.3,24.8,605.4,29.8,605.4,35.5z M584.7,65c0-6.5,4.1-10.9,9.8-10.9c5.7,0,9.8,4.3,9.8,10.9v52.1c0,6.5-4.1,10.8-9.8,10.8
			c-5.7,0-9.8-4.3-9.8-10.8V65z"></path>
	</g>
	<g>
		<path class="st0" d="M614.2,65c0-6.5,4.1-10.9,9.8-10.9c5,0,8.3,2.7,9,7.2c3.8-5.3,9.6-8,18.9-8c15.3,0,26.7,9.8,26.7,26.3v37.4
			c0,6.5-4.1,10.8-9.8,10.8c-5.7,0-9.8-4.3-9.8-10.8V83c0-9.1-5.7-13.4-12.8-13.4c-8,0-12.5,5.8-12.5,13.4v34.1
			c0,6.5-4.1,10.8-9.8,10.8c-5.7,0-9.8-4.3-9.8-10.8V65z"></path>
	</g>
	<g>
		<path class="st0" d="M755.6,121.4c0,23.5-15.3,35.3-37.6,35.3c-8,0-30.8-3.9-30.8-14.7c0-3.7,4.1-8.5,7.9-8.5
			c6.2,0,13.2,6.1,24.4,6.1c9.5,0,16.6-5.6,16.6-15.5v-4.6h-0.3c-4.1,6-10.7,9.2-19.7,9.2c-20.5,0-30.1-18-30.1-37.4
			c0-19.7,12.5-38,32.2-38c6.7,0,14.3,3,17.9,9c1.2-5.2,4.3-8.1,9.8-8.1c5.7,0,9.8,4.3,9.8,10.9V121.4z M720.7,71.2
			c-10.2,0-15.2,10.6-15.2,19.7c0,10.4,5,19.9,15.2,19.9c10.4,0,15.3-9.8,15.3-19.3C736.1,82,731.4,71.2,720.7,71.2z"></path>
	</g>
	<g>
		<g>
			<path class="st0" d="M758.6,61.8c0-5.3,4.3-9.5,9.5-9.5c5.3,0,9.5,4.3,9.5,9.5c0,5.3-4.3,9.5-9.5,9.5
				C762.9,71.3,758.6,67,758.6,61.8z M775.5,61.8c0-4.2-3.4-7.5-7.4-7.5c-4,0-7.4,3.4-7.4,7.5s3.4,7.5,7.4,7.5
				C772.1,69.3,775.5,65.9,775.5,61.8z M765.9,62.7v3.8c0,0.5-0.3,0.8-0.9,0.8c-0.6,0-0.9-0.3-0.9-0.8V57c0-0.4,0.2-0.6,0.6-0.6h3.5
				c2.6,0,4,0.8,4,3.1c0,2-1.2,2.8-2.7,3l2.3,3.6c0.1,0.2,0.3,0.5,0.3,0.7c0,0.3-0.5,0.4-1,0.4c-0.5,0-0.8-0.2-1.1-0.6l-2.5-4H765.9
				z M767.9,61.1c1.3,0,2.6-0.1,2.6-1.7c0-1.3-1.3-1.4-2.4-1.4h-2.2v3.1H767.9z"></path>
		</g>
	</g>
</g>
</svg>