<svg height="9" viewBox="0 0 11 9" width="11" xmlns="http://www.w3.org/2000/svg"><path d="m40.8 9.36228956c0 .16835017-.0645161.33670034-.1806452.45791246l-5.5483871 5.79124578c-.116129.1212121-.2774193.1885522-.4387096.1885522-.1612904 0-.3225807-.0673401-.4387097-.1885522l-3.2129032-3.3535353c-.1161291-.1212122-.1806452-.2895623-.1806452-.4579125s.0645161-.3367003.1806452-.4579125l.8774193-.9158249c.116129-.1212121.2774194-.1885522.4387097-.1885522s.3225806.0673401.4387097.1885522l1.8967742 1.986532 4.232258-4.42424241c.1161291-.12121212.2774194-.18855219.4387097-.18855219s.3225807.06734007.4387097.18855219l.8774193.91582491c.1161291.12121213.1806452.28956229.1806452.45791246z" fill="#80ffb9" fill-rule="evenodd" transform="translate(-30 -7)"/></svg>