<svg height="8" viewBox="0 0 10 8" width="10" xmlns="http://www.w3.org/2000/svg"><path d="m10 1.56228956c0 .16835017-.06451613.33670034-.18064516.45791246l-5.5483871 5.79124579c-.11612903.12121212-.27741935.18855219-.43870968.18855219-.16129032 0-.32258064-.06734007-.43870967-.18855219l-3.21290323-3.35353535c-.11612903-.12121212-.18064516-.28956229-.18064516-.45791246s.06451613-.33670034.18064516-.45791246l.87741936-.91582491c.11612903-.12121212.27741935-.18855219.43870967-.18855219.16129033 0 .32258065.06734007.43870968.18855219l1.89677419 1.98653198 4.23225807-4.42424242c.11612903-.12121212.27741935-.18855219.43870968-.18855219.16129032 0 .32258064.06734007.43870967.18855219l.87741936.91582491c.11612903.12121213.18064516.28956229.18064516.45791246z" fill="#80ffb9" fill-rule="evenodd"/></svg>