<svg height="16" viewBox="0 0 19 16" width="19" xmlns="http://www.w3.org/2000/svg" xmlns:xlink="http://www.w3.org/1999/xlink"><defs><linearGradient id="a" x1="50%" x2="50%" y1="0%" y2="100%"><stop offset="0" stop-color="#ff7f9e"/><stop offset="1" stop-color="#7885ff"/></linearGradient><path id="b" d="m1.8928594 10.142849 5.56250663 5.937507-2.67857462-5.937507zm7.25000864 6.8928653 3.11607516-6.8928653h-6.2321503zm-4.33929089-8.03572384 1.82143075-3.42857551h-2.33928851l-2.57143163 3.42857551zm6.02679295 7.08036554 5.5625066-5.937507h-2.883932zm-4.73214854-7.08036554h6.08929294l-1.8214307-3.42857551h-2.4464315zm7.38393734 0h3.0892894l-2.5714316-3.42857551h-2.3392885zm1.2589301-4.33929088 3.4285755 4.57143402c.1696431.21428597.1517859.52678634-.0357143.73214373l-8.5714388 9.14286807c-.10714299.1160715-.25892888.1785716-.41964336.1785716s-.31250037-.0625001-.41964336-.1785716l-8.57143878-9.14286807c-.18750023-.20535739-.20535739-.51785776-.03571433-.73214373l3.42857551-4.57143402c.10714299-.1517859.27678605-.23214314.45535769-.23214314h10.28572653c.1785717 0 .3482147.08035724.4553577.23214314z"/></defs><g fill="none" fill-rule="evenodd" transform="translate(0 -4)"><use fill="#c496ff" xlink:href="#b"/><use fill="url(#a)" xlink:href="#b"/></g></svg>