<svg height="12" viewBox="0 0 20 12" width="20" xmlns="http://www.w3.org/2000/svg"><path d="m9.75 3.26313972v-2.26313972c0-.55228475.4477153-1 1-1 .1755367 0 .3479808.04620626.5.1339746l8.25 4.76313972c.4782926.27614237.6421678.88773278.3660254 1.3660254-.0877683.15201921-.2140062.27825707-.3660254.3660254l-8.25 4.76313968c-.4782926.2761424-1.089883.1122673-1.3660254-.3660254-.08776834-.1520192-.1339746-.3244633-.1339746-.5v-2.26313968h-8.75c-.55228475 0-1-.44771525-1-1v-3c0-.55228475.44771525-1 1-1z" fill="#7FFFB9" fill-rule="evenodd"/></svg>