<svg height="72" viewBox="0 0 84 72" width="84" xmlns="http://www.w3.org/2000/svg"><g fill="none" fill-rule="evenodd"><path d="m42 72c.75 0 1.5-.28125 2.0625-.84375l29.203125-28.125c.421875-.421875 10.734375-9.84375 10.734375-21.09375 0-13.734375-8.390625-21.9375-22.40625-21.9375-8.203125 0-15.890625 6.46875-19.59375 10.125-3.703125-3.65625-11.390625-10.125-19.59375-10.125-14.015625 0-22.40625 8.203125-22.40625 21.9375 0 11.25 10.3125 20.671875 10.6875 21l29.25 28.21875c.5625.5625 1.3125.84375 2.0625.84375z" fill="#ff7f9e" fill-rule="nonzero"/><g transform="translate(28.35 26.47)"><ellipse cx="24.15" cy="4.235" fill="#48554a" fill-rule="nonzero" rx="3.15" ry="4.235"/><ellipse cx="3.15" cy="4.235" fill="#48554a" fill-rule="nonzero" rx="3.15" ry="4.235"/><path d="m0 0c.24054582 2.82352942 1.64054582 4.23529412 4.2 4.23529412s3.95945418-1.4117647 4.2-4.23529412" opacity=".75" stroke="#48554a" stroke-linecap="round" stroke-width="2.1" transform="translate(9.45 7.412)"/></g><g fill="#ff5f80" fill-rule="nonzero"><ellipse cx="24.15" cy="39.176" opacity=".5" rx="5.25" ry="5.294"/><ellipse cx="59.85" cy="39.176" opacity=".5" rx="5.25" ry="5.294"/></g></g></svg>