<svg height="260" viewBox="0 0 440 260" width="440" xmlns="http://www.w3.org/2000/svg" xmlns:xlink="http://www.w3.org/1999/xlink"><defs><rect id="a" height="260" rx="5" width="440"/><linearGradient id="b" x1="0%" y1="0%" y2="100%"><stop offset="0" stop-color="#ff7f9e"/><stop offset=".53996" stop-color="#fffd7f"/><stop offset="1" stop-color="#7ff6ff"/></linearGradient><linearGradient id="c" x1="0%" y1="0%" y2="100%"><stop offset="0" stop-color="#7ff6ff"/><stop offset=".56975" stop-color="#7885ff"/><stop offset="1" stop-color="#ff7f9e"/></linearGradient><path id="d" d="m20 20h400v220h-400z"/><mask id="e" fill="#fff"><use fill="none" xlink:href="#d"/></mask></defs><g fill="none" fill-rule="evenodd"><g fill="#f3f4f3"><use xlink:href="#a"/><use xlink:href="#a"/></g><use fill="url(#b)" xlink:href="#d"/><use fill="url(#c)" xlink:href="#d"/><g mask="url(#e)"><g transform="matrix(.99756405 -.06975647 .06975647 .99756405 192.649156 10.590032)"><path d="m29.2648396 219.203941c-1.4969504 1.38311-2.6240439 3.344703-3.5177083 5.03892-1.7247472 3.269738-3.5665219 6.688158-4.5340325 10.261506-1.3786712 5.087023-2.1459209 10.422682-3.2091812 15.589043-.2309259 1.121982-.4631034 2.249585-.8673802 3.322214-.8886578 2.357661-2.6578379 4.225547-4.525271 5.851046-3.53648272 3.08045-3.99457958 9.230732-2.3336656 13.323215.8123084 2.00095 2.1183851 3.788249 3.7342404 5.218838 1.4619048 1.293152 3.3587512 2.167123 4.5790912 3.723903 1.1846685 1.511801 2.0464163 2.553819 4.0521546 3.011733 1.6258684.371703 3.3318411.363582 4.9214122.867099.8874062.28112 1.7222439.717793 2.6240439.949561 1.6383846.42043 3.1628709-.27175 4.379456-1.349376 4.8050105-4.255533 3.5020629-9.382538 3.2592465-15.447234-.2046416-5.11701 1.7741867-9.474995 4.1510335-13.873586 2.8218015-5.222586 5.6204479-10.45954 8.2726535-15.769585 2.4963776-4.99769 3.1146832-10.953686.081356-15.977614-2.2785938-3.77388-6.4290014-5.963493-10.7289789-6.571337-2.7704847-.391069-6.0966935-.654697-8.6844401.657821-.5970278.30236-1.1471196.705299-1.65403 1.173833" fill="#d1a882"/><path d="m89.7520242 193.472722s31.0011278.588625 36.4410728 2.547789c5.642186 2.031725 9.824358 2.171844 14.070198 6.974673 5.239575 5.928785 8.290688 9.228462 12.442273 18.581405 1.684729 3.793847 2.956234 6.655026 3.79142 10.477648l-29.455597 8.553514s8.230139 20.627517 11.19636 26.14783 4.606007 21.466355 4.122872 23.959723c-.722829 3.728166-6.421194 7.643366-15.319232 8.917573-8.898663 1.273581-16.949656-1.274207-23.729767 0-6.779488 1.273581-10.5933789 5.945049-26.2721534 3.82137-15.6781503-2.123053-19.9807936-2.547789-26.7602812-4.246106s-6.7239334-2.057998-11.3854943-3.331579c-4.6596884-1.274207-6.6665066-1.07779-7.7519986-2.134313-4.8226058-4.696488-1.58548-28.836989 0-34.463642 3.539865-12.560042 6.2451683-16.196255 9.4567017-28.862011 0 0-14.2861737-6.784512-14.3067725-6.79452-1.4537728-.690587 12.6682351-20.675058 13.7587207-22.045597 1.1379253-1.429339 2.3220417-2.856801 3.8213814-3.898311 6.7782392-4.710875 19.1662064-3.69251 27.0574026-4.205446 6.5341752-.424736 18.8228938 0 18.8228938 0" fill="#e25252"/><path d="m88.5184762 221.292769c16.2613398 5.496783 34.1632288 4.714809 50.8064698.498353 3.85582-.976847 7.704152-2.136776 11.560596-3.243952-2.90731-6.692708-6.476081-10.638575-10.919728-15.628316-4.243961-4.765079-8.424895-4.904096-14.065413-6.920473-5.438959-1.943144-36.4302941-2.527143-36.4302941-2.527143s-12.2850839-.421397-18.8179504 0c-4.2714177.275553-9.8582697.111711-15.1611926.639854 6.7013519 12.807002 19.1655296 22.496037 33.0275123 27.181677" fill="#af4e4e"/><path d="m73.0423241 248.044636c-.8166996-.751088 3.9336449-9.366619 5.756858-9.091694 1.8232132.274305 4.3869506 6.756077 5.9959986 11.017402-.4770325.936848-10.936157-1.17462-11.7528566-1.925708m25.6105238 1.244529c-1.4883335-5.483169-3.1651268-10.914242-5.0260116-16.280668-.4873746-1.404057-1.0540022-2.937411-2.2009862-3.941027-1.4371623-1.258442-3.3323693-1.049434-5.1133771-1.094625-2.6877368-.068414-5.3174379-.866788-7.9708525-1.232709-2.4031749-.3314-5.1732848-.719917-7.2606959.791469-1.3279554.960308-2.2696305 2.367504-3.02659 3.82554-1.9626033 3.779093-2.8275216 7.983107-4.0475182 12.033346-1.1544725 3.833071-2.9348563 6.95313-4.9043239 10.41212-2.2964642 4.035175-4.7102478 7.997543-7.1727064 11.931039-.0967261.15503-.1971964.325751-.1772272.507143.0180972.156913.1235598.288092.2290224.404835 1.9245369 2.12523 5.3149418 2.275239 7.9852054 2.314781 1.8072175.026989 4.10805.14185 5.8347664-.523462 1.4377863-.554844 2.3332825-8.285635 4.1848068-9.47378 1.3997199-.89817 4.0843364-.425548 5.6213449-.320103 2.7482686.188923 5.445366.635812 8.1449595 1.156135.7750566.149381 1.5725787.431197 2.0761783 1.041903 1.7610386 2.135272.3781678 6.676963 2.6864887 8.417442 1.879606 1.417866 6.0956148.923276 8.2260845.671588 1.6062769-.190179 3.4066302-.515303 4.7632912-1.46494 2.161048-1.512642 1.266799-3.368609.678331-5.601168-1.190667-4.519095-2.3064493-9.068945-3.5301901-13.574859" fill="#f9f9f9" opacity=".5"/><path d="m126.662794 240.583597c-.096854 1.090473-.156457 2.179062-.128518 3.258857.135348 5.297213.921982 10.658498 1.380179 15.941264.099338 1.147635.198676 2.300924.119206 3.450443-.185638 2.692892-1.545329 5.304752-2.985112 7.536579-2.529397 3.918417-4.007673 8.513984-4.088385 13.191838-.019868 1.128791.073883 2.353061.804018 3.207349 2.393428 2.801562 5.975189 1.04399 7.072255-2.129438.351409-1.018864.196193-4.226213 1.4522-4.626346.774216-.246236 1.621074 1.26824 1.780015 1.470506.524009.665214.768008 1.518245.829474 2.356201.082574 1.138841-.12231 2.278939-.139074 3.420921-.040356 2.810356 1.781878 3.924699 3.696 5.57046 1.543467 1.326658 3.291818 1.680937 5.245675 1.14575 1.716688-.470486 3.165783-.409555 4.929035-.332292 0 0 1.500006.121233 1.504973.121233.458818.037061 1.519874-.383801 1.932127-.587951.853066-.422747 1.491314-1.226783 1.981796-2.028306 3.35825-5.479377 2.199098-12.922989.24462-18.695714-1.649013-4.872582-1.00642-9.639634.002484-14.559327 1.727862-8.422902 4.770093-17.595191 3.085691-26.22978.052152.267593-26.00114 7.70241-28.718659 8.517753" fill="#e0c19d"/><path d="m150.697938 267.885356c.222438.389852.516353.729098.78747 1.085837-.453504-3.592384.089345-7.162278.837379-10.817139 1.714811-8.377441 4.734061-17.500224 3.062383-26.08821.012939.066849-1.637173.592275-4.14808 1.350736.349986 4.796303-.369704 9.597603-1.300743 14.287696-1.356814 6.837401-2.981047 13.626071.761591 20.18108" fill="#d1a882"/><path d="m37.396987 10.5590928c-2.0145126-1.80836766-5.8886226 1.3069452-7.3898248 2.5789221-2.6194197 2.2186223-4.6050394 4.5334078-5.5062525 7.9709298-1.2073552 4.6058424-1.1624789 9.9366555.8231408 14.3002166.4026566.8848263 1.5116529 3.8989805 2.7755643 3.9963926.7001922.0537015 1.654888-1.074655 2.2038535-1.4149728 1.8817281-1.1664471 4.1021796-1.5991814 6.2771401-1.7328108 1.396696-.0861722 3.5230918-.1423715 4.7630283-.6987443.7573633-.3409422 1.2928044-1.1096234.9460894-1.7490462-.1844229-.3403178-.5723257-.5776036-.9528516-.7880386-2.0347991-1.127732-4.3640601-1.9882053-5.9636212-3.501839-1.5915695-1.5048916-2.28377-3.5168255-2.3870468-5.4900443-.1395467-2.6950672 1.2239531-5.3139532 2.2727046-7.7105399.2704869-.6194409 2.8198259-5.1478532 2.1380759-5.7604252" fill="#876c51"/><path d="m42.3975904 26.9781748s-11.3464332-3.126235-21.9549985 3.7730852c-13.23917001 8.6094776-19.30379357 22.3400614-17.69509208 38.1292025.89455538 8.7824288 3.53077826 17.2876361 5.05333275 25.9832771 1.0730919 6.1282194.93700462 12.4362584.39577677 18.6113064-.49440884 5.642458-2.48952329 11.648925-2.0469275 17.289509.84274234 10.736716 8.43241736 24.329314 15.72057796 31.984749 5.6813319 5.968381 19.3175271 10.518186 19.3175271 10.518186s-23.2596885-34.246852-21.916919-47.198843c1.3427694-12.952615 3.2779556-21.495909 4.1512863-31.1218659.8733308-9.6259565-4.6731623-15.6074486-2.8946638-28.0087426 1.7778742-12.4012939 1.1461295-14.9474865 8.8762616-23.1967009 7.7307564-8.24859 12.9938384-16.7631628 12.9938384-16.7631628m109.7572976 151.5119912c-.486751.727114 7.128617 3.151035 7.808572 3.349851 3.574903 1.046594 7.427149 1.090358 11.012647.066272 2.113407-.603324 9.945662-2.225106 9.7375-5.156069-.086007-1.125995-4.843197-.453899-5.498845-.432642-1.593625.051892-3.119316-.412011-4.014288-1.849358-.764092-1.227278-.863811-2.777787-1.855385-3.873772 3.926411 2.080683 8.213054 2.28325 12.569501 1.763704 2.130857-.253833 4.360186-.544554 6.44056-1.085982 1.479572-.385751 1.730737-2.358274.029916-2.927211-1.464614-.488911-2.841974-.92718-4.161996-1.764955-3.424703-2.173214-5.415954-4.090719-8.081551-7.082327.747888.835275 4.234292-.432016 5.152324-.677722 2.122132-.569562 4.151401-1.455478 5.812958-2.927837 5.570518-4.935996 2.069779-13.428786.837011-19.661459l-4.373274-18.60111-4.42438-3.160413s-9.696988 25.810353-13.803515 38.209426c-4.104035 12.392196-13.176537 25.795349-13.187755 25.811604m47.65355-64.02103s-1.53138 2.985359-1.34437 7.012037c.18763 4.026058.511492 6.997187 4.60219 8.263722 6.639489 2.054793 4.296905 4.138048-2.720939 6.141487-7.017845 2.003439-6.051211 3.374539-9.559824 1.3711-3.508612-2.003439 9.022943-22.788346 9.022943-22.788346" fill="#876c51"/><path d="m29.4928671 40.6093154c9.4509515-9.6676914 22.5780704-16.3366804 35.0081465-19.6646153 39.3950854-10.5473107 96.6986164-5.3077031 117.5967944 36.9196484 9.298064 18.7874948 5.053404 41.0066297.95352 60.7493365-4.537954 21.857416-12.925557 50.322598-29.764413 65.762167-11.361111 10.417367-26.638017 15.599499-41.076849 20.074438-7.585723 2.350233-15.3549103 4.595511-23.2944584 4.466192-10.8743665-.177423-21.2307872-4.817915-30.3659789-10.725983-11.5545604-7.472392-24.5905708-16.122399-33.114836-27.045172-14.5031076-18.583833-12.4456769-26.246142-9.9270873-48.324088 1.3060972-11.450045 2.6596207-39.9795743 3.0502642-51.5133331.3762908-11.1051943 2.8243649-22.4021807 10.9348975-30.6985905" fill="#e0c19d"/><path d="m182.105238 58.1003916c-2.6381-5.350826-5.860159-10.1053759-9.550258-14.3143834 2.360143 15.2344774 1.199703 31.4360244-.032407 46.4600514-2.145754 26.1628644-7.516683 60.4963394-23.211911 80.4127114-10.589792 13.438133-25.868708 21.137109-40.360494 27.915991-7.612659 3.561372-15.4291121 7.017518-23.702387 7.701482-5.8165329.481029-11.6268335-.449713-17.2869376-2.263594 6.6510274 3.218763 13.7432961 5.409075 21.0823609 5.529333 7.9298794.129652 15.6883727-2.121415 23.2642617-4.477708 14.420739-4.486476 29.677219-9.68197 41.024225-20.126196 16.816405-15.479376 25.193135-44.01795 29.72583-65.931095 4.093947-19.7942353 8.333727-42.0706578-.952283-60.9065924m-14.385358-35.618803s-10.910429-11.3453035-20.718919-13.43565384c-9.809113-2.09035036-18.245473-7.26672289-27.125099-6.45910167-8.879625.80699853-17.985864 3.20682287-24.9143746 4.42915166-6.9285109 1.2223288-6.9720904-.79579022-20.6952611.81882953-13.7237932 1.61461975-16.5489871 3.48578532-23.4108837 6.58737462-6.8612741 3.1015892-3.4782632 2.6333308-6.380655 4.8986554-2.9030143 2.2659473-3.7957706 5.0773658-6.2524068 7.0213854-2.455391 1.9440196-7.9264805 9.7032856-10.3644397 13.8111323-.9693317 1.6339229-.1743179 3.3954961 1.34536 4.3650152.918904.5859456 1.9890909.8773618 3.0406009 1.1650418 6.5636887 1.7958208 13.0439538 3.9135693 19.6842177 5.4192193 6.9633746 1.5803721 14.0257367 2.5162663 21.1484875 2.9770525.6393729.0417198 1.2793683.0797035 1.9193637.1145738 12.6673028.6992742 25.6832411-.0678725 37.6538951-4.5866907 13.268699-5.0082478 17.911156-8.0288882 30.813166-13.3995381 2.559981-1.0660351 5.469844-1.5243306 8.121965-.7135959.882173.2702449 1.749404.679971 2.672043.670008 3.005738-.0311342 6.219411-4.9167133 8.464376-6.6035644 3.583476-2.6937312 4.768215-4.0082172 4.998564-7.0792949" fill="#d1a882"/><path d="m185.434057 92.5076629c-.421943-.527555-2.006092-1.0089098-2.60612-1.4915133-2.748835-2.2138578-9.808317-.498836-9.808317-6.045967 0-15.4120961-2.897137-24.6745873-8.764009-34.0800491-.778113-1.2474021-9.63954-14.9288683-10.252599-14.4443918 0 0 4.929289-3.8957904 10.048453-3.9188904s12.388377 3.8595795 21.382592 16.5658495c8.994216 12.7068943 6.187673 19.9322118 6.187673 31.320531 0 11.3883191-2.629699 16.5415007-2.629699 16.5415007s-3.556112-4.4451966-3.557974-4.4470696m-103.6628322 46.2917761c-.6995862-4.187304 2.6103778-9.465466 7.1072732-8.597865 2.928428.564963 12.364751 6.106072 9.8290618 10.277872-.1991704.328064-.5315361.55132-.8676363.738608-3.4462712 1.920008-10.346905 1.719077-13.9948363.27535-1.2317448-.487444-1.8715799-1.482797-2.0738624-2.693965" fill="#d1a882"/><path d="m50.503012 119.710596c-7.5434396-1.632904-12.2545451-1.202889-18.0813253 3.515741m97.8885543 3.381171c7.538661-1.654128 12.248322-1.230455 18.081325 3.499488m-72.9487949 62.573473c7.4340713-2.628796 12.2498573-2.801562 18.7048193 1.228996" stroke="#d1a882" stroke-linecap="round" stroke-linejoin="round" stroke-width="4.595"/><path d="m169.590361 25.1434098c0-3.3651418-2.126757-6.4760145-4.337663-8.8265912-5.798095-6.1646133-14.100679-11.68821734-22.163908-14.2723449-7.636258-2.4466339-15.828514-2.10258581-23.736538-1.90796007-11.9814.2944499-23.5769676 4.0161963-35.5427854 4.45316248-12.9282193.4727522-26.2634646 1.48543387-36.9776617 9.53854469-8.2284086 6.1853316-14.9003945 15.3415309-20.0895091 24.1455204-2.439663 4.1398778-.8402314 4.9623285 2.4832952 5.416246 12.9737215 1.7723498 18.0730784 3.0148155 29.8494078 3.8159201 20.5937725 1.4013053 43.4258772 1.3441733 62.3217332-8.1774202 2.84295-1.4326965 8.120575-5.4514042 10.544655-7.5232265 3.979256-3.4015557 9.097313-3.7474873 14.014661-2.4981156 1.570136.3992967 3.094146.9869409 4.521542 1.7591656 1.404957.7596682 2.397278 1.8244593 3.654508 2.786915.130897.100452.278.2027875.443179.1965092.134636-.0050226.25556-.0828729.367133-.1607232 1.16685-.8180559 1.957839-1.9600695 2.928344-2.9809129 1.876808-1.9732539 11.719607-1.079859 11.719607-5.7646889" fill="#876c51"/><path d="m166.710072 43.5403556c-.33905-.4208857-.684993-.8355175-1.039083-1.2438955-2.619015-3.0243733-6.811067-8.2632433-11.044483-8.2932619.280765-1.1244465 1.325488-3.0937913 2.167158-3.9361881 3.356024-3.356454 11.469391-6.5034032 15.993599-4.3276806 4.803094 2.3095556 9.352371 3.4971662 13.558211 6.2050935 4.44775 2.8630234 8.043176 6.3032793 11.050123 10.7322727 6.827362 10.0562289 7.850777 20.8566688 7.261671 32.6233321-.367251 7.3464254-1.062271 14.6096744-.718208 21.9717345.287659 6.1625667 4.155077 12.7585277 2.757517 18.8729397-.793412 3.473402-3.319674 6.115038-5.340809 8.923653-2.635936 3.661017-4.274778 7.63723-6.075312 11.727264-2.422228 5.503409-5.21296 8.506519-11.026935 10.198192-6.638722 1.931821-16.54761-1.066911-16.411614-2.658522.131609-1.539079 2.598333-1.661029 3.705727-1.861778 1.983532-.357722 3.469458-.903685 4.780532-2.544702 1.404454-1.758589 1.667671-4.524052 3.184933-6.059378-.990827 1.002496-4.065458 1.021258-5.441083 1.135704-.614175.050656-1.568651-.040651-1.395053-.877419.189266-.913065 1.184479-1.410874 1.994813-1.626632 1.015894-.270793 1.935275-.530329 2.761277-1.21075 1.173825-.967475 1.897673-2.33207 2.630922-3.634126.357851-.634769.807201-1.241394 1.074179-1.918689.327768-.83239.574691-1.690422.767091-2.569717.169211-.772353 1.384399-4.664764-.69126-3.607859-.432429.219511-.75017.607876-1.136222.901183-.809081.616007-3.854884.315195-3.934476-1.018131-.026948-.451529 1.073552-.849276 1.371238-.999369.842923-.425263 1.734729-.813629 2.487406-1.388985 6.280872-4.807978 6.184986-14.990535 5.353344-22.0155116-.812841-6.8680041-3.696327-13.2181875-5.644763-19.7953864-2.066258-6.97432-3.199974-13.9611477-6.255177-20.6559195-1.794267-3.9305596-4.031616-7.6778807-6.745263-11.0474679" fill="#876c51"/><path d="m161.48494 21.8930041s-2.547415-2.391632-3.367717-3.440247c-2.714836-3.4698723-6.169063-5.9985217-10.032819-8.1043923-5.733395-3.12486012-11.746241-4.75549028-18.20409-5.69979919-6.76593-.98812978-13.651979-1.15724131-20.458986-.51350654-3.521445.3332855-7.021106.88382376-10.4722218 1.6516148-3.0303845.67459453-7.2476541 1.31277454-9.7894676 2.91254492 13.3656824-.22836228 25.5699974-2.4224918 37.4301344-.79926799 6.265533.85790155 12.475674 2.1484571 18.519639 4.0031291 6.060146 1.8602269 16.375528 9.9899242 16.375528 9.9899242m-6.939616 6.0625029c.026852.0173839.054329.0353886.081182.0527724-5.308707-2.0376367-11.961296-4.5198035-18.143027-4.4906234-8.506671.0409762-13.388234 3.921302-18.969839 7.3657896-19.8085165 12.222095-53.420546 15.959004-77.5979266 8.2933427-2.5822262-.8189039-5.113245-1.8544853-6.8705327-3.4159284 6.6644542 1.0753159 13.3114228 2.2481056 20.0389495 3.1148152 18.7587648 2.4076645 39.4003377-1.7570116 55.1516048-8.8769438 6.518326-2.9465642 12.756885-6.5518525 20.328084-7.7171919 9.21171-1.4180263 19.056642 1.1746522 25.981505 5.6739676" fill="#b58657"/><path d="m151.509036 21.4951399c-7.471369-3.8420269-15.131097-5.3069094-21.079377-6.1596489-7.542471-1.0814316-12.942514-1.2700242-20.579165-1.494957-15.5271502-.4567576-33.1094102.9511085-47.3872781 7.1320602-10.3609969 4.4848709-13.2132024 6.2442336-15.8315184 8.4183747-2.6176923 2.1741412 5.3301878-1.6089897 20.4113884-5.8382268 15.0812007-4.2298637 21.9588019-4.0619473 38.7408481-5.2141795 17.796191-1.2217796 35.674087 1.1910785 45.725102 3.1565773m23.069277 9.7805803c19.224188 8.2833316 30.037084 25.6991685 22.549583 46.9135802-.254295-3.0383621-.116105-4.3572253-.339481-6.4481211-.372292-3.4881442-.45243-7.0285453-1.285987-10.4482579-.808948-3.3189316-2.178859-6.4723832-3.945672-9.4031211-4.656815-7.7253032-11.780226-13.3018548-16.978443-20.6140801" fill="#b58657"/><path d="m68.665453 138.047911c-4.6337427.533855-9.566517-.191241-14.085631-.489003-12.0098538-.790504-23.9580323-2.304235-35.9323761-3.465385-2.2016196-.213666-4.4649145-.445398-6.424194-1.435864-7.75737629-3.923241-7.48700195-15.79824-7.05963606-22.994379.41926712-7.051618 1.79917304-16.6111702 8.54108806-20.8203383 7.8084608-4.8738391 19.2881566-2.8274994 27.9793834-2.0756176 12.9474423 1.1194133 29.2720718 4.2172663 40.1100958 11.6308092 5.9264312 4.0553037 6.5475446 15.3011387 4.2755279 21.1106257-2.0907288 5.347269-5.295973 13.681509-10.7900543 16.59622-2.0720393 1.098856-4.3060541 1.676939-6.6142037 1.942932m41.136964 1.342614c4.685951 1.446111 9.941468 1.644646 14.680561 2.206431 12.59486 1.49371 25.275998 2.225847 37.910871 3.32875 2.322656.201666 4.714085.397696 6.947336-.25177 8.842973-2.57344 11.026832-14.938976 12.07656-22.483306 1.029721-7.392768 1.584283-17.571288-4.52027-23.2342325-7.071127-6.5585444-19.377765-6.647478-28.529592-7.5424513-13.633958-1.3333786-31.17298-1.2657389-43.929144 4.333324-6.9754702 3.0638272-9.9508456 14.6051618-8.8048353 21.0666308 1.0547296 5.947282 2.6433887 15.207656 7.7257223 19.287331 1.916269 1.538803 4.108882 2.569055 6.442791 3.289293" fill="#fff" opacity=".4"/><path d="m68.9922447 136.825715s.2172821-.028271.6380706-.083584c.4195362-.059614 1.0413264-.157948 1.8384451-.340479.794614-.186834 1.7683136-.457865 2.8540983-.915731 1.0857846-.447417 2.2623644-1.121616 3.3869718-2.109867 2.2730094-1.983263 4.2817736-5.156361 6.0513396-8.994439.8753904-1.920575 1.7545378-4.031672 2.5635538-6.242331.2091419-.54022.324984-1.122845.480275-1.698096.0989354-.590616.2460861-1.180616.2993109-1.793971.1784594-1.216877.1928614-2.481691.1822164-3.765557-.0695052-1.282638-.1634312-2.597233-.4502186-3.901995-.1026925-.660678-.3174699-1.30046-.4796488-1.95868-.2360674-.633636-.4182839-1.296772-.7282397-1.910127-.2579834-.639168-.6192855-1.22671-.968064-1.827774-.404508-.556813-.7996235-1.15173-1.2899172-1.6114394l-.3512833-.3705942c-.1233561-.1216877-.285535-.2304691-.4264241-.3466255l-.4395737-.3435525-.2197868-.1720836-.2047587-.1266043c-.6280519-.3914901-1.2611132-.7854386-1.8979316-1.1818453-5.2141457-3.0139207-11.2905322-5.1680382-17.7075571-6.7616549-6.4301744-1.5899292-13.2279127-2.596618-20.1803158-3.1786292-3.4934213-.295615-6.9968614-.7073864-10.5034323-.9058971-3.5015616-.183146-7.0394412-.1917502-10.4495814.4443444-1.6856588.3183546-3.4032524.7565531-4.9060685 1.4559498-1.596116.7196781-3.0175295 1.5893147-4.2103898 2.7736183-2.39887026 2.3600032-3.788349 5.5669033-4.6706273 8.8002305-.8822783 3.265286-1.22542131 6.630134-1.43393705 9.972857-.20162783 3.341494-.25923578 6.648571.13087024 9.847482.39448923 3.174942 1.23669243 6.313008 3.04695968 8.764584.90168968 1.225481 2.03381113 2.21742 3.36255103 2.921734 1.2830293.706157 2.7651817 1.04049 4.2423247 1.251907 6.0682463.644699 11.8046206 1.254981 17.1007951 1.81794 5.2993054.56972 10.1584108 1.062616 14.4696146 1.438127 4.3043158.379813 8.0864031.589386 11.1828304.891762 3.0932965.279021 5.5190922.372438 7.1684329.323886.8284274-.023969 1.4452082-.063917 1.8747631-.102636.4289288-.039948.649968-.060844.649968-.060844zm-.0614815.570439s-.219756.023319-.6467818.067501c-.4257773.043569-1.0819238.093275-1.9172463.126412-.8384441.027614-1.8729205.035592-3.0853244-.004909-1.2124039-.036205-2.5996137-.13623-4.1516405-.219073-1.5538997-.093888-3.2545115-.205573-5.1218132-.279824-1.8722962-.074252-3.8969233-.15464-6.0601465-.240551-2.1644718-.094502-4.4669154-.194527-6.8948447-.300075-2.425432-.126412-4.9832171-.192072-7.648383-.287802-2.6620444-.092661-5.4352153-.189618-8.3057781-.289643-1.4340328-.025773-2.8924136-.05216-4.3732694-.07916-1.4895961-.03191-2.9342421-.010432-4.6392241-.110457-1.6843799-.119049-3.5947588-.35469-5.6137671-1.296643-.1885406-.086524-.3346284-.140526-.5593789-.255278l-.76602449-.430169c-.27094916-.151571-.45137384-.289029-.68174306-.437532-.22038031-.144822-.43701478-.294552-.64053881-.459624-.84593576-.632673-1.60009842-1.375803-2.2743498-2.164957-1.35786737-1.584444-2.33303464-3.373234-3.0690924-5.167546-.74604667-1.800449-1.23737615-3.631581-1.57637476-5.451666-.68861044-3.637104-.86029482-7.260093-.90274768-10.765262-.00561877-.993499-.00374585-1.655013.03870702-2.664468.03183965-.948089.08677865-1.852609.16294408-2.794562.07117098-.934588.18417052-1.886973.30778327-2.845494.1548281-.962203.32776109-1.9311568.55563309-2.9154513.4569926-1.9649071 1.07318345-3.988111 2.02337845-6.0137695.96517837-2.0097036 2.24313446-4.053158 4.02240894-5.8597434.90025045-.8873379 1.85981006-1.7470614 2.95484425-2.4564408l.4020536-.2749152c.1529552-.0920474-.2016511.1092297.3689653-.2233685l.0724196-.0398873.1442149-.0803881.5774838-.3203253.5781082-.3209389c.053066-.0288416.08553-.0503193.1554524-.0840701l.2266233-.1061614.4551197-.208641c.5993346-.268165 1.2454922-.5608761 1.8223517-.7762672l1.6306894-.5443075c.5468928-.1896178 1.0806752-.2908701 1.6231978-.4356915.5437713-.1386849 1.0819237-.2687786 1.6132089-.3430303 2.1519856-.3988725 4.2178169-.5222161 6.2349523-.5817401 2.0227542-.0675015 3.9493651.0466374 5.8466335.192686 1.8866553.1552535 3.7096312.3589853 5.491403.576831 1.7324514.2350279 3.4592841.4688286 5.1792495.7020155.8702837.1202754 1.7174681.2147775 2.6008622.3553034.9052449.1466623 1.8079926.2933246 2.7088674.4387597 1.7692856.3160297 3.5317038.6234683 5.2660281 1.0266364 3.4736433.7848582 6.8792371 1.7059468 10.1893119 2.7706295 3.3119478 1.0579325 6.5021557 2.350893 9.5550161 3.7757881 3.047866 1.4377819 5.9496441 3.0535222 8.6098156 4.9012222.6517763.4829425 1.2985582.9628168 1.9409699 1.4390091l.3989321.2976203.2047726.1902315.4076724.3804629c.142342.1374576.2559658.2282778.4207828.4037817l.5131802.5762173c.7323119.7909948 1.1206308 1.5151017 1.5782477 2.2582318.3770813.759699.7454224 1.508965.9963937 2.269278.3115291.748039.4726003 1.508965.6879861 2.24964.1360989.749881.3208938 1.48442.3870703 2.218345.2135129 1.4611.2178831 2.892746.1935351 4.279595-.0842814 1.388076-.197281 2.736265-.480092 4.035975-.054939.325848-.1261099.647401-.2141372.965885-.0767897.318485-.1535795.635742-.2297449.950544-.2022754.624696-.3627223 1.242028-.6261798 1.837882-.2372366.619173-.4888322 1.132798-.7329362 1.664832-.2490984.530807-.4950753 1.054251-.7379307 1.57033-.4938267 1.029705-.966427 2.036705-1.4602537 2.996453-1.9871686 3.823039-4.1166792 7.052065-6.5739509 9.09552-1.2305088 1.013136-2.4809954 1.729265-3.6272228 2.18398-1.1399842.466987-2.1532342.736993-2.9773192.921702-.825958.180413-1.4664968.274302-1.8978928.331371-.4320204.05216-.6555222.078547-.6555222.078547zm40.5051278 1.932481s-.223985-.071218-.657646-.208129c-.431794-.14305-1.070774-.364073-1.882098-.711569-.808836-.351794-1.794371-.82822-2.867634-1.53365-1.076996-.69622-2.224921-1.677314-3.235343-2.987485-2.0357779-2.622798-3.4686616-6.385704-4.5182815-10.743528-.2550944-1.093446-.5058335-2.224958-.7298188-3.393306-.1107483-.583868-.2233631-1.17633-.3378445-1.776774-.1138592-.596147-.2239853-1.2058-.3011358-1.85229-.158034-1.276404-.1748329-2.592715-.0634625-3.924375.0802614-1.337185.3272674-2.684807.6221814-4.048392.1872766-.672891.3310005-1.365427.5724069-2.037704.1126148-.338901.2258518-.679029.339711-1.021.1343912-.335217.2694045-.672276.4050401-1.010563.126925-.341357.284959-.672891.4492149-1.00381.1648781-.329692.3142016-.669207.494012-.996443.3789085-.64342.7347962-1.308943 1.1989435-1.920438.4137507-.6421928.9506932-1.2094835 1.4583933-1.8025601.57614-.5365932 1.131126-1.0965164 1.836057-1.552068l.505211-.3579334.515167-.2719803.517032-.2725942c.10266-.050344.137502-.0804276.295536-.1473483l.275627-.1105111c.737285-.2934686 1.479547-.588779 2.227409-.8859313 6.060669-2.1918049 12.802626-3.3134932 19.771058-3.7966726 6.977764-.4770399 14.223066-.276278 21.514409.3886309 3.629184.3303056 7.306898.5415048 11.005767.9804797 3.688913.4555516 7.421379 1.0946745 10.977768 2.4373853 1.771972.6943785 3.483593 1.4919008 5.073889 2.6461285 1.513145 1.0701166 2.982738 2.4244923 4.031735 4.0269039 1.076374 1.590133 1.793127 3.373047 2.265985 5.178677.474724 1.809927.714264 3.653008.813191 5.484424.197854 3.664059-.198476 7.286369-.711776 10.789574-.522632 3.508115-1.18961 6.984306-2.318247 10.290431-1.131126 3.279726-2.728266 6.485778-5.310941 8.834755-1.271738 1.164051-2.827814 2.065331-4.442375 2.559561-1.657491.537207-3.361023.585095-4.976206.516333-6.362427-.513263-12.377054-.998898-17.930023-1.446469-5.547991-.440816-10.634324-.876722-15.137051-1.327362-4.511437-.445114-8.409403-.961447-11.642258-1.250618-3.235343-.313115-5.780687-.691922-7.495419-1.068888-.85301-.187255-1.518744-.359162-1.949294-.482566-.431172-.124632-.65329-.188483-.65329-.188483zm.401961-.325598s.222667.062063.653737.182504c.432929.118596 1.057514.273448 1.901045.450422 1.680859.342271 4.177958.724484 7.401983.956147 1.608291.119826 3.408857.245797 5.351458.431988 1.945083.188034 4.042746.3011 6.290507.449192 4.495523.26669 9.575315.437518 15.133935.472544 2.780551.03011 5.677707.061449 8.675963.094017 1.503469.001844 3.032369.004302 4.585458.006759 1.543785-.001228 3.180607.044858 4.595382-.016591 1.418496-.059605 2.716045-.280822 3.609196-.722641.176769-.076811.401917-.162226.540231-.232892.094277-.063907.187934-.122898.282211-.178203.083113-.041785.223908-.148092.334931-.217529.118467-.076812.236933-.151165.346716-.244568.45774-.329981.870202-.738003 1.262816-1.180437.782747-.887325 1.450128-1.99095 1.999044-3.245126.279109-.621251.527206-1.282443.747393-1.971287.234452-.679627.440993-1.391208.625825-2.122452.743672-2.931736 1.1214-6.140608 1.370117-9.528296l.091796-1.262165.053962-.664264.035353-.605889c.049-.787777.078771-1.61734.093037-2.422323.022949-1.615496-.026671-3.191051-.172428-4.687337-.148858-1.496285-.426727-2.911458-.814379-4.164405-.374007-1.259092-.878885-2.344283-1.50533-3.179376-.679787-.873806-1.151172-1.346964-2.552922-2.34797-.213363-.116753-.364703-.23535-.607838-.38037l-.870821-.46394c-.27911-.165298-.627687-.279594-.935327-.425842l-.473866-.212-.50922-.188648c-1.323599-.544439-2.835752-.947546-4.391942-1.306408l-1.185285-.2531705-1.22374-.2156863c-.812518-.1603821-1.659151-.2851238-2.501441-.4172393-1.696985-.2507123-3.454755-.4479639-5.239815-.647059-1.829717-.2236747-3.654473-.4461204-5.471786-.6679516-1.756528-.2199878-3.506235-.4381321-5.247257-.6556619-.86524-.0897156-1.727998-.1794313-2.588896-.2685325-.860897-.0682085-1.719934-.1560807-2.57649-.2414949-3.426844-.3189208-6.818954-.4915928-10.144078-.5026536-6.642805-.0503883-13.078449.4362885-18.867179 1.9995535-.7139.2156863-1.423458.4295291-2.128055.642143l-.264844.0804983c-.181731.0835708.173048-.0921736.111644-.0626781l-.067606.0288811-.134593.0577622-.537751.2310486-.53651.2298196-.311983.1929501-.323146.1800459-.167466.0878722-.181111.1413332-.73871.560415c-.448436.446121-.940909.853528-1.336624 1.377689-1.6833401 1.995867-2.8196258 4.499303-3.6228407 6.954808-.7486336 2.473941-1.195829 5.011174-1.0209204 7.335793.02543.291883.0372146.569633.0725684.871348.0390754.306631.0781507.612033.1166058.914977.0806316.601587.1600227 1.195185.2381734 1.780181.1532001 1.170605.3690447 2.288978.5700035 3.376013.4372715 2.161164.9303649 4.169935 1.6101515 5.942742.6698627 1.774649 1.4681155 3.331155 2.3879365 4.590247.908656 1.265851 1.977956 2.185744 2.992053 2.864142 1.015338.685772 1.955627 1.154629 2.730311 1.50243.777785.344115 1.393687.565332 1.81111.708508.418664.138261.635129.209542.635129.209542z" fill="#fff"/><path d="m68.9919538 137.427773s.2197837-.030666.6455753-.089496c.4251655-.064463 1.0544604-.169606 1.8603337-.365497 1.5766814-.414939 4.0187217-1.130287 6.259137-3.240656 2.2541911-2.10411 4.2303652-5.416113 5.9736062-9.402157.8684897-1.994587 1.7169422-4.181309 2.5309556-6.478808.7645464-2.270587 1.0544604-4.84346 1.0256569-7.495815-.0237943-2.65486-.46524-5.431134-1.4401776-8.096007-.5184639-1.318042-1.2022352-2.5941517-2.0870052-3.7225607l-.70193-.7779326c-.2467087-.2578506-.5723141-.4887895-.8565926-.7353748l-.2204098-.1827484-.0551024-.0456871c-.0244204-.021279.0175326.0156462-.0281774-.0181497l-.118345-.0782314-.4752586-.3129254c-.3168391-.2090342-.6349305-.41932-.9536481-.6296059-5.175873-3.2825877-11.2916184-5.6451746-17.770539-7.3819107-6.4964533-1.7223415-13.3792498-2.8250907-20.421092-3.4603293-3.5397061-.3141771-7.0919354-.7591571-10.6447909-.9750756-3.5478461-.2027757-7.1345145-.2102859-10.5828006.4750208-.4351841.0682177-.8578449.1777416-1.2811318.2872655-.4207824.1145307-.8553403.1927621-1.2610947.3498506l-1.236048.4205718-1.1634131.5163269c-.3875956.1464491-.7802005.4105582-1.1696746.6227216l-.5860897.3348302c-.1377561.0738504-.3343717.2378234-.4984267.3517282-.7075655.4775242-1.3356081 1.061443-1.9323426 1.6716476-1.1847026 1.2373071-2.1195657 2.7130634-2.85530859 4.2801939-.74012605 1.5671305-1.29678599 3.2237577-1.73134392 4.9085481-.86348039 3.3814724-1.2197678 6.8574474-1.4295328 10.3071374-.20412952 3.452819-.28177387 6.866836.05447628 10.181967.34188564 3.294479 1.07700237 6.552033 2.72005715 9.225042.80963026 1.326178 1.89226808 2.481498 3.12518538 3.29886 1.2742441.874313 2.6918797 1.3243 4.1846551 1.594668 1.4833829.267238 3.0105973.381769 4.5077558.550122 1.4965324.163348 2.9705229.323565 4.4194667.481906 2.8960093.32732 5.694337.644 8.3799551.947538 5.3706101.61083 10.2935127 1.142178 14.6628863 1.545851 4.3618596.41494 8.1939843.63211 11.3335714.9563 3.1345778.300409 5.5928984.4043 7.2647567.354232.8396861-.02566 1.464598-.067592 1.8997821-.108898.4339317-.043184.6580985-.065088.6580985-.065088zm-.0893461.583161s-.2234552.024382-.6553855.071894c-.4319303.046263-1.0973027.098777-1.9443104.133786-.8501287.028133-1.8993698.034384-3.1277495-.011253-1.229004-.041261-2.6352741-.149415-4.206951-.242565-1.575422-.105028-3.2950288-.220684-5.1900293-.303206-1.8974972-.085023-3.949166-.176922-6.1418988-.275074-2.1927328-.107528-4.5265295-.221934-6.9864099-.343217-2.458632-.141287-5.0495895-.22506-7.749778-.336965-2.6970675-.108779-5.507111-.222559-8.4145261-.340091-1.4530834-.032508-2.9311339-.066268-4.4310305-.100652-.7552538-.015004-1.5161252-.030008-2.28199-.045637-.7908319-.020005-1.6259803-.056265-2.5098146-.15004-.8844583-.095026-1.8207234-.249442-2.7950632-.531392-.9581113-.258194-2.0398095-.761454-2.79631168-1.182817-.25341575-.149415-.51120072-.304456-.75775052-.461373l-.64914378-.458873c-.4231918-.31696-.83889349-.655801-1.22276217-1.019648-.78708682-.718943-1.46431855-1.53041-2.07351501-2.37251-1.21527205-1.693578-2.08038096-3.532196-2.73701486-5.373939-.6672449-1.846119-1.10416859-3.712868-1.41251188-5.573991-.62168-3.715995-.77522747-7.426363-.81579896-11.024201-.01934948-1.766723.06054514-3.71662.20535414-5.624006.14605735-1.92489.38886209-3.8935417.84201437-5.9103315.44441382-2.013664 1.03738169-4.0848434 1.94992803-6.1660254.91816394-2.0668032 2.16152394-4.172992 3.89423847-6.071.87197486-.9352503 1.81510586-1.8523708 2.90679092-2.6094484l.40072143-.2925784.2016091-.1450388c-.208475.123158.3988489-.2513172.3607741-.2256854l.0724045-.0425114.5798602-.3407162.5804843-.3407162c.1111035-.0618915.1610376-.1025274.3220752-.1812985l.4600182-.2256854c.6141899-.2975796 1.239615-.586407 1.8631675-.8571044l1.6553166-.586407c.5567657-.2100562 1.1010477-.3244618 1.6528199-.478253.5511481-.1444136 1.1022961-.2969545 1.6434573-.3757255 2.1946053-.4382423 4.2999533-.5701526 6.3541189-.6364204 2.0604073-.0737697 4.0184496.0493882 5.9440348.2063052 1.918095.1637939 3.7625371.3851031 5.5651595.6157899 1.7545607.2481914 3.5035038.4951325 5.245581.7408232.8875793.1294097 1.7252244.2213093 2.6496301.3813521.9169156.156917 1.8500598.2969545 2.7432566.4688755 1.7938839.3350897 3.5802776.6651781 5.3379592 1.0996694 3.5191083.8458514 6.968933 1.8192369 10.3157685 2.966419 6.6724489 2.3337496 12.9510424 5.3964444 18.2490543 9.3756344.3264444.2556935.6516405.5101366.9755882.7633294l.4824886.3794765.1204661.0944003c-.1279562-.0969009.2421806.1856747.2222069.1750468l.0511825.0506386.20473.2013039.4075873.4013574.2034816.2000536.102365.1019022.130453.1506654c.3451697.4026077.67848.8114672.996186 1.2209518 1.059852 1.5522904 1.7252244 3.1289625 2.2170756 4.6950063.4469106 1.564794.7789726 3.10083.9038079 4.607484.1017408.750826.0948749 1.49665.1435607 2.228096-.0149803.734572.0137318 1.457265-.0436924 2.171206-.1666552 2.852013-.664124 5.542734-1.6147452 8.01402l-.1772661.460748-.1828838.418863c-.1223386.278824-.2434289.555148-.363895.830222-.2459257.551397-.4881062 1.095293-.7271659 1.631061-.4881062 1.069036-.9512453 2.115567-1.4399757 3.112709-1.9599148 3.972938-4.0521551 7.339464-6.4870685 9.50942-1.2158962 1.074662-2.4723639 1.85112-3.6233457 2.339376-1.1472368.502634-2.172135.794588-3.0054109.995266-.8357726.194427-1.4849164.29633-1.9218401.357596-.438172.056265-.664124.085023-.664124.085023zm40.5307263 1.613239s-.225854-.075697-.663875-.222712c-.436153-.153271-1.081362-.390373-1.899539-.761352-.813821-.376609-1.804966-.886471-2.87824-1.637187-1.077007-.73883-2.217477-1.782952-3.213599-3.153635-2.0065555-2.745746-3.417055-6.639462-4.4561084-11.146263-.5164158-2.265287-.9650131-4.670708-1.3675686-7.247542-.3658463-2.634389-.1586578-5.419547.3957114-8.24099.122571-.710053.3328704-1.408219.4996167-2.123277.2314538-.698166.407533-1.421356.6912505-2.117646.4884174-1.419479 1.1809123-2.795167 1.9617578-4.1477083.8293762-1.3293938 1.8279876-2.5918486 3.0630296-3.6810131.335982-.2552436.672585-.5104872 1.010433-.766982.340959-.2408549.691873-.3997566 1.039054-.6049524l.261318-.1457641.06533-.0369102c.01431-.009384.108883-.0531758.102039-.048171l.139992-.0594317.559969-.2371013c.373935-.1589017.749114-.3178033 1.12616-.4773306 6.078773-2.4448333 12.908528-3.7166721 19.97098-4.266572 7.073652-.5317575 14.421688-.3390736 21.813278.3672255 3.678996.3572159 7.404656.5818053 11.154581 1.0510031 3.738104.4842121 7.521005 1.1773737 11.107917 2.6200005.454819.1601528.889106.3753582 1.325259.5855588.433043.2164566.882263.3966286 1.294773.656877l1.258686.7338253 1.213266.8626984c.426198.2796419.74227.6062035 1.106249.9114949l.531349.4648186c.229587.1989399.351536.3678511.53197.5536534.692495.7062991 1.271752 1.5095657 1.8031 2.3328515 1.051497 1.6628367 1.752703 3.5064717 2.2125 5.3738787.463529 1.86991.704316 3.771099.809466 5.660402.200344 3.781735-.156169 7.518426-.64832 11.146263-.498994 3.625335-1.123671 7.21939-2.172057 10.658297-1.054608 3.415135-2.510527 6.763956-4.915905 9.379577-1.199578 1.301242-2.637454 2.356624-4.275674 3.029767-.777734.317178-1.631998.578677-2.477551.698792-.846798.13075-1.690484.166409-2.517994.153897-1.658752-.03128-3.24222-.228969-4.803911-.36097-1.562935-.138257-3.10285-.274637-4.616632-.40914-3.030677-.25587-5.958692-.503606-8.769114-.740707-5.623954-.471075-10.778779-.933391-15.342526-1.414475-4.571835-.468572-8.522105-1.028482-11.7973-1.336901-3.27893-.333443-5.85852-.735077-7.594423-1.137336-.863597-.200191-1.536804-.383491-1.972335-.514866-.436154-.133252-.660764-.202068-.660764-.202068zm.389714-.392422s.224559.066299.660649.195146c.436711.126971 1.068826.292095 1.921777.481613 1.70156.365275 4.231879.769954 7.499768 1.020143 1.629602.127596 3.457709.270828 5.42415.47223 1.970162.202027 4.096647.327747 6.375733.487867 4.556311.292095 9.706275.48474 15.341337.542909 2.820012.042532 5.757266.08694 8.796874.1326 1.524767.010007 3.075587.02064 4.64998.030648 1.584939.007505 3.19345.0663 4.564995-.043783.691666-.055042 1.335567-.154492 1.90751-.310859.596135-.15887.989423-.347762 1.66434-.691771.09429-.065049.185478-.120716.284111-.180761l.354827-.247686c.232003-.171379.459663-.348388.674297-.550415.438572-.384039.833721-.851891 1.20964-1.352267.749356-1.005757 1.377749-2.229803 1.893862-3.582071.513632-1.352893.92553-2.82963 1.277876-4.367037.689805-3.094829 1.030986-6.436719 1.261748-9.962498.122204-1.796352.22766-3.428205.238206-5.120103.006203-1.673134-.0366-3.318123-.192922-4.878672-.155703-1.5618-.436711-3.046043-.826278-4.376419-.371576-1.338507-.885828-2.501883-1.519804-3.409441-.320089-.450964-.652585-.865651-1.017338-1.222795l-.129028-.143233-.063274-.072554c-.217735-.203904.26426.238304.186719.169502l-.066375-.056918-.534723-.459095-.534102-.459096c-.080023-.064423-.199746-.180761-.246271-.202652l-.154461-.088817c-.204709-.120716-.39515-.250814-.587451-.394047l-.872802-.489743c-.273565-.1788849-.619708-.3027281-.929872-.4559685-.314506-.1507384-.629013-.298975-.979498-.4278219-1.320679-.5804369-2.842964-1.005757-4.406191-1.3904215l-1.193512-.2695779-1.234453-.2301732c-.820074-.1682516-1.674266-.3021024-2.526597-.4403314-1.713967-.267076-3.49617-.4722304-5.306908-.6836395-1.854781-.236428-3.7046-.471605-5.546974-.7061565-.90692-.1188394-1.811359-.2376789-2.714557-.3565183-.865357-.1057046-1.710865-.2320496-2.59049-.3233684-1.750566-.2095327-3.49555-.3433834-5.228747-.5172643-3.468254-.3139863-6.903012-.4884926-10.266431-.4722304-6.718775.0025019-13.218574.6179651-19.012439 2.3999312-.35917.1169631-.7171.2339261-1.073788.3496382l-.536584.1738808-.133991.043783c-.187339.0913187.180515-.1013263.117242-.0688018l-.068236.0306481-.272324.1244687-.543408.2483118-.270463.1238432-.13337.0619216-.07506.0519141c-.201607.1376036-.411898.2645741-.635216.3871664-.978258.7049055-1.931702 1.667505-2.736268 2.7464425-1.5495798 2.226675-2.6965666 4.812371-3.3919546 7.40182-.7059334 2.585071-1.0923979 5.211422-.8740424 7.610103.2537142 2.512516.5731833 4.969365 1.0012097 7.193539.4323688 2.234181.9180858 4.311369 1.5892809 6.150253.6606495 1.83951 1.4472254 3.458228 2.3560064 4.777346.898235 1.325998 1.955895 2.29923 2.973233 3.019773 1.014857.728673 1.959617 1.228424 2.738749 1.600579.783475.365901 1.405044.602329 1.825626.755569.423064.146985.64204.223293.64204.223293z" fill="#423a30"/><path d="m82.3012048 94.4526749c6.0539986 1.7901243 12.045943 3.0030768 18.0813252 1.6633503l-5.193308 14.2477328s-2.410802-1.314881-3.9485027-1.115483c-1.8169442.236347-4.1067407 1.467774-4.1067407 1.467774l.3952846-6.315125z" fill="#423a30"/><path d="m64.6971541 111.333016c-1.6993459 6.331996-5.6636631 10.768969-8.8542591 9.910519-3.190596-.859687-4.3990335-6.688858-2.6996876-13.021472 1.6999634-6.331995 5.663663-10.768969 8.8542591-9.9099006 3.190596.8590683 4.3990335 6.6888586 2.6996876 13.0208536m67.3006829 5.358906c-1.780501 6.503333-5.933325 11.060174-9.276088 10.178325-3.342134-.882468-4.608169-6.869536-2.828298-13.372869 1.780501-6.503333 5.933325-11.060174 9.276088-10.178324 3.342134.882467 4.608798 6.869535 2.828298 13.372868m-66.6776477 52.186801c.2841956-.013288.5827256.032905.8438614.101246 4.6399911 1.219376 9.3335805 2.554551 14.0975955 2.998133 10.7408471.9998 19.0167963 1.37694 30.6856418-4.788281.797118-.421435 2.007443-1.733197 2.908018-1.363651 1.423471.585326-3.826045 6.930257-4.236134 7.449141-11.4164346 14.46166-29.3388287 16.690328-42.7720548 1.256077-.5528102-.635315-2.888075-3.961232-2.6032562-4.916104.1564322-.526476.5970599-.715046 1.0763283-.736561m3.7076402-98.7704346c6.0904955 1.2433473 12.5797398 4.5021803 11.9888381 8.4514178-1.1303116 2.595054-8.4214492-1.2018611-16.1201269-2.9498538-3.5265721-.8006215-7.1171952-1.0575882-10.7178655-.6848317-1.5435033.160372-3.0744475.4173387-4.602252.6848317-.7836827.1368425-1.5673654.2780194-2.351676.4105275-.6938857.1170282-1.6885599.5591348-2.3987723.2284837-1.355118-.6315808.102356-1.4811189.7547969-1.943659 1.8122662-1.2860718 3.8166854-2.2984587 5.9109016-3.0563556 4.2424361-1.5362274 8.8522235-2.0557335 13.3489797-1.7182713 1.3695608.1027867 2.7328422.2866882 4.0791688.5560388.0364212.0068112.0722144.0142415.1080076.0216719m48.5788765 5.305164c3.079527-1.7876746 6.75983-2.8554114 10.482645-3.2743076 7.503768-.8435569 15.619565.9229807 21.434157 5.1779152.952115.6968792 1.808581 1.4597314 2.687553 2.2187405.247563.2132911.478871.4630916.533885.7660547.11753.6469191-.725183 1.0914358-1.339088.7724599-.778946-.4048049-1.572272-.728905-2.411858-1.0446784-1.119033-.4201771-2.251819-.8160148-3.412111-1.1522846-2.670049-.7731004-5.464504-1.1843104-8.316473-1.2368326-11.203452-.2075265-21.169716 8.4669546-24.587454 5.5948898-1.877348-2.7209035 2.591904-6.4647078 4.928744-7.8219569" fill="#75635a"/></g></g></g></svg>