<svg xmlns="http://www.w3.org/2000/svg" width="3000" height="1000"><path d="M1473,587L1527,150L1244,336Z" fill="#8dffb5" stroke="#8dffb5" stroke-width="1.51"/><path d="M1527,150L1070,-147L1244,336Z" fill="#a1ffae" stroke="#a1ffae" stroke-width="1.51"/><path d="M1954,-60L1622,-114L1527,150Z" fill="#a2ffb1" stroke="#a2ffb1" stroke-width="1.51"/><path d="M1473,587L1971,272L1527,150Z" fill="#8cffb8" stroke="#8cffb8" stroke-width="1.51"/><path d="M1244,336L943,730L1473,587Z" fill="#8bffb7" stroke="#8bffb7" stroke-width="1.51"/><path d="M1622,-114L1070,-147L1527,150Z" fill="#a6ffac" stroke="#a6ffac" stroke-width="1.51"/><path d="M1244,336L795,367L943,730Z" fill="#94ffb3" stroke="#94ffb3" stroke-width="1.51"/><path d="M1971,272L1954,-60L1527,150Z" fill="#9affb6" stroke="#9affb6" stroke-width="1.51"/><path d="M1070,-147L795,367L1244,336Z" fill="#a5ffad" stroke="#a5ffad" stroke-width="1.51"/><path d="M1473,587L1954,825L1971,272Z" fill="#80ffbf" stroke="#80ffbf" stroke-width="1.51"/><path d="M1876,998L1954,825L1473,587Z" fill="#81fec6" stroke="#81fec6" stroke-width="1.51"/><path d="M1341,1121L1876,998L1473,587Z" fill="#80fec6" stroke="#80fec6" stroke-width="1.51"/><path d="M943,730L1341,1121L1473,587Z" fill="#8afebf" stroke="#8afebf" stroke-width="1.51"/><path d="M1813,-386L1470,-430L1622,-114Z" fill="#b3fea9" stroke="#b3fea9" stroke-width="1.51"/><path d="M1622,-114L1470,-430L1070,-147Z" fill="#b1ffa7" stroke="#b1ffa7" stroke-width="1.51"/><path d="M1070,-147L512,-284L795,367Z" fill="#b7ffa5" stroke="#b7ffa5" stroke-width="1.51"/><path d="M1470,-430L1125,-383L1070,-147Z" fill="#bbffa3" stroke="#bbffa3" stroke-width="1.51"/><path d="M1971,272L2199,-5L1954,-60Z" fill="#9efeb8" stroke="#9efeb8" stroke-width="1.51"/><path d="M1954,-60L1813,-386L1622,-114Z" fill="#acfeae" stroke="#acfeae" stroke-width="1.51"/><path d="M2466,286L2199,-5L1971,272Z" fill="#97fdbd" stroke="#97fdbd" stroke-width="1.51"/><path d="M2199,-5L1813,-386L1954,-60Z" fill="#abfeb2" stroke="#abfeb2" stroke-width="1.51"/><path d="M795,367L704,821L943,730Z" fill="#9affb5" stroke="#9affb5" stroke-width="1.51"/><path d="M943,730L1010,1169L1341,1121Z" fill="#91fdc2" stroke="#91fdc2" stroke-width="1.51"/><path d="M704,821L1010,1169L943,730Z" fill="#98fdbd" stroke="#98fdbd" stroke-width="1.51"/><path d="M1954,825L2414,654L1971,272Z" fill="#81fdc5" stroke="#81fdc5" stroke-width="1.51"/><path d="M2418,992L2414,654L1954,825Z" fill="#81fcce" stroke="#81fcce" stroke-width="1.51"/><path d="M2414,654L2466,286L1971,272Z" fill="#88fdc3" stroke="#88fdc3" stroke-width="1.51"/><path d="M1125,-383L800,-546L1070,-147Z" fill="#c3ffa0" stroke="#c3ffa0" stroke-width="1.51"/><path d="M795,367L138,775L704,821Z" fill="#a3ffb2" stroke="#a3ffb2" stroke-width="1.51"/><path d="M1470,-430L800,-546L1125,-383Z" fill="#c4ff9f" stroke="#c4ff9f" stroke-width="1.51"/><path d="M2416,-589L800,-546L1470,-430Z" fill="#beffa4" stroke="#beffa4" stroke-width="1.51"/><path d="M2414,654L2662,200L2466,286Z" fill="#8afdc6" stroke="#8afdc6" stroke-width="1.51"/><path d="M1876,998L2418,992L1954,825Z" fill="#81fccf" stroke="#81fccf" stroke-width="1.51"/><path d="M2416,1477L2418,992L1876,998Z" fill="#82fbd7" stroke="#82fbd7" stroke-width="1.51"/><path d="M1848,1487L1876,998L1341,1121Z" fill="#82fcd0" stroke="#82fcd0" stroke-width="1.51"/><path d="M800,-546L512,-284L1070,-147Z" fill="#c7ff9e" stroke="#c7ff9e" stroke-width="1.51"/><path d="M1395,1628L1848,1487L1341,1121Z" fill="#81fcd3" stroke="#81fcd3" stroke-width="1.51"/><path d="M512,-284L286,122L795,367Z" fill="#baffa4" stroke="#baffa4" stroke-width="1.51"/><path d="M2466,286L2662,200L2199,-5Z" fill="#99fdc0" stroke="#99fdc0" stroke-width="1.51"/><path d="M2199,-5L2416,-589L1813,-386Z" fill="#b5fdb1" stroke="#b5fdb1" stroke-width="1.51"/><path d="M2923,766L2662,200L2414,654Z" fill="#81fdcc" stroke="#81fdcc" stroke-width="1.51"/><path d="M375,-402L359,-199L512,-284Z" fill="#cfff9a" stroke="#cfff9a" stroke-width="1.51"/><path d="M512,-284L359,-199L286,122Z" fill="#c8ff9e" stroke="#c8ff9e" stroke-width="1.51"/><path d="M1141,1669L1395,1628L1341,1121Z" fill="#8afbd2" stroke="#8afbd2" stroke-width="1.51"/><path d="M1141,1669L1341,1121L1010,1169Z" fill="#8ffccc" stroke="#8ffccc" stroke-width="1.51"/><path d="M704,821L547,1249L1010,1169Z" fill="#9efdc0" stroke="#9efdc0" stroke-width="1.51"/><path d="M367,1186L547,1249L704,821Z" fill="#a5fdbe" stroke="#a5fdbe" stroke-width="1.51"/><path d="M800,-546L375,-402L512,-284Z" fill="#d0ff99" stroke="#d0ff99" stroke-width="1.51"/><path d="M-86,-129L-51,369L286,122Z" fill="#c5ff9f" stroke="#c5ff9f" stroke-width="1.51"/><path d="M717,1695L1141,1669L1010,1169Z" fill="#97fbcf" stroke="#97fbcf" stroke-width="1.51"/><path d="M1813,-386L2416,-589L1470,-430Z" fill="#bcfeaa" stroke="#bcfeaa" stroke-width="1.51"/><path d="M2721,-185L2416,-589L2199,-5Z" fill="#b2fdb7" stroke="#b2fdb7" stroke-width="1.51"/><path d="M2662,200L2721,-185L2199,-5Z" fill="#a3fdbe" stroke="#a3fdbe" stroke-width="1.51"/><path d="M547,1249L717,1695L1010,1169Z" fill="#9efcc9" stroke="#9efcc9" stroke-width="1.51"/><path d="M138,775L367,1186L704,821Z" fill="#a8fdb8" stroke="#a8fdb8" stroke-width="1.51"/><path d="M286,122L138,775L795,367Z" fill="#abffaa" stroke="#abffaa" stroke-width="1.51"/><path d="M-51,369L138,775L286,122Z" fill="#b3ffa7" stroke="#b3ffa7" stroke-width="1.51"/><path d="M1141,1669L1511,1819L1395,1628Z" fill="#88fad9" stroke="#88fad9" stroke-width="1.51"/><path d="M1395,1628L1511,1819L1848,1487Z" fill="#82fbdb" stroke="#82fbdb" stroke-width="1.51"/><path d="M1848,1487L2416,1477L1876,998Z" fill="#81fbd9" stroke="#81fbd9" stroke-width="1.51"/><path d="M2199,2059L2416,1477L1848,1487Z" fill="#82fae4" stroke="#82fae4" stroke-width="1.51"/><path d="M2418,992L2923,766L2414,654Z" fill="#82fcd2" stroke="#82fcd2" stroke-width="1.51"/><path d="M2866,1088L2923,766L2418,992Z" fill="#82fbd9" stroke="#82fbd9" stroke-width="1.51"/><path d="M2662,200L3250,-213L2721,-185Z" fill="#a8fcc2" stroke="#a8fcc2" stroke-width="1.51"/><path d="M-86,-129L286,122L359,-199Z" fill="#caff9d" stroke="#caff9d" stroke-width="1.51"/><path d="M-553,-693L-47,-605L800,-546Z" fill="#e5fe8e" stroke="#e5fe8e" stroke-width="1.51"/><path d="M2721,-185L2635,-608L2416,-589Z" fill="#befdb5" stroke="#befdb5" stroke-width="1.51"/><path d="M3144,-486L2635,-608L2721,-185Z" fill="#bcfcba" stroke="#bcfcba" stroke-width="1.51"/><path d="M356,1429L717,1695L547,1249Z" fill="#a6fbc9" stroke="#a6fbc9" stroke-width="1.51"/><path d="M1141,1669L953,1965L1511,1819Z" fill="#8efad9" stroke="#8efad9" stroke-width="1.51"/><path d="M367,1186L356,1429L547,1249Z" fill="#aafcc3" stroke="#aafcc3" stroke-width="1.51"/><path d="M-109,1134L356,1429L367,1186Z" fill="#b0fcbf" stroke="#b0fcbf" stroke-width="1.51"/><path d="M-109,1134L367,1186L138,775Z" fill="#b2fcb8" stroke="#b2fcb8" stroke-width="1.51"/><path d="M-51,369L-53,661L138,775Z" fill="#b3feaa" stroke="#b3feaa" stroke-width="1.51"/><path d="M2416,1477L2866,1088L2418,992Z" fill="#82fbdd" stroke="#82fbdd" stroke-width="1.51"/><path d="M375,-402L-86,-129L359,-199Z" fill="#d2fe99" stroke="#d2fe99" stroke-width="1.51"/><path d="M-714,986L-109,1134L-53,661Z" fill="#bdfdb0" stroke="#bdfdb0" stroke-width="1.51"/><path d="M668,1863L953,1965L717,1695Z" fill="#9efad4" stroke="#9efad4" stroke-width="1.51"/><path d="M717,1695L953,1965L1141,1669Z" fill="#98fad5" stroke="#98fad5" stroke-width="1.51"/><path d="M333,1831L668,1863L717,1695Z" fill="#a6fad2" stroke="#a6fad2" stroke-width="1.51"/><path d="M-602,389L-53,661L-51,369Z" fill="#bbffa3" stroke="#bbffa3" stroke-width="1.51"/><path d="M-53,661L-109,1134L138,775Z" fill="#b5fdb1" stroke="#b5fdb1" stroke-width="1.51"/><path d="M356,1429L333,1831L717,1695Z" fill="#a9fbcd" stroke="#a9fbcd" stroke-width="1.51"/><path d="M2416,1477L2896,1498L2866,1088Z" fill="#82f9e4" stroke="#82f9e4" stroke-width="1.51"/><path d="M1511,1819L2010,2043L1848,1487Z" fill="#82fae1" stroke="#82fae1" stroke-width="1.51"/><path d="M953,1965L2010,2043L1511,1819Z" fill="#82fadc" stroke="#82fadc" stroke-width="1.51"/><path d="M3317,1078L3211,705L2923,766Z" fill="#81fbdc" stroke="#81fbdc" stroke-width="1.51"/><path d="M2923,766L3301,363L2662,200Z" fill="#86fcce" stroke="#86fcce" stroke-width="1.51"/><path d="M3317,1078L2923,766L2866,1088Z" fill="#82fade" stroke="#82fade" stroke-width="1.51"/><path d="M-553,-693L800,-546L2416,-589Z" fill="#d2fe98" stroke="#d2fe98" stroke-width="1.51"/><path d="M800,-546L-47,-605L375,-402Z" fill="#daff95" stroke="#daff95" stroke-width="1.51"/><path d="M375,-402L-47,-605L-86,-129Z" fill="#dbfe94" stroke="#dbfe94" stroke-width="1.51"/><path d="M2905,1827L2896,1498L2416,1477Z" fill="#81f8eb" stroke="#81f8eb" stroke-width="1.51"/><path d="M3211,705L3301,363L2923,766Z" fill="#82fbd5" stroke="#82fbd5" stroke-width="1.51"/><path d="M2010,2043L2199,2059L1848,1487Z" fill="#82f9e4" stroke="#82f9e4" stroke-width="1.51"/><path d="M-189,2066L2199,2059L2010,2043Z" fill="#89fada" stroke="#89fada" stroke-width="1.51"/><path d="M-310,1713L333,1831L356,1429Z" fill="#b4fac9" stroke="#b4fac9" stroke-width="1.51"/><path d="M668,1863L-189,2066L953,1965Z" fill="#a9fad0" stroke="#a9fad0" stroke-width="1.51"/><path d="M3301,363L3250,-213L2662,200Z" fill="#9dfcc9" stroke="#9dfcc9" stroke-width="1.51"/><path d="M3250,-213L3144,-486L2721,-185Z" fill="#b5fbbf" stroke="#b5fbbf" stroke-width="1.51"/><path d="M3883,365L3500,154L3301,363Z" fill="#91fbd4" stroke="#91fbd4" stroke-width="1.51"/><path d="M3110,1552L3317,1078L2866,1088Z" fill="#82f9e6" stroke="#82f9e6" stroke-width="1.51"/><path d="M2896,1498L3110,1552L2866,1088Z" fill="#82f9e8" stroke="#82f9e8" stroke-width="1.51"/><path d="M2905,1827L3110,1552L2896,1498Z" fill="#81f8ef" stroke="#81f8ef" stroke-width="1.51"/><path d="M-553,-693L-526,-44L-86,-129Z" fill="#e3fe90" stroke="#e3fe90" stroke-width="1.51"/><path d="M-86,-129L-526,-44L-51,369Z" fill="#ceff9b" stroke="#ceff9b" stroke-width="1.51"/><path d="M3250,-213L3584,-598L3144,-486Z" fill="#bdfbc1" stroke="#bdfbc1" stroke-width="1.51"/><path d="M3301,363L3500,154L3250,-213Z" fill="#9ffbcc" stroke="#9ffbcc" stroke-width="1.51"/><path d="M3583,806L3301,363L3211,705Z" fill="#82fbd9" stroke="#82fbd9" stroke-width="1.51"/><path d="M2199,2059L2905,1827L2416,1477Z" fill="#81f8ec" stroke="#81f8ec" stroke-width="1.51"/><path d="M-109,1134L-310,1713L356,1429Z" fill="#b7fbc1" stroke="#b7fbc1" stroke-width="1.51"/><path d="M-526,-44L-602,389L-51,369Z" fill="#cbff9c" stroke="#cbff9c" stroke-width="1.51"/><path d="M-602,389L-641,598L-53,661Z" fill="#bfffa3" stroke="#bfffa3" stroke-width="1.51"/><path d="M-553,-693L-641,598L-602,389Z" fill="#d6fe96" stroke="#d6fe96" stroke-width="1.51"/><path d="M3317,1078L3583,806L3211,705Z" fill="#82fae0" stroke="#82fae0" stroke-width="1.51"/><path d="M3619,988L3583,806L3317,1078Z" fill="#81fae5" stroke="#81fae5" stroke-width="1.51"/><path d="M333,1831L-189,2066L668,1863Z" fill="#b0face" stroke="#b0face" stroke-width="1.51"/><path d="M-458,1715L-310,1713L-109,1134Z" fill="#c0fbc1" stroke="#c0fbc1" stroke-width="1.51"/><path d="M3753,-163L3250,-213L3500,154Z" fill="#aafbcb" stroke="#aafbcb" stroke-width="1.51"/><path d="M3637,1393L3619,988L3317,1078Z" fill="#81f8ea" stroke="#81f8ea" stroke-width="1.51"/><path d="M3637,1393L3317,1078L3110,1552Z" fill="#81f9ed" stroke="#81f9ed" stroke-width="1.51"/><path d="M-641,598L-714,986L-53,661Z" fill="#c1fea8" stroke="#c1fea8" stroke-width="1.51"/><path d="M-553,-693L-714,986L-641,598Z" fill="#cefe9b" stroke="#cefe9b" stroke-width="1.51"/><path d="M-526,-44L-553,-693L-602,389Z" fill="#dffe92" stroke="#dffe92" stroke-width="1.51"/><path d="M-47,-605L-553,-693L-86,-129Z" fill="#e7fe8e" stroke="#e7fe8e" stroke-width="1.51"/><path d="M2635,-608L-553,-693L2416,-589Z" fill="#c3fea0" stroke="#c3fea0" stroke-width="1.51"/><path d="M3753,-163L3584,-598L3250,-213Z" fill="#b8fac7" stroke="#b8fac7" stroke-width="1.51"/><path d="M3144,-486L3584,-598L2635,-608Z" fill="#c4fbbb" stroke="#c4fbbb" stroke-width="1.51"/><path d="M2635,-608L3584,-598L-553,-693Z" fill="#c4fda6" stroke="#c4fda6" stroke-width="1.51"/><path d="M3753,-163L3500,154L3883,365Z" fill="#9efad3" stroke="#9efad3" stroke-width="1.51"/><path d="M3883,365L3301,363L3583,806Z" fill="#82fbd9" stroke="#82fbd9" stroke-width="1.51"/><path d="M-310,1713L-189,2066L333,1831Z" fill="#bafaca" stroke="#bafaca" stroke-width="1.51"/><path d="M-714,986L-458,1715L-109,1134Z" fill="#c3fbb8" stroke="#c3fbb8" stroke-width="1.51"/><path d="M-458,1715L-189,2066L-310,1713Z" fill="#c1fac7" stroke="#c1fac7" stroke-width="1.51"/><path d="M953,1965L-189,2066L2010,2043Z" fill="#99fad5" stroke="#99fad5" stroke-width="1.51"/><path d="M3931,759L3883,365L3583,806Z" fill="#82fae0" stroke="#82fae0" stroke-width="1.51"/><path d="M3240,2070L3637,1393L3110,1552Z" fill="#81f7f6" stroke="#81f7f6" stroke-width="1.51"/><path d="M3931,759L3583,806L3619,988Z" fill="#81f9e5" stroke="#81f9e5" stroke-width="1.51"/><path d="M2905,1827L3240,2070L3110,1552Z" fill="#80f7f4" stroke="#80f7f4" stroke-width="1.51"/><path d="M2199,2059L3240,2070L2905,1827Z" fill="#81f8f0" stroke="#81f8f0" stroke-width="1.51"/><path d="M3729,2130L3240,2070L2199,2059Z" fill="#80f7f4" stroke="#80f7f4" stroke-width="1.51"/><path d="M3910,1163L3931,759L3619,988Z" fill="#82f9e9" stroke="#82f9e9" stroke-width="1.51"/><path d="M3637,1393L3910,1163L3619,988Z" fill="#81f8ee" stroke="#81f8ee" stroke-width="1.51"/><path d="M3926,1498L3910,1163L3637,1393Z" fill="#80f7f4" stroke="#80f7f4" stroke-width="1.51"/><path d="M-714,986L-759,1864L-458,1715Z" fill="#cafabc" stroke="#cafabc" stroke-width="1.51"/><path d="M-458,1715L-759,1864L-189,2066Z" fill="#c6fac5" stroke="#c6fac5" stroke-width="1.51"/><path d="M3910,1163L4171,-193L3931,759Z" fill="#82fade" stroke="#82fade" stroke-width="1.51"/><path d="M3856,2023L3926,1498L3637,1393Z" fill="#80f6fc" stroke="#80f6fc" stroke-width="1.51"/><path d="M3753,-163L4149,-525L3584,-598Z" fill="#befac8" stroke="#befac8" stroke-width="1.51"/><path d="M3883,365L4171,-193L3753,-163Z" fill="#a5fad2" stroke="#a5fad2" stroke-width="1.51"/><path d="M3931,759L4171,-193L3883,365Z" fill="#90fad8" stroke="#90fad8" stroke-width="1.51"/><path d="M3926,1498L4171,-193L3910,1163Z" fill="#82f9e5" stroke="#82f9e5" stroke-width="1.51"/><path d="M4171,-193L4149,-525L3753,-163Z" fill="#b7facb" stroke="#b7facb" stroke-width="1.51"/><path d="M3240,2070L3729,2130L3637,1393Z" fill="#80f6fb" stroke="#80f6fb" stroke-width="1.51"/><path d="M-189,2066L3729,2130L2199,2059Z" fill="#82f9e3" stroke="#82f9e3" stroke-width="1.51"/><path d="M3729,2130L3856,2023L3637,1393Z" fill="#7ff6fe" stroke="#7ff6fe" stroke-width="1.51"/><path d="M3926,1498L3856,2023L4171,-193Z" fill="#81f8ed" stroke="#81f8ed" stroke-width="1.51"/></svg>