<svg height="358" viewBox="0 0 210 358" width="210" xmlns="http://www.w3.org/2000/svg"><g fill="none" fill-rule="evenodd" opacity=".5" transform="translate(10 10)"><g transform="translate(140)"><circle cx="26" cy="19" fill="#7ff6ff" r="19"/><path d="m7 300h38v38h-38z" fill="#ff7f9e"/><circle cx="26" cy="199" fill="#7ff6ff" r="19"/><path d="m6 60h38v38h-38z" fill="#ff7f9e"/><g fill="#fffd7f"><path d="m25 240 21.651 37.5h-43.302z"/><path d="m25 120 21.651 37.5h-43.302z"/></g></g><g transform="translate(70)"><path d="m25 0 21.651 37.5h-43.302z" fill="#fffd7f"/><path d="m25 300 21.651 37.5h-43.302z" fill="#fffd7f"/><path d="m6 180h38v38h-38z" fill="#ff7f9e"/><circle cx="25" cy="79" fill="#7ff6ff" r="19"/><circle cx="25" cy="259" fill="#7ff6ff" r="19"/><path d="m6 120h38v38h-38z" fill="#ff7f9e"/></g><path d="m6 0h38v38h-38z" fill="#ff7f9e"/><circle cx="25" cy="319" fill="#7ff6ff" r="19"/><path d="m25 180 21.651 37.5h-43.302z" fill="#fffd7f"/><path d="m25 60 21.651 37.5h-43.302z" fill="#fffd7f"/><path d="m6 240h38v38h-38z" fill="#ff7f9e"/><circle cx="25" cy="139" fill="#7ff6ff" r="19"/></g></svg>