<svg height="423" viewBox="0 0 435 423" width="435" xmlns="http://www.w3.org/2000/svg"><g fill="none" fill-rule="evenodd" transform="matrix(.93969262 .34202014 -.34202014 .93969262 51.443226 -47.869033)"><g transform="translate(0 .958)"><path d="m231.021 415.597-138.617-267.68h-92.404z" fill="#ff7100"/><path d="m0 147.917h92.404l5.961-133.125z" fill="#ff9600"/><path d="m98.365 14.792-5.961 133.125 138.623-147.917z" fill="#ffcb00"/><g transform="matrix(-1 0 0 1 462.02 0)"><path d="m0 147.917h92.367l5.998-133.125z" fill="#ff9600"/><path d="m98.365 14.792-5.961 133.125 138.623-147.917z" fill="#ffcb00"/><path d="m231.021 415.597-138.617-267.68h-92.404z" fill="#ff7100"/></g><path d="m92.404 147.917 138.606 267.645 138.605-267.645h-137.115z" fill="#ffc600"/><path d="m92.404 147.917h277.211l-138.605-147.917z" fill="#ffe992"/></g><g transform="translate(157.98 172.542)"><path d="m32.3592308 12.7415417c0 5.5172916 4.4055769 9.9873333 9.8395192 9.9873333s9.8395192-4.4700417 9.8395192-9.9873333c0-5.51433337-4.4055769-9.98437503-9.8395192-9.98437503s-9.8395192 4.47004166-9.8395192 9.98437503zm63.949423 0c0 5.5172916 4.4025962 9.9873333 9.8365382 9.9873333 5.433943 0 9.83952-4.4700417 9.83952-9.9873333 0-5.51433337-4.405577-9.98437503-9.83952-9.98437503-5.433942 0-9.8365382 4.47004166-9.8365382 9.98437503z" fill="#433f4a"/><path d="m84.5024231 21.7289583c-.2593269 6.6621667-3.60375 11.98125-10.3313462 11.98125-6.7246154 0-10.0690384-5.3190833-10.3283654-11.98125" stroke="#433f4a" stroke-linecap="round" stroke-width="6.3"/><path d="m1.00153846 36.8075833c0-8.5495833 7.01971154-15.478 15.68182694-15.478 8.6561538 0 15.6758654 6.9284167 15.6758654 15.478 0 8.546625-7.0197116 15.478-15.6758654 15.478-8.6621154 0-15.68182694-6.931375-15.68182694-15.478zm114.98317354 0c0-8.5495833 7.019711-15.478 15.678846-15.478 8.659134 0 15.678846 6.9284167 15.678846 15.478 0 8.546625-7.019712 15.478-15.678846 15.478-8.659135 0-15.678846-6.931375-15.678846-15.478z" fill="#ff7f9e" fill-opacity=".4"/></g></g></svg>