<svg height="702" viewBox="0 0 1522 702" width="1522" xmlns="http://www.w3.org/2000/svg"><path d="m1.29374851.59538684c25.25221349 18.33306686 50.48501229 27.49255286 75.70625149 27.49255286 8.7535253 0 15.8953416-1.4517853 22.3628222-4.2690136 4.9045148-2.136402 8.2467778-4.2774116 15.3434288-9.4295694 7.153349-5.19331955 10.540253-7.36292559 15.531571-9.53713919 6.59502-2.87278417 13.872846-4.35221751 22.762178-4.35221751 8.688002 0 15.739633 1.41403647 22.055667 4.16450098 4.825609 2.10142405 8.231876 4.3139954 14.816689 9.22407962.338265.2522839.338265.2522839.676519.5045481 6.706071 5.0001804 10.23109 7.2758748 15.241934 9.4246656 6.565387 2.815422 13.985309 4.2701454 23.209191 4.2701454 9.218152 0 16.526366-1.4519854 22.923541-4.2682338 4.84837-2.1344125 8.052728-4.273162 14.772327-9.4226034 6.780401-5.19603603 10.034376-7.36790208 14.977673-9.54410511 6.527825-2.87376422 13.973183-4.35299739 23.326459-4.35299739s16.798634 1.47923317 23.326459 4.35299739c4.943297 2.17620303 8.197272 4.34806908 14.977673 9.54410511 6.719599 5.1494414 9.923957 7.2881909 14.772327 9.4226034 6.397175 2.8162484 13.705389 4.2682338 22.923541 4.2682338s16.526366-1.4519854 22.923541-4.2682338c4.84837-2.1344125 8.052728-4.273162 14.772327-9.4226034 6.780401-5.19603603 10.034376-7.36790208 14.977673-9.54410511 6.527825-2.87376422 13.973183-4.35299739 23.326459-4.35299739s16.798634 1.47923317 23.326459 4.35299739c4.943297 2.17620303 8.197272 4.34806908 14.977673 9.54410511 6.719599 5.1494414 9.923957 7.2881909 14.772327 9.4226034 6.397175 2.8162484 13.705389 4.2682338 22.923541 4.2682338s16.526366-1.4519854 22.923541-4.2682338c4.84837-2.1344125 8.052728-4.273162 14.772327-9.4226034 6.780401-5.19603603 10.034376-7.36790208 14.977673-9.54410511 6.527825-2.87376422 13.973183-4.35299739 23.326459-4.35299739s16.798634 1.47923317 23.326459 4.35299739c4.943297 2.17620303 8.197272 4.34806908 14.977673 9.54410511 6.719599 5.1494414 9.923957 7.2881909 14.772327 9.4226034 6.397175 2.8162484 13.705389 4.2682338 22.923541 4.2682338s16.526366-1.4519854 22.923541-4.2682338c4.84837-2.1344125 8.052728-4.273162 14.772327-9.4226034 6.780401-5.19603603 10.034376-7.36790208 14.977673-9.54410511 6.527825-2.87376422 13.973183-4.35299739 23.326459-4.35299739s16.798634 1.47923317 23.326459 4.35299739c4.943297 2.17620303 8.197272 4.34806908 14.977673 9.54410511 6.719599 5.1494414 9.923957 7.2881909 14.772327 9.4226034 6.397175 2.8162484 13.705389 4.2682338 22.923541 4.2682338s16.526366-1.4519854 22.923541-4.2682338c4.84837-2.1344125 8.052728-4.273162 14.772327-9.4226034 6.780401-5.19603603 10.034376-7.36790208 14.977673-9.54410511 6.527825-2.87376422 13.973183-4.35299739 23.326459-4.35299739s16.798634 1.47923317 23.326459 4.35299739c4.943297 2.17620303 8.197272 4.34806908 14.977673 9.54410511 6.719599 5.1494414 9.923957 7.2881909 14.772327 9.4226034 6.397175 2.8162484 13.705389 4.2682338 22.923541 4.2682338s16.52637-1.4519854 22.92354-4.2682338c4.84837-2.1344125 8.05273-4.273162 14.77233-9.4226034 6.7804-5.19603603 10.03437-7.36790208 14.97767-9.54410511 6.52783-2.87376422 13.97318-4.35299739 23.32646-4.35299739s16.79863 1.47923317 23.32646 4.35299739c4.9433 2.17620303 8.19727 4.34806908 14.97767 9.54410511 6.7196 5.1494414 9.92396 7.2881909 14.77233 9.4226034 6.39717 2.8162484 13.70539 4.2682338 22.92354 4.2682338s16.52637-1.4519854 22.92354-4.2682338c4.84837-2.1344125 8.05273-4.273162 14.77233-9.4226034 6.7804-5.19603603 10.03437-7.36790208 14.97767-9.54410511 6.52783-2.87376422 13.97318-4.35299739 23.32646-4.35299739s16.79863 1.47923317 23.32646 4.35299739c4.9433 2.17620303 8.19727 4.34806908 14.97767 9.54410511 6.7196 5.1494414 9.92396 7.2881909 14.77233 9.4226034 6.39717 2.8162484 13.70539 4.2682338 22.92354 4.2682338 9.22388 0 16.6438-1.4547234 23.20919-4.2701454 5.01085-2.1487908 8.53586-4.4244852 15.24193-9.4246656.33826-.2522642.33826-.2522642.67652-.5045481 6.58482-4.91008422 9.99108-7.12265557 14.81669-9.22407962 6.31604-2.75046451 13.36767-4.16450098 22.05567-4.16450098 8.88933 0 16.16716 1.47943334 22.76218 4.35221751 4.99132 2.1742136 8.37822 4.34381964 15.53157 9.53713919 7.09665 5.1521578 10.43891 7.2931674 15.34343 9.4295694 6.46748 2.8172283 13.60929 4.2690136 22.36282 4.2690136 25.22124 0 50.45404-9.159486 75.70625-27.49255286l.79375-.57626016v701.80905532l-.73287-.385723c-25.26367-13.296668-50.51768-19.942459-75.76713-19.942459-8.77142 0-15.9305 1.055023-22.41193 3.101791-4.91126 1.550924-8.25534 3.103901-15.3552 6.840668-7.15014 3.763233-10.53523 5.335256-15.5198 6.909332-6.58107 2.078232-13.84163 3.148209-22.71307 3.148209s-16.132-1.069977-22.71307-3.148209c-4.98457-1.574076-8.36966-3.146099-15.5198-6.909332-7.09986-3.736767-10.44394-5.289744-15.3552-6.840668-6.48143-2.046768-13.64051-3.101791-22.41193-3.101791s-15.9305 1.055023-22.41193 3.101791c-4.91126 1.550924-8.25534 3.103901-15.3552 6.840668-7.15014 3.763233-10.53523 5.335256-15.5198 6.909332-6.58107 2.078232-13.84163 3.148209-22.71307 3.148209s-16.132-1.069977-22.71307-3.148209c-4.98457-1.574076-8.36966-3.146099-15.5198-6.909332-7.09986-3.736767-10.44394-5.289744-15.3552-6.840668-6.48143-2.046768-13.64051-3.101791-22.41193-3.101791s-15.9305 1.055023-22.41193 3.101791c-4.91126 1.550924-8.25534 3.103901-15.3552 6.840668-7.15014 3.763233-10.53523 5.335256-15.5198 6.909332-6.58107 2.078232-13.84163 3.148209-22.71307 3.148209s-16.132-1.069977-22.71307-3.148209c-4.98457-1.574076-8.36966-3.146099-15.5198-6.909332-7.09986-3.736767-10.44394-5.289744-15.3552-6.840668-6.48143-2.046768-13.640514-3.101791-22.41193-3.101791s-15.930502 1.055023-22.411934 3.101791c-4.911258 1.550924-8.255334 3.103901-15.355193 6.840668-7.150141 3.763233-10.535231 5.335256-15.519807 6.909332-6.581068 2.078232-13.841625 3.148209-22.713066 3.148209s-16.131998-1.069977-22.713066-3.148209c-4.984576-1.574076-8.369666-3.146099-15.519807-6.909332-7.099859-3.736767-10.443935-5.289744-15.355193-6.840668-6.481432-2.046768-13.640518-3.101791-22.411934-3.101791s-15.930502 1.055023-22.411934 3.101791c-4.911258 1.550924-8.255334 3.103901-15.355193 6.840668-7.150141 3.763233-10.535231 5.335256-15.519807 6.909332-6.581068 2.078232-13.841625 3.148209-22.713066 3.148209s-16.131998-1.069977-22.713066-3.148209c-4.984576-1.574076-8.369666-3.146099-15.519807-6.909332-7.099859-3.736767-10.443935-5.289744-15.355193-6.840668-6.481432-2.046768-13.640518-3.101791-22.411934-3.101791s-15.930502 1.055023-22.411934 3.101791c-4.911258 1.550924-8.255334 3.103901-15.355193 6.840668-7.150141 3.763233-10.535231 5.335256-15.519807 6.909332-6.581068 2.078232-13.841625 3.148209-22.713066 3.148209s-16.131998-1.069977-22.713066-3.148209c-4.984576-1.574076-8.369666-3.146099-15.519807-6.909332-7.099859-3.736767-10.443935-5.289744-15.355193-6.840668-6.481432-2.046768-13.640518-3.101791-22.411934-3.101791s-15.930502 1.055023-22.411934 3.101791c-4.911258 1.550924-8.255334 3.103901-15.355193 6.840668-7.150141 3.763233-10.535231 5.335256-15.519807 6.909332-6.581068 2.078232-13.841625 3.148209-22.713066 3.148209s-16.131998-1.069977-22.713066-3.148209c-4.984576-1.574076-8.369666-3.146099-15.519807-6.909332-7.099859-3.736767-10.443935-5.289744-15.355193-6.840668-6.481432-2.046768-13.640518-3.101791-22.411934-3.101791s-15.930502 1.055023-22.411934 3.101791c-4.911258 1.550924-8.255334 3.103901-15.355193 6.840668-7.150141 3.763233-10.535231 5.335256-15.519807 6.909332-6.581068 2.078232-13.841625 3.148209-22.713066 3.148209s-16.131998-1.069977-22.713066-3.148209c-4.984576-1.574076-8.369666-3.146099-15.519807-6.909332-7.099859-3.736767-10.443935-5.289744-15.355193-6.840668-6.481432-2.046768-13.640518-3.101791-22.411934-3.101791s-15.930502 1.055023-22.411934 3.101791c-4.911258 1.550924-8.255334 3.103901-15.355193 6.840668-7.150141 3.763233-10.535231 5.335256-15.519807 6.909332-6.581068 2.078232-13.841625 3.148209-22.713066 3.148209s-16.131998-1.069977-22.713066-3.148209c-4.984576-1.574076-8.369666-3.146099-15.519807-6.909332-7.099859-3.736767-10.443935-5.289744-15.3551927-6.840668-6.4814325-2.046768-13.6405183-3.101791-22.4119343-3.101791-25.2494519 0-50.503457 6.645791-75.76712678 19.942459l-.73287322.385723v-701.80905532z" fill="#fff" fill-rule="evenodd" stroke="#162018"/></svg>