<svg height="700" viewBox="0 0 2807 700" width="2807" xmlns="http://www.w3.org/2000/svg"><path d="m.5 15.4587528v673.2192372c12.5552496-6.813492 20.3009504-9.17799 35.5-9.17799 8.8714411 0 16.1319982 1.069977 22.7130657 3.148209 4.9845761 1.574076 8.3696659 3.146099 15.5198075 6.909332 7.0998584 3.736767 10.4439353 5.289744 15.3551925 6.840668 6.4814325 2.046768 13.6405183 3.101791 22.4119343 3.101791s15.930502-1.055023 22.411934-3.101791c4.911258-1.550924 8.255334-3.103901 15.355193-6.840668 7.150141-3.763233 10.535231-5.335256 15.519807-6.909332 6.581068-2.078232 13.841625-3.148209 22.713066-3.148209s16.131998 1.069977 22.713066 3.148209c4.984576 1.574076 8.369666 3.146099 15.519807 6.909332 7.099859 3.736767 10.443935 5.289744 15.355193 6.840668 6.481432 2.046768 13.640518 3.101791 22.411934 3.101791s15.930502-1.055023 22.411934-3.101791c4.911258-1.550924 8.255334-3.103901 15.355193-6.840668 7.150141-3.763233 10.535231-5.335256 15.519807-6.909332 6.581068-2.078232 13.841625-3.148209 22.713066-3.148209s16.131998 1.069977 22.713066 3.148209c4.984576 1.574076 8.369666 3.146099 15.519807 6.909332 7.099859 3.736767 10.443935 5.289744 15.355193 6.840668 6.481432 2.046768 13.640518 3.101791 22.411934 3.101791s15.930502-1.055023 22.411934-3.101791c4.911258-1.550924 8.255334-3.103901 15.355193-6.840668 7.150141-3.763233 10.535231-5.335256 15.519807-6.909332 6.581068-2.078232 13.841625-3.148209 22.713066-3.148209s16.131998 1.069977 22.713066 3.148209c4.984576 1.574076 8.369666 3.146099 15.519807 6.909332 7.099859 3.736767 10.443935 5.289744 15.355193 6.840668 6.481432 2.046768 13.640518 3.101791 22.411934 3.101791s15.930502-1.055023 22.411934-3.101791c4.911258-1.550924 8.255334-3.103901 15.355193-6.840668 7.150141-3.763233 10.535231-5.335256 15.519807-6.909332 6.581068-2.078232 13.841625-3.148209 22.713066-3.148209s16.131998 1.069977 22.713066 3.148209c4.984576 1.574076 8.369666 3.146099 15.519807 6.909332 7.099859 3.736767 10.443935 5.289744 15.355193 6.840668 6.481432 2.046768 13.640518 3.101791 22.411934 3.101791s15.930502-1.055023 22.411934-3.101791c4.911258-1.550924 8.255334-3.103901 15.355193-6.840668 7.150141-3.763233 10.535231-5.335256 15.519807-6.909332 6.581068-2.078232 13.841625-3.148209 22.713066-3.148209s16.131998 1.069977 22.713066 3.148209c4.984576 1.574076 8.369666 3.146099 15.519807 6.909332 7.099859 3.736767 10.443935 5.289744 15.355193 6.840668 6.481432 2.046768 13.640518 3.101791 22.411934 3.101791s15.930502-1.055023 22.411934-3.101791c4.911258-1.550924 8.255334-3.103901 15.355193-6.840668 7.150141-3.763233 10.535231-5.335256 15.519807-6.909332 6.581068-2.078232 13.841625-3.148209 22.713066-3.148209s16.131998 1.069977 22.713066 3.148209c4.984576 1.574076 8.369666 3.146099 15.519807 6.909332 7.099859 3.736767 10.443935 5.289744 15.355197 6.840668 6.48143 2.046768 13.64051 3.101791 22.41193 3.101791s15.9305-1.055023 22.41193-3.101791c4.91126-1.550924 8.25534-3.103901 15.3552-6.840668 7.15014-3.763233 10.53523-5.335256 15.5198-6.909332 6.58107-2.078232 13.84163-3.148209 22.71307-3.148209s16.132 1.069977 22.71307 3.148209c4.98457 1.574076 8.36966 3.146099 15.5198 6.909332 7.09986 3.736767 10.44394 5.289744 15.3552 6.840668 6.48143 2.046768 13.64051 3.101791 22.41193 3.101791s15.9305-1.055023 22.41193-3.101791c4.91126-1.550924 8.25534-3.103901 15.3552-6.840668 7.15014-3.763233 10.53523-5.335256 15.5198-6.909332 6.58107-2.078232 13.84163-3.148209 22.71307-3.148209s16.132 1.069977 22.71307 3.148209c4.98457 1.574076 8.36966 3.146099 15.5198 6.909332 7.09986 3.736767 10.44394 5.289744 15.3552 6.840668 6.48143 2.046768 13.64051 3.101791 22.41193 3.101791 13.9945 0 22.89483-2.400184 34.40899-8.205617.93818-.473029 1.91614-.977016 3.10398-1.597557.69024-.360585 3.1259-1.640256 3.16932-1.663008 11.53015-5.94401 20.40127-8.465516 34.82004-8.532652 14.65759.068269 23.37602 2.632527 36.73009 9.530255.27821.146064.50051.262991 1.00045.52612 7.09986 3.736767 10.44394 5.289744 15.3552 6.840668 6.48143 2.046768 13.64051 3.101791 22.41193 3.101791s15.9305-1.055023 22.41193-3.101791c4.91126-1.550924 8.25534-3.103901 15.3552-6.840668 7.15014-3.763233 10.53523-5.335256 15.5198-6.909332 6.58107-2.078232 13.84163-3.148209 22.71307-3.148209s16.132 1.069977 22.71307 3.148209c4.98457 1.574076 8.36966 3.146099 15.5198 6.909332 7.09986 3.736767 10.44394 5.289744 15.3552 6.840668 6.48143 2.046768 13.64051 3.101791 22.41193 3.101791s15.9305-1.055023 22.41193-3.101791c4.91126-1.550924 8.25534-3.103901 15.3552-6.840668 7.15014-3.763233 10.53523-5.335256 15.5198-6.909332 6.58107-2.078232 13.84163-3.148209 22.71307-3.148209s16.132 1.069977 22.71307 3.148209c4.98457 1.574076 8.36966 3.146099 15.5198 6.909332 7.09986 3.736767 10.44394 5.289744 15.3552 6.840668 6.48143 2.046768 13.64051 3.101791 22.41193 3.101791s15.9305-1.055023 22.41193-3.101791c4.91126-1.550924 8.25534-3.103901 15.3552-6.840668 7.15014-3.763233 10.53523-5.335256 15.5198-6.909332 6.58107-2.078232 13.84163-3.148209 22.71307-3.148209s16.132 1.069977 22.71307 3.148209c4.98457 1.574076 8.36966 3.146099 15.5198 6.909332 7.09986 3.736767 10.44394 5.289744 15.3552 6.840668 6.48143 2.046768 13.64051 3.101791 22.41193 3.101791s15.9305-1.055023 22.41193-3.101791c4.91126-1.550924 8.25534-3.103901 15.3552-6.840668 7.15014-3.763233 10.53523-5.335256 15.5198-6.909332 6.58107-2.078232 13.84163-3.148209 22.71307-3.148209s16.132 1.069977 22.71307 3.148209c4.98457 1.574076 8.36966 3.146099 15.5198 6.909332 7.09986 3.736767 10.44394 5.289744 15.3552 6.840668 6.48143 2.046768 13.64051 3.101791 22.41193 3.101791s15.9305-1.055023 22.41193-3.101791c4.91126-1.550924 8.25534-3.103901 15.3552-6.840668 7.15014-3.763233 10.53523-5.335256 15.5198-6.909332 6.58107-2.078232 13.84163-3.148209 22.71307-3.148209s16.132 1.069977 22.71307 3.148209c4.98457 1.574076 8.36966 3.146099 15.5198 6.909332 7.09986 3.736767 10.44394 5.289744 15.3552 6.840668 6.48143 2.046768 13.64051 3.101791 22.41193 3.101791s15.9305-1.055023 22.41193-3.101791c4.91126-1.550924 8.25534-3.103901 15.3552-6.840668 7.15014-3.763233 10.53523-5.335256 15.5198-6.909332 6.58107-2.078232 13.84163-3.148209 22.71307-3.148209s16.132 1.069977 22.71307 3.148209c4.98457 1.574076 8.36966 3.146099 15.5198 6.909332 7.09986 3.736767 10.44394 5.289744 15.3552 6.840668 6.48143 2.046768 13.64051 3.101791 22.41193 3.101791s15.9305-1.055023 22.41193-3.101791c4.91126-1.550924 8.25534-3.103901 15.3552-6.840668 7.15014-3.763233 10.53523-5.335256 15.5198-6.909332 6.58107-2.078232 13.84163-3.148209 22.71307-3.148209s16.132 1.069977 22.71307 3.148209c4.98457 1.574076 8.36966 3.146099 15.5198 6.909332 7.09986 3.736767 10.44394 5.289744 15.3552 6.840668 6.48143 2.046768 13.64051 3.101791 22.41193 3.101791s15.9305-1.055023 22.41193-3.101791c4.91126-1.550924 8.25534-3.103901 15.3552-6.840668 7.15014-3.763233 10.53523-5.335256 15.5198-6.909332 6.58107-2.078232 13.84163-3.148209 22.71307-3.148209s16.132 1.069977 22.71307 3.148209c4.98457 1.574076 8.36966 3.146099 15.5198 6.909332 7.09986 3.736767 10.44394 5.289744 15.3552 6.840668 6.48143 2.046768 13.64051 3.101791 22.41193 3.101791s15.9305-1.055023 22.41193-3.101791c4.91126-1.550924 8.25534-3.103901 15.3552-6.840668 7.15014-3.763233 10.53523-5.335256 15.5198-6.909332 6.58107-2.078232 13.84163-3.148209 22.71307-3.148209 15.19905 0 22.94475 2.364498 35.5 9.177987v-673.2192342c-5.89862 4.4315678-9.16522 6.5337469-13.71017 8.5222086-6.20181 2.7133498-13.1652 4.1069783-21.78983 4.1069783-8.88933 0-16.16716-1.4794333-22.76218-4.3522175-4.99132-2.1742136-8.37822-4.3438197-15.53157-9.5371392-7.09665-5.15215784-10.43891-7.29316737-15.34343-9.42956935-6.46748-2.8172284-13.60929-4.26901365-22.36282-4.26901365-8.55306 0-15.46874 1.38677522-21.65641 4.0813393-4.73503 2.06197952-8.09181 4.24240777-14.61817 9.1089051-.33812.2521734-.33812.2521734-.67654.5045666-6.76559 5.0445564-10.34228 7.3536095-15.44557 9.5420429-6.69284 2.8700757-14.24684 4.3510858-23.60331 4.3510858-9.35328 0-16.79863-1.4792332-23.32646-4.3529974-4.9433-2.176203-8.19727-4.3480691-14.97767-9.5441051-6.7196-5.14944136-9.92396-7.28819088-14.77233-9.42260343-6.39717-2.81624835-13.70539-4.26823377-22.92354-4.26823377s-16.52637 1.45198542-22.92354 4.26823377c-4.84837 2.13441255-8.05273 4.27316207-14.77233 9.42260343-6.7804 5.196036-10.03437 7.3679021-14.97767 9.5441051-6.52783 2.8737642-13.97318 4.3529974-23.32646 4.3529974s-16.79863-1.4792332-23.32646-4.3529974c-4.9433-2.176203-8.19727-4.3480691-14.97767-9.5441051-6.7196-5.14944136-9.92396-7.28819088-14.77233-9.42260343-6.39717-2.81624835-13.70539-4.26823377-22.92354-4.26823377s-16.52637 1.45198542-22.92354 4.26823377c-4.84837 2.13441255-8.05273 4.27316207-14.77233 9.42260343-6.7804 5.196036-10.03437 7.3679021-14.97767 9.5441051-6.52783 2.8737642-13.97318 4.3529974-23.32646 4.3529974s-16.79863-1.4792332-23.32646-4.3529974c-4.9433-2.176203-8.19727-4.3480691-14.97767-9.5441051-6.7196-5.14944136-9.92396-7.28819088-14.77233-9.42260343-6.39717-2.81624835-13.70539-4.26823377-22.92354-4.26823377s-16.52637 1.45198542-22.92354 4.26823377c-4.84837 2.13441255-8.05273 4.27316207-14.77233 9.42260343-6.7804 5.196036-10.03437 7.3679021-14.97767 9.5441051-6.52783 2.8737642-13.97318 4.3529974-23.32646 4.3529974s-16.79863-1.4792332-23.32646-4.3529974c-4.9433-2.176203-8.19727-4.3480691-14.97767-9.5441051-6.7196-5.14944136-9.92396-7.28819088-14.77233-9.42260343-6.39717-2.81624835-13.70539-4.26823377-22.92354-4.26823377s-16.52637 1.45198542-22.92354 4.26823377c-4.84837 2.13441255-8.05273 4.27316207-14.77233 9.42260343-6.7804 5.196036-10.03437 7.3679021-14.97767 9.5441051-6.52783 2.8737642-13.97318 4.3529974-23.32646 4.3529974s-16.79863-1.4792332-23.32646-4.3529974c-4.9433-2.176203-8.19727-4.3480691-14.97767-9.5441051-6.7196-5.14944136-9.92396-7.28819088-14.77233-9.42260343-6.39717-2.81624835-13.70539-4.26823377-22.92354-4.26823377s-16.52637 1.45198542-22.92354 4.26823377c-4.84837 2.13441255-8.05273 4.27316207-14.77233 9.42260343-6.7804 5.196036-10.03437 7.3679021-14.97767 9.5441051-6.52783 2.8737642-13.97318 4.3529974-23.32646 4.3529974s-16.79863-1.4792332-23.32646-4.3529974c-4.9433-2.176203-8.19727-4.3480691-14.97767-9.5441051-6.7196-5.14944136-9.92396-7.28819088-14.77233-9.42260343-6.39717-2.81624835-13.70539-4.26823377-22.92354-4.26823377s-16.52637 1.45198542-22.92354 4.26823377c-4.84837 2.13441255-8.05273 4.27316207-14.77233 9.42260343-6.7804 5.196036-10.03437 7.3679021-14.97767 9.5441051-6.52783 2.8737642-13.97318 4.3529974-23.32646 4.3529974s-16.79863-1.4792332-23.32646-4.3529974c-4.9433-2.176203-8.19727-4.3480691-14.97767-9.5441051-6.7196-5.14944136-9.92396-7.28819088-14.77233-9.42260343-6.39717-2.81624835-13.70539-4.26823377-22.92354-4.26823377s-16.52637 1.45198542-22.92354 4.26823377c-4.84837 2.13441255-8.05273 4.27316207-14.77233 9.42260343-6.7804 5.196036-10.03437 7.3679021-14.97767 9.5441051-6.52783 2.8737642-13.97318 4.3529974-23.32646 4.3529974-9.35647 0-16.91047-1.4810101-23.60331-4.3510858-5.10329-2.1884334-8.67998-4.4974865-15.44557-9.5420429-.33842-.2523932-.33842-.2523932-.67654-.5045666-6.52636-4.86649733-9.88314-7.04692558-14.61817-9.1089051-6.18767-2.69456408-13.10335-4.0813393-21.65641-4.0813393-13.96588 0-22.84635 3.30341909-34.34861 11.3031382-.93801.6523786-1.91585 1.3474856-3.10356 2.2033709-.6902.497365-3.12584 2.2625175-3.16946 2.2940524-11.5417 8.2073544-20.43185 11.6929735-34.88158 11.7857664-14.68753-.0943627-23.4242-3.6388894-36.79007-13.1619984-.27821-.201488-.50052-.3627816-1.00047-.7257465-7.09665-5.15215784-10.43891-7.29316737-15.34343-9.42956935-6.46748-2.8172284-13.60929-4.26901365-22.36282-4.26901365-8.55306 0-15.46874 1.38677522-21.65641 4.0813393-4.73503 2.06197952-8.09181 4.24240777-14.61817 9.1089051-.33812.2521734-.33812.2521734-.67654.5045666-6.76559 5.0445564-10.34228 7.3536095-15.44557 9.5420429-6.69284 2.8700757-14.24684 4.3510858-23.60331 4.3510858-9.35328 0-16.79863-1.4792332-23.32646-4.3529974-4.9433-2.176203-8.19727-4.3480691-14.97767-9.5441051-6.7196-5.14944136-9.92396-7.28819088-14.77233-9.42260343-6.39717-2.81624835-13.70539-4.26823377-22.92354-4.26823377s-16.52637 1.45198542-22.92354 4.26823377c-4.84837 2.13441255-8.05273 4.27316207-14.77233 9.42260343-6.7804 5.196036-10.03437 7.3679021-14.97767 9.5441051-6.52783 2.8737642-13.97318 4.3529974-23.32646 4.3529974s-16.79863-1.4792332-23.32646-4.3529974c-4.9433-2.176203-8.19727-4.3480691-14.97767-9.5441051-6.7196-5.14944136-9.92396-7.28819088-14.77233-9.42260343-6.39717-2.81624835-13.70539-4.26823377-22.92354-4.26823377s-16.52637 1.45198542-22.92354 4.26823377c-4.848371 2.13441255-8.052729 4.27316207-14.772328 9.42260343-6.780401 5.196036-10.034376 7.3679021-14.977673 9.5441051-6.527825 2.8737642-13.973183 4.3529974-23.326459 4.3529974s-16.798634-1.4792332-23.326459-4.3529974c-4.943297-2.176203-8.197272-4.3480691-14.977673-9.5441051-6.719599-5.14944136-9.923957-7.28819088-14.772327-9.42260343-6.397175-2.81624835-13.705389-4.26823377-22.923541-4.26823377s-16.526366 1.45198542-22.923541 4.26823377c-4.84837 2.13441255-8.052728 4.27316207-14.772327 9.42260343-6.780401 5.196036-10.034376 7.3679021-14.977673 9.5441051-6.527825 2.8737642-13.973183 4.3529974-23.326459 4.3529974s-16.798634-1.4792332-23.326459-4.3529974c-4.943297-2.176203-8.197272-4.3480691-14.977673-9.5441051-6.719599-5.14944136-9.923957-7.28819088-14.772327-9.42260343-6.397175-2.81624835-13.705389-4.26823377-22.923541-4.26823377s-16.526366 1.45198542-22.923541 4.26823377c-4.84837 2.13441255-8.052728 4.27316207-14.772327 9.42260343-6.780401 5.196036-10.034376 7.3679021-14.977673 9.5441051-6.527825 2.8737642-13.973183 4.3529974-23.326459 4.3529974s-16.798634-1.4792332-23.326459-4.3529974c-4.943297-2.176203-8.197272-4.3480691-14.977673-9.5441051-6.719599-5.14944136-9.923957-7.28819088-14.772327-9.42260343-6.397175-2.81624835-13.705389-4.26823377-22.923541-4.26823377s-16.526366 1.45198542-22.923541 4.26823377c-4.84837 2.13441255-8.052728 4.27316207-14.772327 9.42260343-6.780401 5.196036-10.034376 7.3679021-14.977673 9.5441051-6.527825 2.8737642-13.973183 4.3529974-23.326459 4.3529974s-16.798634-1.4792332-23.326459-4.3529974c-4.943297-2.176203-8.197272-4.3480691-14.977673-9.5441051-6.719599-5.14944136-9.923957-7.28819088-14.772327-9.42260343-6.397175-2.81624835-13.705389-4.26823377-22.923541-4.26823377s-16.526366 1.45198542-22.923541 4.26823377c-4.84837 2.13441255-8.052728 4.27316207-14.772327 9.42260343-6.780401 5.196036-10.034376 7.3679021-14.977673 9.5441051-6.527825 2.8737642-13.973183 4.3529974-23.326459 4.3529974s-16.798634-1.4792332-23.326459-4.3529974c-4.943297-2.176203-8.197272-4.3480691-14.977673-9.5441051-6.719599-5.14944136-9.923957-7.28819088-14.772327-9.42260343-6.397175-2.81624835-13.705389-4.26823377-22.923541-4.26823377s-16.526366 1.45198542-22.923541 4.26823377c-4.84837 2.13441255-8.052728 4.27316207-14.772327 9.42260343-6.780401 5.196036-10.034376 7.3679021-14.977673 9.5441051-6.527825 2.8737642-13.973183 4.3529974-23.326459 4.3529974-9.356475 0-16.910474-1.4810101-23.603309-4.3510858-5.103289-2.1884334-8.67998-4.4974865-15.445566-9.5420429-.338427-.2523932-.338427-.2523932-.676544-.5045666-6.52636-4.86649733-9.883142-7.04692558-14.618172-9.1089051-6.187667-2.69456408-13.10335-4.0813393-21.656409-4.0813393-8.753525 0-15.8953416 1.45178525-22.3628222 4.26901365-4.9045148 2.13640198-8.2467776 4.27741151-15.3434293 9.42956935-7.1533483 5.1933195-10.5402522 7.3629256-15.5315707 9.5371392-6.5950194 2.8727842-13.8728459 4.3522175-22.7621778 4.3522175-8.6246344 0-15.5880239-1.3936285-21.7898272-4.1069783-4.54495334-1.9884617-7.81155378-4.0906408-13.7101728-8.5222086z" fill="#fff" fill-rule="evenodd" stroke="#979797"/></svg>